<svg xmlns="http://www.w3.org/2000/svg" width="104" height="90" fill="none"><path fill="#EC1C24" d="M103.996 27.784v5.472a1.783 1.783 0 0 0-.184.455 33.154 33.154 0 0 1-2.704 9.827c-3.139 7.24-7.874 13.376-13.26 19.06C77.818 73.17 66.24 81.827 53.854 89.435c-1.291.794-2.507.731-3.807-.055C39.403 82.913 29.411 75.587 20.375 67c-5.667-5.375-10.824-11.19-14.81-17.953C2.617 44.032.435 38.736.072 32.884c-.49-7.792 1.475-14.969 6.135-21.28C11.01 5.104 17.39 1.008 25.54.234c9.645-.928 17.502 2.75 23.729 10.057.99 1.166 1.839 2.454 2.683 3.59 1.446-1.784 2.729-3.682 4.321-5.266C64.336.606 73.885-2.111 84.692 1.701c9.479 3.344 15.212 10.45 18.054 19.968.594 1.99.836 4.084 1.254 6.128"/></svg>