<svg xmlns="http://www.w3.org/2000/svg" width="7" height="7" fill="none"><path fill="#fff" d="M2.486.003c.05-.005.158.014.328.057.174.038.28.069.319.09.016.027.04.057.073.09.082 0 .186.033.311.098 0 .043.014.114.041.212.038.033.088.082.148.147.016.076.049.18.098.31.022.005.052.02.09.04-.055.186-.077.305-.066.36a.424.424 0 0 0 .025.057c.016.022.022.043.016.065-.06.082-.122.201-.188.36 0 .026.008.08.025.162a.265.265 0 0 1-.025.172 1.55 1.55 0 0 1-.074.016.375.375 0 0 1-.049.147.551.551 0 0 0-.139.098c0 .032-.008.07-.024.114a2.278 2.278 0 0 0-.123.025v.048a.234.234 0 0 1-.14.009.196.196 0 0 0-.122-.009v.025a2.783 2.783 0 0 0-.336.261v.098a.65.65 0 0 0 0 .212c.011.027.055.065.131.114.077.05.123.082.14.098a.169.169 0 0 0 0 .074c.016.049.054.09.114.122V3.7c.055-.006.15-.014.287-.025 0-.027.005-.092.016-.196a.448.448 0 0 0-.008-.155.173.173 0 0 0-.082-.106c.022-.005.03-.022.024-.049.126-.01.303-.04.532-.09-.147-.076-.22-.157-.22-.244 0-.05.032-.095.098-.139a1.01 1.01 0 0 0 .262-.098.551.551 0 0 1 .057-.155.279.279 0 0 1 .155-.13c.082.005.202.005.36 0l.172-.074c.044 0 .129.022.254.065.126.044.208.08.246.106.12.082.19.153.212.213v.073c.055.01.126.035.213.073.022.017.036.047.041.09a.299.299 0 0 1 0 .098c-.005.033-.01.04-.016.025.005.043.022.122.049.236a.518.518 0 0 0-.05.22c0 .033.009.047.025.041-.021.006-.005.014.05.025v.073a.47.47 0 0 1-.074.074c-.038 0-.101.008-.188.024a1.45 1.45 0 0 1-.213.09.402.402 0 0 1-.18-.04.907.907 0 0 0-.18-.05.657.657 0 0 1-.148 0c-.01-.033-.043-.068-.098-.106a.448.448 0 0 1-.09-.016.564.564 0 0 0-.074-.098.508.508 0 0 0-.262-.065v.04c-.065.044-.103.093-.114.147.016.017.024.041.024.074l-.049.024c.011.005.02.027.025.065l-.041.057c-.022.033-.033.055-.033.066 0 .01.008.024.025.04.016.012.024.022.024.033a.819.819 0 0 0-.122.139c.016.103.016.215 0 .334.092.033.139.052.139.058l.049.138a1.02 1.02 0 0 0-.213.115c.033.141.057.239.074.293.049.147.098.229.147.245a.805.805 0 0 1 .188.008c.011.006.017.025.017.057 0 .028-.006.041-.017.041.115.016.227.025.336.025.01-.06.04-.131.09-.213.016-.01.093-.038.229-.081.087-.022.136-.07.147-.147.006-.06.137-.103.393-.13a.2.2 0 0 0 .025.048c.043.022.09.074.139.155.049.082.09.134.123.155.082.022.201.06.36.115-.028.038-.036.062-.025.073-.06.033-.147.079-.262.139V5.6c.11.021.251.054.426.098l-.025.09h-.335a.319.319 0 0 1-.017.04.438.438 0 0 1-.098.033.443.443 0 0 0 .05.073.59.59 0 0 1 .138 0l.123.074c-.021.076-.03.114-.024.114h-.508c-.022.016-.043.054-.065.114a.274.274 0 0 1-.05.106.97.97 0 0 1-.155.082.71.71 0 0 1-.155.057.34.34 0 0 1-.123-.008 2.898 2.898 0 0 1-.09-.017 1.853 1.853 0 0 1-.434.05l-.074-.074a.815.815 0 0 1-.163 0 3.126 3.126 0 0 0-.148-.09h-.09l-.073-.073a.867.867 0 0 1-.238-.05 22.331 22.331 0 0 1-.237-.211v-.05h-.05c-.032.028-.073.06-.122.099a.17.17 0 0 0-.074 0 1.146 1.146 0 0 1-.114.163.674.674 0 0 0-.147.024v.05c-.017.043-.08.08-.189.114-.054 0-.133.008-.237.024v.049c-.038.016-.08.033-.123.049l-.36-.025c-.087.017-.23.025-.426.025-.087-.027-.199-.06-.335-.098a.459.459 0 0 1-.172-.024 5.289 5.289 0 0 0-.14-.188.91.91 0 0 1-.146-.074.503.503 0 0 0-.066-.09.744.744 0 0 1-.147-.048l-.098-.172a.179.179 0 0 0 .024-.065 7.825 7.825 0 0 1-.14-.122 2.814 2.814 0 0 0-.073-.261L.31 5.29a.398.398 0 0 0 0-.115 1.97 1.97 0 0 1-.065-.146c.005-.017.013-.058.024-.123a7.522 7.522 0 0 1-.033-.155.536.536 0 0 1 0-.188.346.346 0 0 1 .131-.163.645.645 0 0 0 .115-.09 1.357 1.357 0 0 1 0-.301.509.509 0 0 0 .09-.05.97.97 0 0 1 .05-.17.189.189 0 0 0 .09-.058C.747 3.7.775 3.6.791 3.43c.054-.016.134-.046.237-.09a.443.443 0 0 1 .05-.073c.016.006.04.006.073 0v-.024c.05-.028.077-.055.082-.082l.057-.155c.011-.022.085-.103.221-.245.12-.12.183-.204.188-.253.006-.065-.027-.144-.098-.236a.77.77 0 0 1-.123-.196c0-.109-.013-.291-.04-.547a7.754 7.754 0 0 0-.066-.122.293.293 0 0 1-.033-.163l.099-.213a.462.462 0 0 1 0-.122.14.14 0 0 0 .065-.024.904.904 0 0 0 .05-.14 1.822 1.822 0 0 1 0-.244l.122-.09c0-.027.008-.06.024-.098h.066a.8.8 0 0 1 .098-.098c.05.011.128.003.237-.024.011-.016.028-.038.05-.065h.073A.132.132 0 0 1 2.282.06a.826.826 0 0 1 .204-.057Zm.172.62v.025a.315.315 0 0 0-.098.024v.05a.22.22 0 0 1-.131-.009c-.05-.016-.085-.021-.107-.016-.043.005-.109.057-.196.155-.087.092-.134.158-.14.196a.237.237 0 0 0 .017.147.37.37 0 0 1 .033.122.889.889 0 0 0-.074.188c-.027.18-.019.315.025.408h.024c.033.016.066.068.099.155a.405.405 0 0 0 .09.155c.065.016.16.046.286.09.011-.022.028-.052.05-.09h.048c0-.044.017-.093.05-.147a.575.575 0 0 0 .139-.025c.07-.043.15-.171.237-.383a.608.608 0 0 1-.188-.139v-.073l.024-.025a.514.514 0 0 0 .099-.114.574.574 0 0 0-.025-.122c0-.017.008-.033.025-.05.016.05.038.12.065.213h.05a.888.888 0 0 1 .073.122l.049-.024a.584.584 0 0 1 0-.139c0-.033.008-.07.024-.114a.252.252 0 0 0 .033-.098c0-.038-.027-.079-.082-.123A1.349 1.349 0 0 1 2.985.91a1.073 1.073 0 0 0-.04-.147 1.278 1.278 0 0 1-.148-.065.256.256 0 0 1-.024-.074c-.017-.01-.055-.01-.115 0Zm.213.213c.022 0 .038.005.049.016.011.01.014.019.008.024-.01.011-.03.014-.057.009.027 0 .019.008-.025.024-.016-.044-.008-.068.025-.073Zm-.81 2.619a.503.503 0 0 0-.213.098c-.115.07-.18.111-.197.122a.293.293 0 0 0-.098 0 .878.878 0 0 0-.204.082.756.756 0 0 0-.189.106.192.192 0 0 0-.032.049c-.055.07-.12.15-.197.236H.907a.164.164 0 0 1 0 .074.26.26 0 0 0-.066.049.599.599 0 0 0-.033.285c.022.185.033.289.033.31-.027 0-.035.003-.024.009a.093.093 0 0 0 .024.016c.016.005.016.01 0 .016h.025a.562.562 0 0 0-.025.074c.038.021.085.046.14.073v.025c.005 0-.004.008-.025.024 0 .038-.009.109-.025.212.044.054.11.117.197.188a.28.28 0 0 0 .171.049h.14c.043.032.098.065.163.098.05-.006.12-.006.213 0l.074.049a.422.422 0 0 0 .139-.008.38.38 0 0 1 .147-.017c.006 0 .033.017.082.05.05.026.093.035.13.024v-.05l.083-.073a.718.718 0 0 1 .09-.073h.024a.605.605 0 0 1 .074-.188 2.08 2.08 0 0 0 .164-.098v-.049c.054-.027.133-.073.237-.138a.886.886 0 0 0 0-.172l-.049-.016a1.497 1.497 0 0 1-.115-.171 8.49 8.49 0 0 0-.024-.14c-.006-.005-.071-.116-.197-.334a.753.753 0 0 1-.237-.122.31.31 0 0 0-.033-.114c-.016-.055-.092-.128-.229-.22l.066-.099c.021-.032.024-.07.008-.114-.033-.081-.09-.122-.172-.122H2.06ZM4.59 4.842c.032.005.046.03.04.073l-.016.066a1.37 1.37 0 0 1-.188-.05c-.044-.01-.068-.021-.074-.032 0 .016.055.014.164-.008.044-.038.068-.054.074-.05Z"/></svg>