<svg xmlns="http://www.w3.org/2000/svg" width="36" height="10" fill="none"><path fill="#fff" d="M2.083.445c.244-.036.427-.025.549.032.014.029.036.061.064.097a.6.6 0 0 1 .162 0c-.015 0-.01-.004.01-.01a.104.104 0 0 1 .055-.022.89.89 0 0 1 .226.01c.114.015.197.022.247.022a.974.974 0 0 1 .162-.032c.23.021.85.032 1.863.032-.029 0-.007-.01.065-.032.287-.029.513-.018.678.032a.637.637 0 0 0 .097.118c.05.036.14.06.27.075a.8.8 0 0 1 .28.065c.057.078.143.164.258.257.043.015.093.007.15-.021a.38.38 0 0 1 .108-.043l.345.354v.064a.393.393 0 0 1 .129 0l.032.033v.15c.015.064.1.15.259.258a.354.354 0 0 1-.065.129 5.766 5.766 0 0 1-.29.128v.161c.006.007.082.061.226.161-.072.086-.108.15-.108.194 0 .028.014.05.043.064a.898.898 0 0 0-.172.129 3.32 3.32 0 0 1-.054.258l-.065.064a1.94 1.94 0 0 0 0 .505l-.215.096c-.065.058-.097.197-.097.419v.225l-.065.033c-.007.05-.01.103-.01.16 0 .05-.022.076-.065.076a.742.742 0 0 0-.15.021c-.03.015-.062.061-.098.14-.029.079-.064.122-.108.129-.043 0-.104.007-.183.021a6.09 6.09 0 0 0-.161.193 3.34 3.34 0 0 0-.29.097c-.058-.021-.166-.021-.324 0a.985.985 0 0 1-.097.129.25.25 0 0 1-.14-.022.267.267 0 0 0-.118-.043 4.142 4.142 0 0 1-.227.13.826.826 0 0 1-.29-.011 4.999 4.999 0 0 0-.313-.022c-.079 0-.143.01-.193.032a.986.986 0 0 1-.097.13c.093.185.104.332.032.44a.58.58 0 0 0-.097.064.22.22 0 0 1 0 .096.507.507 0 0 0-.13.097c0 .007.012.018.033.032-.05.23-.072.358-.065.387a.75.75 0 0 1 .097.032c.015.014.022.036.022.064 0 .029.004.05.01.065a.86.86 0 0 1-.16.16.6.6 0 0 0-.162 0c0-.006-.011.037-.033.13.007 0 .018.021.033.064.057-.007.154-.018.29-.032.05.086.104.215.162.386-.022.036-.032.111-.032.226a.58.58 0 0 1 .097.064v.065c.071.035.179.075.323.118h.226l.064.064h.065v-.064l.13-.065c.035-.014.096-.003.182.033.015.035.065.075.151.118a.331.331 0 0 1 .14.01v.065c.058.164.058.293 0 .386a.579.579 0 0 0-.097.065c0 .028-.01.057-.032.086a.073.073 0 0 1-.065.032.206.206 0 0 0-.064.01.534.534 0 0 1-.13.13 3.264 3.264 0 0 0-.377 0l-.064.064c-.216.057-.42.068-.614.032a2.443 2.443 0 0 0-.162-.097 3.042 3.042 0 0 0-.387-.064.427.427 0 0 0-.183.054.524.524 0 0 1-.14.043 3.906 3.906 0 0 0-.41-.033l-.032.065a5.471 5.471 0 0 0-.7 0 4.018 4.018 0 0 1-.721-.032l-.13-.065a.797.797 0 0 1-.323-.064 56.325 56.325 0 0 0-.032-.13 1.028 1.028 0 0 1-.032-.192c.014-.065.057-.115.129-.15.079-.037.154-.072.226-.108a.47.47 0 0 1 .162-.129c.107.007.269-.004.484-.032.093-.057.212-.118.356-.183h.42c.036-.085.079-.193.129-.322v-.257l-.065-.033a.222.222 0 0 1 .022-.128c.021-.05.036-.083.043-.097a4.97 4.97 0 0 1-.032-.45.18.18 0 0 1 .01-.044.19.19 0 0 0 .022-.086l-.065-.096a1.532 1.532 0 0 1 0-.516l.065-.086a.72.72 0 0 1-.032-.257.787.787 0 0 0 .096-.226c0-.036-.01-.118-.032-.247a2.816 2.816 0 0 1-.032-.236 2.91 2.91 0 0 0 .032-.515.68.68 0 0 1-.097-.161.985.985 0 0 1-.032-.387l.065-.15a3.41 3.41 0 0 1-.033-.548c.022-.107.033-.171.033-.193a1.106 1.106 0 0 1-.13-.129.144.144 0 0 1 .033-.118.387.387 0 0 0 .064-.075.965.965 0 0 0-.054-.236 1.67 1.67 0 0 1-.043-.215.58.58 0 0 1 .033-.258l.064-.032c0-.021-.021-.107-.064-.257a.322.322 0 0 1-.162.032.637.637 0 0 0-.097-.118c-.079 0-.197-.011-.355-.033l-.033-.064-.258-.097V1.25a.517.517 0 0 0-.162-.021c-.157 0-.362.039-.613.118l-.162-.065.097-.29.065-.032C1.153.953 1.142.9 1.113.8c.08-.037.187-.069.323-.097.058 0 .155.021.291.064.108-.193.226-.3.356-.322Zm2.929.837c-.05.072-.126.176-.226.312a.218.218 0 0 1-.097 0 .375.375 0 0 1-.065-.097h-.161v.065a1.087 1.087 0 0 0-.13.064c.043.072.086.179.13.322.021 0 .053.01.096.032h-.096a.578.578 0 0 1-.065.097.897.897 0 0 1-.194.032c.122.015.284.057.485.129 0 .036.01.079.032.129a24.12 24.12 0 0 1-.032.096.441.441 0 0 0-.162.097 1.92 1.92 0 0 1 0 .29l-.064.064c.014.022.003.043-.033.065.08.064.119.114.119.15 0 .014-.007.029-.022.043a3.15 3.15 0 0 1-.194.322c-.007 0 .004.043.033.129.007-.007.017.01.032.054v.096c0 .007-.054.05-.162.13.08.035.176.1.291.192a.39.39 0 0 0 0 .13.323.323 0 0 0 .162.192c.05.029.107.043.172.043a.938.938 0 0 0 .29-.064.875.875 0 0 1 .238-.075c.007 0 .06.021.161.064a.32.32 0 0 0 .173-.032.89.89 0 0 1 .15-.064.97.97 0 0 0 .356 0v-.065l.323-.419c.079.008.197-.003.355-.032.05-.021.076-.086.076-.193 0-.114.007-.186.021-.215a.809.809 0 0 0 .194-.096l-.032-.13c.014 0 .025-.006.032-.02a.165.165 0 0 1 .032-.044 50.425 50.425 0 0 0-.032-.128l-.194-.162-.032-.032c0-.064-.011-.16-.033-.29a2.44 2.44 0 0 1-.193-.193.748.748 0 0 0-.065-.193 1.058 1.058 0 0 1-.226-.097.745.745 0 0 0-.032-.096 1.29 1.29 0 0 1-.227-.065 1.625 1.625 0 0 0-.226-.225.6.6 0 0 1-.161 0l-.033-.065a.863.863 0 0 1-.193 0l-.065-.053h-.162a1.987 1.987 0 0 1-.097-.161l-.247-.033Zm6.562 1.02h.43c.073.036.162.08.27.13.065 0 .165.014.302.042.05.036.114.079.194.129.1 0 .247.032.441.097a.526.526 0 0 1 .118.193c.044.093.08.15.108.172.08.043.19.11.334.204.13.114.24.268.334.461.021.115.068.283.14.505a.62.62 0 0 1 .097.097 1.253 1.253 0 0 0-.033.332c0 .007.018.05.054.13.036.078.05.146.043.203h-.032c-.007.079-.029.19-.065.333l-.064.032a3.832 3.832 0 0 1-.075.204c-.022.065-.058.1-.108.108-.05 0-.126.007-.226.021-.015.007-.069.04-.162.097a.438.438 0 0 1-.237.086.403.403 0 0 1-.097-.011 1.065 1.065 0 0 0-.129-.172.458.458 0 0 1-.14 0c-.15.122-.27.183-.355.183a.64.64 0 0 1-.216-.043 5.316 5.316 0 0 1-.097-.108 1.21 1.21 0 0 1-.301.065 1.11 1.11 0 0 1-.119-.033.369.369 0 0 0-.183-.032l-.032.065c-.08.007-.19.021-.334.043v.032a1.004 1.004 0 0 1-.334-.032.114.114 0 0 1-.021-.043c-.007-.022-.022-.033-.043-.033-.036.008-.08.036-.13.086a.377.377 0 0 1-.107.086c-.029.007-.072 0-.13-.021a.55.55 0 0 0-.096-.043c-.194-.029-.485.014-.873.129 0 .257.043.458.13.6l.107.065c.007.036-.028.125-.108.269.022.014.13.146.324.397.15.2.254.3.312.3.057 0 .136.011.237.033l.172.204a.221.221 0 0 0 0 .096c.043.022.119.025.226.011a.991.991 0 0 1 .237-.01c.043.006.119.035.226.085.108.05.201.075.28.075.05 0 .104-.01.162-.032.028-.036.072-.079.13-.129.064-.007.154-.028.268-.064v-.107c.036 0 .083-.011.14-.033 0-.028.011-.06.033-.096.086-.036.208-.115.366-.236.043-.086.133-.197.269-.333a.385.385 0 0 0 .13 0c.05-.015.182-.1.398-.258l.064-.107c.065.007.155.007.27 0 0 .014.021.036.064.064l-.032.473c-.036.114-.08.268-.13.461a.454.454 0 0 1 0 .14c-.129.121-.287.275-.473.461-.036.05-.076.1-.119.15a.25.25 0 0 1-.172.087c-.065 0-.165.01-.302.032a1.986 1.986 0 0 1-.269.236c-.086 0-.23.01-.43.032-.044 0-.144.029-.302.086a.725.725 0 0 1-.334.043 4.854 4.854 0 0 1-.14-.097 1.83 1.83 0 0 0-.312-.043c-.115-.014-.198-.046-.248-.096a1.291 1.291 0 0 0-.043-.129c-.014-.029-.082-.079-.205-.15a1.638 1.638 0 0 0-.269-.15.512.512 0 0 0-.226-.022.702.702 0 0 1-.226-.01 1.627 1.627 0 0 0-.14-.173 1.058 1.058 0 0 1-.226-.096 6.466 6.466 0 0 0-.205-.365 5.372 5.372 0 0 1-.398-.43.583.583 0 0 1-.076-.214 1.02 1.02 0 0 0-.075-.247 1.045 1.045 0 0 0-.086-.14 3.059 3.059 0 0 0 0-.365l-.065-.097c.022-.078.032-.214.032-.408-.028-.057-.039-.1-.032-.128.007-.043.054-.093.14-.15.093-.058.147-.108.162-.151a.224.224 0 0 0-.033-.204 4.673 4.673 0 0 1-.097-.161c-.021-.057-.028-.197-.021-.419.007-.222.025-.372.054-.45a.58.58 0 0 0 .097-.065c0-.036.01-.079.032-.129h.065c.014-.071.046-.172.096-.3.058-.036.126-.094.205-.172a.975.975 0 0 1 .065-.194 5.19 5.19 0 0 1 .366-.332c.029 0 .075-.011.14-.033.036-.05.09-.107.161-.171.072 0 .183-.022.334-.065l.27-.204c.05-.007.107 0 .172.022.064.021.118.028.161.021a.835.835 0 0 1 .162-.14c.093-.02.23-.032.41-.032Zm0 .666c-.014 0-.093.032-.237.097a1.343 1.343 0 0 0-.237.107.654.654 0 0 1-.161.258c-.029.014-.097.003-.205-.033-.144-.014-.265.054-.366.204.014.036.036.08.065.13.007-.022.017.035.032.171-.015-.007-.036.004-.065.032-.33 0-.52.022-.57.065a.39.39 0 0 1 0 .129c-.036.071-.08.16-.13.268 0 .071-.021.182-.064.333H9.57c-.014.043-.04.11-.075.204H9.43a.504.504 0 0 0-.01.096c0 .136.107.204.322.204.1 0 .266-.017.496-.053.23-.043.387-.065.474-.065.05 0 .09.004.118.011.05.043.108.09.172.14-.021.014-.018.025.011.032h.054v-.065c.014-.014.014-.05 0-.107.065 0 .176-.01.334-.032.251-.036.642-.09 1.174-.161a.615.615 0 0 0 .097-.097.859.859 0 0 0-.033-.107c.137-.093.338-.136.603-.13a1.28 1.28 0 0 0-.075-.353.63.63 0 0 0-.194-.215.454.454 0 0 1-.14-.065c0-.057-.01-.146-.032-.268a4.176 4.176 0 0 1-.13-.193.27.27 0 0 0 0-.108.223.223 0 0 1-.096 0 .398.398 0 0 0-.076-.096c-.237-.15-.434-.24-.592-.269a1.3 1.3 0 0 1-.237 0 .473.473 0 0 0-.097-.064Zm6.285-.784c.014 0 .053.022.118.065a.418.418 0 0 0 .119.053c.107-.028.272-.039.495-.032a1.8 1.8 0 0 0 .215.183c.043-.036.144-.065.302-.086.093.014.219.075.377.182a.375.375 0 0 0 .086.118c.014.015.025.018.032.011v-.021c0-.022.011-.029.032-.022V2.7c.13.071.255.14.377.204.151.086.259.171.323.257.015.015.08.115.194.3-.021.008-.032.026-.032.055a.73.73 0 0 0 .086.279c.058.114.104.175.14.182.043.007.119.022.226.043a.626.626 0 0 0 .065.054l-.032.064h-.119c-.086.022-.129.086-.129.194V4.6c0 .007-.01.032-.032.075s-.029.079-.022.107c0 .008.01.04.032.097s.03.107.022.15a.374.374 0 0 1-.054.086.254.254 0 0 0-.032.161l.064.054c.044.129.05.261.022.397 0 .029-.029.082-.086.161a.315.315 0 0 0-.065.215.733.733 0 0 0 .076.129c.05.064.075.11.075.14 0 .035-.018.067-.054.096h-.15c-.008.029-.011.104-.011.225l.01.172c.008.022.076.072.205.15a.727.727 0 0 0 .161.119.562.562 0 0 0 .162 0c.086-.015.144-.022.172-.022l.033-.064a.803.803 0 0 1 .172-.022c.18 0 .327.15.441.451.037.072.076.172.119.3-.014.05-.025.105-.032.162a.311.311 0 0 0-.119.086.39.39 0 0 0-.086.096v.118c-.058.043-.13.104-.215.183.036 0 .053.018.053.054 0 .064-.05.168-.15.311-.223-.029-.406-.007-.55.064a.596.596 0 0 1-.172.108c-.072.036-.211.05-.42.043-.215-.007-.355-.025-.42-.054a6.877 6.877 0 0 0-.183-.247.807.807 0 0 0-.28-.15c-.065-.029-.115-.04-.15-.032a1.212 1.212 0 0 0-.464.15v.064a3.696 3.696 0 0 1-.15.118.384.384 0 0 0-.13 0l-.032.065a2.25 2.25 0 0 0-.302-.032 1.394 1.394 0 0 1-.15.086 3.261 3.261 0 0 0-.377 0 2.076 2.076 0 0 1-.366.128.423.423 0 0 1-.14-.032.463.463 0 0 0-.108-.032 2.73 2.73 0 0 1-.334.032 3.682 3.682 0 0 0-.215-.096c-.094.014-.237-.004-.431-.054a1.668 1.668 0 0 0-.183-.28 2.75 2.75 0 0 1-.302-.117c-.071-.043-.176-.208-.312-.494a4.253 4.253 0 0 1-.183-.365 1.788 1.788 0 0 0 0-.28.975.975 0 0 0-.075-.139.34.34 0 0 1-.044-.193c.03-.065.058-.147.087-.247a.808.808 0 0 1-.033-.28c.015-.035.054-.067.119-.096a.382.382 0 0 0 .129-.086v-.086c.05-.093.111-.214.183-.365 0-.043.01-.107.032-.193.043-.057.198-.147.463-.268v-.033c.05.007.112.007.184 0a1.99 1.99 0 0 1 .064-.182h.054a.98.98 0 0 1-.399-.183.512.512 0 0 0-.118-.182l-.14-.054c-.036-.014-.057-.06-.065-.14a.12.12 0 0 0-.01-.053.422.422 0 0 1-.119-.129c-.014-.036 0-.2.043-.494.05-.3.09-.469.119-.504.036-.036.082-.09.14-.161v-.086c.136-.2.219-.315.247-.344.03-.028.137-.1.324-.215.186-.114.294-.175.323-.182.043.028.133.05.269.064.064-.057.158-.118.28-.182.079.007.19.007.334 0a.768.768 0 0 0 .172-.097c.093-.057.162-.086.205-.086Zm-.033 1.16-.064.064a2.572 2.572 0 0 0-.334 0c-.058.036-.13.075-.216.118h-.064c0 .08-.022.183-.065.312h-.118c-.029.143-.029.254 0 .332.05.072.072.104.064.097-.014-.014-.036-.007-.064.022a.296.296 0 0 1 0 .16.466.466 0 0 0-.119.119c.007.086.007.218 0 .397.453.036.747.036.883 0l.033-.064c.129-.08.251-.13.366-.15.107-.015.262-.004.463.031.007-.05.028-.132.064-.247-.036 0 .08.008.345.022.15 0 .252-.018.302-.054.028-.021.05-.071.064-.15.022-.079.04-.15.054-.215a10.652 10.652 0 0 1-.398-.214 1.442 1.442 0 0 0-.065-.086 1.14 1.14 0 0 1-.183-.065.716.716 0 0 0-.183-.182 5.271 5.271 0 0 1-.495-.097.502.502 0 0 1-.097-.097.203.203 0 0 0-.173-.053Zm1.099 2.566v.064c-.072.022-.205.065-.399.129a7.26 7.26 0 0 1-.118.086c-.158 0-.395.01-.71.032-.13.05-.303.111-.518.183a.218.218 0 0 0-.097 0 .338.338 0 0 1-.054.118 3.82 3.82 0 0 0-.28.129c0 .05.004.1.011.15 0 .043-.025.075-.075.096a1.068 1.068 0 0 0-.216 0l-.032.054h-.086c0 .029.01.072.032.129.058.029.13.068.216.118a.221.221 0 0 0 0 .097.174.174 0 0 1 .086 0c.036.014.082.064.14.15.057.086.104.136.14.15h.118c.137.036.23.047.28.033a.974.974 0 0 1 .119-.097c.186-.036.423-.004.71.097v.021c0 .007.011.01.033.01v-.031c.15-.08.233-.13.247-.15a.457.457 0 0 1 .022-.183h.065a.788.788 0 0 1 .129-.161h.237a.92.92 0 0 1 .377-.451c-.029-.015-.022-.036.021-.065a.489.489 0 0 0-.054-.096h.054c.007-.022.018-.061.032-.118a1.084 1.084 0 0 1-.183-.183 1.328 1.328 0 0 0-.064-.204c-.029-.079-.09-.114-.183-.107Zm6.573-3.447.183.054a.91.91 0 0 0 .27-.021.8.8 0 0 1 .29-.011c.094.057.23.122.41.193.136.015.333.065.592.15.014.029.032.061.054.097.035 0 .079.01.129.032 0 .029.01.061.032.097a.9.9 0 0 1 .15.021.58.58 0 0 0 .066.097h.129l.215.161v.086c.086.086.19.222.312.408 0 .079.022.193.065.343l.312.215c-.057.18-.057.397 0 .655-.158.029-.24.068-.247.118-.036.15-.058.233-.065.247-.036.057-.186.147-.452.269-.259.121-.431.178-.517.171a2.16 2.16 0 0 1-.323-.15c-.18-.1-.28-.165-.302-.193a1.19 1.19 0 0 1-.064-.183c-.03-.028-.08-.046-.151-.053a.491.491 0 0 1-.183-.022 1.974 1.974 0 0 0-.13-.086c.015-.071.047-.175.097-.311.008-.022.047-.05.119-.086.079-.136.1-.283.064-.44a1.573 1.573 0 0 1-.15-.183.748.748 0 0 0-.033-.096 4.322 4.322 0 0 1-.441-.065c-.022 0-.097-.036-.226-.107-.108-.05-.198-.065-.27-.043v.097a7.14 7.14 0 0 1-.344.021.71.71 0 0 1-.13.258.573.573 0 0 0-.183.053v.097l-.183.215h-.064c.029.021.04.053.032.096-.057.043-.086.08-.086.108 0 .05-.014.096-.043.14-.022 0-.05.01-.086.031a1.07 1.07 0 0 1-.065.215.337.337 0 0 1-.097.032c.058.007.086.022.086.043 0 .036-.039.065-.118.086.007.043.007.115 0 .215l-.065.032c0 .093.011.269.033.526a.902.902 0 0 0-.151.065c.036.014.047.043.032.086-.007.05-.029.082-.065.096.008.029.019.082.033.161h.097v.054h.021c0 .136.022.293.065.472.036.029.1.047.194.054.093 0 .147.004.161.01.022.008.09.13.205.366a.475.475 0 0 1 .097-.15l.215-.033c.072.15.176.315.313.494.057.022.172.032.344.032s.287-.01.345-.032a.96.96 0 0 1 .247-.182c.087.021.212.043.377.064a.245.245 0 0 0 .205-.118c.05-.079.093-.154.13-.226a.265.265 0 0 0 .064-.032v-.096h.097c.029-.043.06-.093.097-.15a1.087 1.087 0 0 1 0-.312c.014 0 .032-.022.054-.064.072.007.175-.004.312-.033a.392.392 0 0 1 .097-.086h.129a.364.364 0 0 1 .086-.096.575.575 0 0 1 .366.064c.13.065.216.136.259.215 0 .029.01.068.032.118.08.057.162.15.248.28.014.064 0 .15-.043.257-.043.107-.08.168-.108.182h-.097c0 .05-.01.122-.032.215l-.097.097c0 .064-.007.157-.022.279a1.46 1.46 0 0 0-.538.279v.064c-.014.043-.086.093-.215.15-.05.03-.137.04-.259.033a.835.835 0 0 0-.205 0 1.606 1.606 0 0 1-.032.129.764.764 0 0 1-.248.182 3.182 3.182 0 0 0-.344.065c-.05.036-.111.075-.183.118-.1.021-.23.021-.388 0a3.424 3.424 0 0 0-.366-.032c-.23.014-.323.025-.28.032l-.119-.054-.398.01a.584.584 0 0 1-.355-.074.804.804 0 0 0-.119-.161.223.223 0 0 1-.097 0 1.138 1.138 0 0 0-.097-.086 1.083 1.083 0 0 1-.215-.065.722.722 0 0 0-.13-.182h-.085l-.227-.161a1.104 1.104 0 0 0-.053-.183.696.696 0 0 1-.205-.193c.007-.071 0-.182-.022-.333a4.627 4.627 0 0 1-.183-.257A2.46 2.46 0 0 0 23 7.177a.184.184 0 0 1-.087-.033 2.8 2.8 0 0 0-.064-.332 1.647 1.647 0 0 1-.162-.194c0-.093-.018-.236-.053-.43a3.205 3.205 0 0 1-.098-.128.88.88 0 0 1 .033-.494l.065-.032a1.408 1.408 0 0 1 0-.247c.035-.093.075-.218.118-.376a.768.768 0 0 1 0-.182c.072-.093.154-.23.248-.408a.324.324 0 0 1 0-.118c.064-.05.136-.115.215-.194a2.04 2.04 0 0 1 .13-.279.73.73 0 0 0 .16-.086c0-.05.019-.125.055-.225h.064v-.032c.036-.015.119-.075.248-.183.014-.036.036-.079.064-.129.073 0 .177-.017.313-.053.05-.058.133-.133.248-.226v-.053a.33.33 0 0 1 .183-.043.7.7 0 0 0 .183-.033.67.67 0 0 0 .129-.085c.064 0 .158-.011.28-.033.057-.028.133-.057.226-.086Zm6.942-.16h.43c.072.035.162.078.27.128.064 0 .165.015.301.043.05.036.115.079.194.129.1 0 .248.032.441.097a.526.526 0 0 1 .119.193c.043.093.079.15.108.172.079.043.19.11.333.204.13.114.241.268.334.461.022.115.069.283.14.505a.62.62 0 0 1 .097.097 1.249 1.249 0 0 0-.032.332c0 .007.018.05.054.13.036.078.05.146.043.203h-.032c-.008.079-.03.19-.065.333l-.065.032a3.832 3.832 0 0 1-.075.204c-.022.065-.058.1-.108.108-.05 0-.125.007-.226.021-.014.007-.068.04-.162.097a.438.438 0 0 1-.236.086.405.405 0 0 1-.097-.011 1.057 1.057 0 0 0-.13-.172.458.458 0 0 1-.14 0c-.15.122-.269.183-.355.183a.64.64 0 0 1-.215-.043 5.913 5.913 0 0 1-.097-.108 1.21 1.21 0 0 1-.302.065c-.007 0-.047-.011-.118-.033a.369.369 0 0 0-.183-.032l-.033.065a6.12 6.12 0 0 0-.334.043v.032a1.005 1.005 0 0 1-.333-.032.116.116 0 0 1-.022-.043c-.007-.022-.021-.033-.043-.033-.036.008-.079.036-.13.086a.378.378 0 0 1-.107.086c-.029.007-.072 0-.13-.021a.546.546 0 0 0-.096-.043c-.194-.029-.485.014-.872.129 0 .257.043.458.129.6l.108.065c.007.036-.03.125-.108.269.021.014.13.146.323.397.15.2.255.3.312.3.058 0 .137.011.237.033l.172.204a.221.221 0 0 0 0 .096c.044.022.119.025.227.011a.992.992 0 0 1 .237-.01c.043.006.118.035.226.085.107.05.2.075.28.075.05 0 .104-.01.161-.032.029-.036.072-.079.13-.129.064-.007.154-.028.269-.064v-.107c.036 0 .082-.011.14-.033 0-.028.01-.06.032-.096.086-.036.208-.115.366-.236.043-.086.133-.197.27-.333a.384.384 0 0 0 .129 0c.05-.015.183-.1.398-.258l.065-.107c.064.007.154.007.269 0 0 .014.021.036.065.064-.008.1-.018.258-.033.473-.036.114-.079.268-.129.461a.454.454 0 0 1 0 .14c-.13.121-.287.275-.474.461-.036.05-.075.1-.118.15a.25.25 0 0 1-.173.087c-.064 0-.165.01-.301.032a1.982 1.982 0 0 1-.27.236c-.086 0-.23.01-.43.032-.043 0-.144.029-.302.086a.726.726 0 0 1-.334.043 4.854 4.854 0 0 1-.14-.097 1.83 1.83 0 0 0-.312-.043c-.115-.014-.197-.046-.247-.096a1.318 1.318 0 0 0-.044-.129c-.014-.029-.082-.079-.204-.15a1.638 1.638 0 0 0-.27-.15c-.05-.022-.125-.03-.226-.022a.702.702 0 0 1-.226-.01 1.636 1.636 0 0 0-.14-.173 1.057 1.057 0 0 1-.226-.096 6.515 6.515 0 0 0-.204-.365 5.367 5.367 0 0 1-.399-.43.585.585 0 0 1-.075-.214 1.02 1.02 0 0 0-.076-.247 1.049 1.049 0 0 0-.086-.14 3.063 3.063 0 0 0 0-.365l-.064-.097c.021-.078.032-.214.032-.408-.029-.057-.04-.1-.032-.128.007-.043.053-.093.14-.15.093-.058.147-.108.161-.151a.224.224 0 0 0-.032-.204 4.562 4.562 0 0 1-.097-.161c-.022-.057-.029-.197-.022-.419.007-.222.026-.372.054-.45a.579.579 0 0 0 .097-.065c0-.036.01-.079.032-.129h.065c.014-.071.047-.172.097-.3.057-.036.125-.094.204-.172a.972.972 0 0 1 .065-.194c.022-.028.144-.14.366-.332.029 0 .076-.011.14-.033.036-.05.09-.107.162-.171.072 0 .183-.022.334-.065.086-.064.176-.132.269-.204.05-.007.108 0 .172.022.065.021.119.028.162.021a.835.835 0 0 1 .161-.14c.093-.02.23-.032.41-.032Zm0 .665c-.015 0-.094.032-.237.097a1.35 1.35 0 0 0-.237.107.652.652 0 0 1-.162.258c-.028.014-.097.003-.204-.033-.144-.014-.266.054-.367.204.015.036.036.08.065.13.007-.022.018.035.032.171-.014-.007-.036.004-.064.032-.33 0-.52.022-.571.065a.39.39 0 0 1 0 .129c-.036.071-.08.16-.13.268 0 .071-.02.182-.064.333h-.065a5.22 5.22 0 0 1-.075.204h-.065a.504.504 0 0 0-.01.096c0 .136.107.204.323.204.1 0 .265-.017.495-.053.23-.043.388-.065.474-.065.05 0 .09.004.118.011.05.043.108.09.173.14-.022.014-.018.025.01.032h.054v-.065c.015-.014.015-.05 0-.107.065 0 .176-.01.334-.032.252-.036.643-.09 1.174-.161a.61.61 0 0 0 .097-.097.839.839 0 0 0-.032-.107c.136-.093.337-.136.603-.13a1.28 1.28 0 0 0-.076-.353.63.63 0 0 0-.194-.215.454.454 0 0 1-.14-.065c0-.057-.01-.146-.032-.268a4.25 4.25 0 0 1-.13-.193.267.267 0 0 0 0-.108.223.223 0 0 1-.096 0 .396.396 0 0 0-.075-.096c-.237-.15-.435-.24-.593-.269a1.3 1.3 0 0 1-.237 0 .473.473 0 0 0-.096-.064Z"/></svg>