<svg xmlns="http://www.w3.org/2000/svg" width="13" height="25" fill="none"><path fill="#37B34A" d="M11.283 5.862c-.745-.507-2.546-1.005-3.33-1.155A15.955 15.955 0 0 0 6.764.726l-1.548.753a15.468 15.468 0 0 1 1.26 5.963c.008.752-.045 1.503-.157 2.246-.991.03-3.425.43-4.483.975-1.318.674-2.1 1.784-1.742 2.478.357.694 1.723.709 3.035.034.896-.457 2.272-1.82 3.043-2.688-.68 3.182-2.518 5.954-5.494 8.265l1.06 1.357a18.275 18.275 0 0 0 3.299-3.264c-.334 1.202-.743 3.698-.57 4.939.228 1.672 1.13 2.928 2.015 2.808.885-.12 1.415-1.574 1.187-3.246-.202-1.484-1.764-4.428-2.225-5.061A14.943 14.943 0 0 0 8.2 7.355c-.01-.607-.051-1.212-.125-1.813.53.738 1.374 1.735 1.964 2.136.952.645 2.005.773 2.348.27.342-.502-.149-1.433-1.103-2.084"/></svg>