<svg xmlns="http://www.w3.org/2000/svg" width="28" height="10" fill="none"><path fill="#fff" d="M2.854.445c.087 0 .212.047.377.14.166.086.277.132.334.14.201.02.345.02.431 0a.545.545 0 0 1 .13-.13c.042-.006.175-.003.398.011.23.007.362.015.398.022.187.043.29.104.312.182a1.338 1.338 0 0 0-.032.194.143.143 0 0 1 .065.053h.15c0 .015.022.025.065.032v.183a3.171 3.171 0 0 0-.344.064c-.087.065-.22.136-.399.215-.144 0-.359.01-.646.032l-.097.065a5.87 5.87 0 0 0-.495.064v.054a1.56 1.56 0 0 0-.087.096c.015.029.026.09.033.183-.022.014-.043.047-.065.097.05.014.1.032.15.053a.605.605 0 0 0 0 .161 1.782 1.782 0 0 0-.3.215c.064.143.093.247.086.311a.445.445 0 0 0-.033.183l.194.182c-.007.022-.018.061-.032.119l-.13.064c-.05.114-.05.268 0 .462a.703.703 0 0 1 .13.15c0 .036-.022.086-.065.15l-.064.097c.007.05.007.122 0 .215.043 0 .104.01.183.032.086.05.2.215.344.494-.057.036-.15.09-.28.16v.087a.988.988 0 0 1 .13.096c.014.05.032.254.053.612h-.054v.065l-.193.15a.616.616 0 0 1 .097.097c-.008.071.003.182.032.332l.064.033c.101.164.14.329.119.493.007 0 .018-.021.032-.064.058.014.14.025.248.032a4.342 4.342 0 0 0-.032.215c-.18.029-.27.064-.27.107 0 .029.029.075.087.14a.394.394 0 0 1 .118.064c.007.05.029.111.065.183h.097c.035.05.086.104.15.16.058-.006.13-.017.216-.031l.032-.065c.007 0 .029.011.065.032l.053.033c.03 0 .144-.022.345-.065.122 0 .298-.021.528-.064.021-.043.075-.086.161-.129a.353.353 0 0 0 .108-.021l.097-.312c.072-.007.176-.028.312-.064a.767.767 0 0 0 0-.183.94.94 0 0 1-.097-.086v-.064c.007 0 .018-.032.033-.097.071-.25.104-.404.097-.461a3.69 3.69 0 0 1-.065-.161.57.57 0 0 1-.032-.237l.032-.085a.293.293 0 0 0 .032-.162 2.33 2.33 0 0 0-.129-.118l.13-.064v-.064a.341.341 0 0 0 .085-.065 3.62 3.62 0 0 1 0-.397c.036-.022.08-.05.13-.086.114-.093.215-.14.301-.14.115 0 .24.097.377.29.058.086.086.144.086.172a1.96 1.96 0 0 0-.054.193c-.043.05-.053.072-.032.065.014 0 .036.039.065.118a2.22 2.22 0 0 0 0 .311c0 .007.018.043.054.108.035.064.046.121.032.171a.91.91 0 0 0-.119.118.183.183 0 0 0 .022.119.34.34 0 0 1 .032.075c.007.014 0 .136-.021.365a.394.394 0 0 1 .021.096l-.054.022c-.036.057-.046.15-.032.279.029.071.058.154.086.247a1.253 1.253 0 0 0-.021.16c.028.058.057.13.086.216v.182c-.05.022-.1.05-.15.086.006.079-.005.183-.033.311l-.646.376a.763.763 0 0 1-.302-.021 4.053 4.053 0 0 0-.258-.043 2.566 2.566 0 0 0-.496.032l-.118.054a2.478 2.478 0 0 1-.539.01 2.932 2.932 0 0 0-.549-.01 1.905 1.905 0 0 1-.334.096.53.53 0 0 1-.129-.032.595.595 0 0 0-.118-.032c-.302.021-.754.032-1.357.032-.05 0-.173-.01-.367-.032a4.081 4.081 0 0 0-.376-.032c-.058 0-.151.021-.28.064-.13.036-.23.054-.302.054a.406.406 0 0 1-.13-.022L.723 8.97a.174.174 0 0 1-.086 0C.622 8.963.589 8.89.539 8.755a.645.645 0 0 1 .032-.526h.065a.57.57 0 0 1 .054-.086.883.883 0 0 0 .194.032 1.53 1.53 0 0 1 .054-.096c.057-.036.183-.047.376-.032.209.014.291.025.248.032.036-.007.13-.036.28-.086l.022-.065a21.7 21.7 0 0 0 .355-.107c.144-.05.223-.118.237-.204.007-.028-.007-.071-.043-.129a4.344 4.344 0 0 0-.054-.118c0-.021-.01-.082-.032-.182.028-.015.05-.097.064-.247-.007 0-.028-.086-.064-.258-.029-.172-.036-.28-.022-.322.029-.036.058-.079.086-.129a.595.595 0 0 0-.01-.247l-.054-.215a1.3 1.3 0 0 1 .032-.354c.043-.186.065-.283.065-.29a1.836 1.836 0 0 0-.011-.333 3.485 3.485 0 0 1-.054-.29 3.372 3.372 0 0 0 0-.547.94.94 0 0 1-.054-.097c.022-.085.04-.186.054-.3l-.054-.097a.72.72 0 0 1 .022-.236c.021-.1.032-.154.032-.161.036-.33.018-.62-.054-.87a.969.969 0 0 1-.097-.118 18.896 18.896 0 0 0-.097-.365 4.088 4.088 0 0 0-.15-.032.616.616 0 0 0-.097-.097.645.645 0 0 0-.205-.032c-.057 0-.165.018-.323.054-.158.036-.29.05-.398.043a2.065 2.065 0 0 1-.399-.13l-.032-.053a.659.659 0 0 1-.183-.096.22.22 0 0 0 0-.097c0 .014-.007.01-.022-.01a.18.18 0 0 1-.01-.044A.471.471 0 0 1 .42.875C.514.767.668.707.884.692c.251.029.538.05.861.065V.692c.015-.043.076-.086.183-.129a1.08 1.08 0 0 1 .356-.01c.158.007.276.003.355-.011l.032-.064a.701.701 0 0 1 .183-.033Zm7.04 2.201c.007-.007.208 0 .603.022a7.33 7.33 0 0 1 .302-.022c.079.036.18.075.301.118a.792.792 0 0 1 .27-.096c.079.007.158.053.236.14l.13.139a.36.36 0 0 0 .161.032c.094.007.162.014.205.022.021.028.05.06.086.096a.175.175 0 0 1 .086 0c.036.022.065.072.086.15.03.072.054.126.076.162.028.028.097.06.204.096.108.029.18.065.216.107a.515.515 0 0 1 .097.226c.036.107.064.179.086.215.057.05.126.121.204.214a.392.392 0 0 0-.032.097c.1.093.162.183.183.268v.183h.065a.138.138 0 0 0-.033.054.9.9 0 0 1 .065.096c.05.35.05.59 0 .72a1.22 1.22 0 0 0-.097.085.722.722 0 0 0 .022.237c.028.093.043.146.043.16a3.458 3.458 0 0 0-.065.301c.036.05.047.09.032.118-.057.015-.118.065-.183.15a.596.596 0 0 0 .076.29.591.591 0 0 1 .075.29c0 .05-.029.108-.086.172a3.918 3.918 0 0 1-.118.15 1.968 1.968 0 0 1-.151.366c-.058.028-.14.078-.248.15a.334.334 0 0 0-.032.097h-.054a1.94 1.94 0 0 0-.033.118.522.522 0 0 0-.118.053.748.748 0 0 1-.032.097c-.05.007-.122.025-.216.054-.014.028-.032.06-.053.096a2.566 2.566 0 0 0-.334 0 3.65 3.65 0 0 1-.28.118l-.022.065a3.09 3.09 0 0 0-.215.032 5.6 5.6 0 0 1-.151.086h-.15c-.604.086-.938.125-1.002.118a6.83 6.83 0 0 0-.485-.183.97.97 0 0 1-.205 0 .897.897 0 0 0-.118-.118 1.557 1.557 0 0 1-.43-.15 3.144 3.144 0 0 0-.152-.215 1.654 1.654 0 0 1-.333-.171 2.67 2.67 0 0 0-.087-.301 4.357 4.357 0 0 1-.333-.762c.021-.072.043-.19.064-.355a6.547 6.547 0 0 1-.129-.279c.014-.079.025-.197.032-.354a2.373 2.373 0 0 1-.054-.215.787.787 0 0 1 .022-.086 1.164 1.164 0 0 0-.022-.15c.022-.129.03-.2.022-.215 0-.028-.025-.075-.075-.14a.314.314 0 0 1-.076-.193.854.854 0 0 1 .151-.418l.065-.032a.526.526 0 0 0 0-.215V4.45c.021-.093.06-.226.118-.397.08-.144.19-.25.334-.322v-.033h.065c.028-.1.09-.243.183-.43.028-.006.079-.024.15-.053a1.12 1.12 0 0 1 .173-.247.63.63 0 0 0 .15-.021c.05-.05.123-.111.216-.183.15-.064.334-.103.55-.118Zm1.056 1.32a4.922 4.922 0 0 1-.098.366.736.736 0 0 1-.118.032 3.448 3.448 0 0 1-.312-.064 1.524 1.524 0 0 0-.356-.054.708.708 0 0 0-.172.021c-.072.05-.172.111-.301.183a.393.393 0 0 0-.13 0v.064c-.05.065-.14.154-.269.269-.05.007-.1.018-.15.032-.022.028-.026.079-.011.15l.01.118a.33.33 0 0 0-.107.075c-.029.036-.043.108-.043.215v.193a.9.9 0 0 0-.119.119c.029.028.08.068.15.118-.114.336-.153.558-.118.665.008.036.05.072.13.108.079.036.125.06.14.075.057.129.129.268.215.419.043.028.126.039.248.032a.746.746 0 0 1 .258 0c.1.079.172.14.215.182a.176.176 0 0 0 0 .086l.184.032c.143.065.344.136.603.215a.974.974 0 0 1 .215-.032l.237.118c.036-.057.097-.136.183-.236.086-.036.187-.086.302-.15V7.22c.036-.007.053-.032.053-.075a1.04 1.04 0 0 0-.021-.13.307.307 0 0 1 0-.16.838.838 0 0 0 .204-.172v-.3a.224.224 0 0 0 .098-.065c0-.014-.011-.036-.033-.064a.327.327 0 0 1-.118 0 .163.163 0 0 1-.119-.108 1.91 1.91 0 0 1-.032-.193c.007 0 .014-.018.021-.054.043 0 .116-.01.216-.032a2.232 2.232 0 0 0-.033-.45c-.064-.05-.132-.101-.204-.151a.26.26 0 0 1 .021-.204.47.47 0 0 0 .065-.129c0-.014-.018-.082-.054-.204-.028-.129-.05-.2-.064-.215a1.213 1.213 0 0 1-.151-.064.643.643 0 0 0-.097-.183 1.84 1.84 0 0 1-.323-.085.75.75 0 0 0-.032-.097 1.45 1.45 0 0 1-.183-.118Zm8.829-1.212c.064.021.136.043.215.064a.19.19 0 0 0 .076-.032c.043-.029.078-.04.107-.032.007 0 .018.01.032.032.015.021.036.032.065.032l.054-.064c.05-.015.18-.007.388.021.208.029.333.05.377.064a.365.365 0 0 1 .193.194.375.375 0 0 0 0 .182.182.182 0 0 0 .087.075.587.587 0 0 1 .129.043 1.548 1.548 0 0 0 0 .365 7.1 7.1 0 0 0-.496.15.987.987 0 0 1-.118.097 2.533 2.533 0 0 0-.345-.032c-.107.007-.29.09-.549.247.007.036.018.097.032.183a.216.216 0 0 1 0 .096v.086a.514.514 0 0 0-.129.064.34.34 0 0 1-.054.119h-.097c-.05.121-.028.375.065.762l-.032.032-.065.032v.118c-.05 0-.122.011-.215.033l-.151.247c.007.028.018.06.032.096.058.007.119.018.183.032.022.08.033.204.033.376.007.2-.004.33-.033.387l-.215.247h-.065a.72.72 0 0 1 0 .182l-.15.215c.057.114.057.286 0 .515-.237.015-.392.036-.463.065 0 .014-.019.032-.054.053-.043.086-.087.2-.13.344 0 .071.043.16.13.268a.349.349 0 0 0-.065.129c-.215-.029-.388 0-.517.086-.05.043-.104.082-.161.118-.058.043-.137.057-.237.043a4.332 4.332 0 0 1-.162-.097.754.754 0 0 1-.183-.032l-.054-.064a1.833 1.833 0 0 1-.215-.236 97.172 97.172 0 0 0-.032-.28c-.03-.028-.062-.06-.097-.096a.768.768 0 0 0 0-.183 1.174 1.174 0 0 1-.184-.215.646.646 0 0 1 .065-.483c0-.035.01-.046.032-.032a.255.255 0 0 1-.064-.064v-.118a3.205 3.205 0 0 1-.151-.333v-.129a3.687 3.687 0 0 1-.312-.3 4.962 4.962 0 0 1-.119-.312h-.032a1.817 1.817 0 0 0 0-.397 6.626 6.626 0 0 1-.28-.3c0-.058-.007-.14-.022-.248a3.965 3.965 0 0 1-.215-.58.39.39 0 0 1 0-.182.265.265 0 0 0-.043-.118c-.029-.057-.14-.129-.334-.215a1.853 1.853 0 0 0-.42-.16c-.1.013-.244.013-.43 0a.264.264 0 0 1-.151-.13 1.977 1.977 0 0 0-.097-.172l-.13-.064c.072-.315.176-.508.313-.58h.118c.058-.028.13-.06.216-.096.107-.015.394-.004.861.032a6.04 6.04 0 0 1 .463-.032.743.743 0 0 0 .086.096.688.688 0 0 0 .194-.043.689.689 0 0 1 .183-.053c.122-.007.302.021.539.086.237.057.395.114.474.171a.464.464 0 0 1 .183.237c.05.021.057.032.021.032-.014 0-.029.028-.043.086-.014.057-.029.09-.043.096a.774.774 0 0 0-.183 0 .392.392 0 0 1-.097.086.518.518 0 0 0-.15.032 5.918 5.918 0 0 1-.151.28c-.037-.022-.058-.011-.065.032v.053l.183.033v.128a.759.759 0 0 0-.463.086c.014.058.025.14.032.247.036.007.09.029.162.065a3.14 3.14 0 0 1-.033.182v.183c.115 0 .248.021.399.064l.054.236c.043.065.114.1.215.108.108.007.176.028.205.064.028.036.064.093.107.172.072-.014.173-.036.302-.065a.634.634 0 0 1 .097-.118.428.428 0 0 1 .118-.032.587.587 0 0 0 0-.16.562.562 0 0 1-.15-.087.522.522 0 0 0 0-.15c.237.014.409-.007.517-.064l.032-.119c-.008 0-.018-.021-.033-.064-.007.007-.014-.014-.021-.064.043-.022.115-.061.215-.119l-.032-.128a1.663 1.663 0 0 0-.162.043c-.007 0-.025-.065-.053-.194.035 0 .097-.01.183-.032a4.779 4.779 0 0 0-.13-.3 5.172 5.172 0 0 1-.549-.15.744.744 0 0 0-.064-.162 1.745 1.745 0 0 1-.151-.215.236.236 0 0 1 .032-.085c.007-.23-.014-.394-.064-.494.057.007.129.007.215 0 .007 0 .021-.007.043-.022.022-.021.04-.032.054-.032.007 0 .043.014.108.043a.523.523 0 0 0 .14.043l.053-.065c.072-.014.183-.01.334.011.158.015.273.01.345-.01l.065-.054a.397.397 0 0 1 .193.032.585.585 0 0 0 .173.043c.028 0 .053-.01.075-.032a2.35 2.35 0 0 1 .108-.075Zm-1.993 1.073c.036 0 .054.022.054.065a.19.19 0 0 0-.054.053c-.028 0-.046-.021-.053-.064l.053-.054Zm-.613.365c.05.05.05.068 0 .054-.015-.022-.015-.04 0-.054Zm1.227.032c.108 0 .162.022.162.065-.008.014-.033.021-.076.021-.014 0-.028.007-.043.022-.007.014-.021.018-.043.01-.079-.05-.09-.07-.032-.064.014-.036.025-.054.032-.054Zm-1.109 1.428-.032.097.161.064v.054c.007 0 .014-.004.022-.01a.13.13 0 0 0 .032-.022.498.498 0 0 1 .032-.054v-.096c-.035 0-.107-.011-.215-.033Zm.463 0c-.079.022-.118.086-.118.194 0 .121.079.15.237.086a1.56 1.56 0 0 1 .053-.076.411.411 0 0 1 .108-.075l-.13-.086a.19.19 0 0 0-.15-.043Zm1.508 2.298c.014 0 .025.007.032.021-.007.007-.018.011-.032.011-.022 0-.032-.004-.032-.01 0-.015.01-.022.032-.022Zm-.13.397c.044.036.065.065.065.086 0 .022-.018.047-.054.075a.406.406 0 0 0-.075.054c-.05-.007-.075-.025-.075-.054 0-.021.046-.075.14-.16Zm5.884-6.044h.43c.072.036.162.078.27.129.065 0 .165.014.302.042.05.036.114.08.193.13.101 0 .248.031.442.096a.526.526 0 0 1 .118.193c.043.093.08.15.108.172.08.043.19.111.334.204.13.114.24.268.334.462.021.114.068.282.14.504a.62.62 0 0 1 .097.097 1.253 1.253 0 0 0-.033.333c0 .007.018.05.054.128.036.08.05.147.043.204h-.032c-.007.08-.029.19-.065.333l-.064.032a3.665 3.665 0 0 1-.076.204c-.021.065-.057.1-.107.108-.05 0-.126.007-.226.021a3.79 3.79 0 0 0-.162.097.437.437 0 0 1-.237.086.403.403 0 0 1-.097-.01 1.06 1.06 0 0 0-.13-.173.457.457 0 0 1-.14 0c-.15.122-.268.183-.354.183a.64.64 0 0 1-.216-.043 5.852 5.852 0 0 1-.097-.107c-.072.028-.172.05-.301.064-.007 0-.047-.01-.119-.032a.369.369 0 0 0-.183-.032l-.032.064c-.08.007-.19.021-.334.043v.032a1.004 1.004 0 0 1-.334-.032.116.116 0 0 1-.021-.043c-.008-.022-.022-.032-.043-.032-.036.007-.08.036-.13.086a.377.377 0 0 1-.107.086c-.029.007-.072 0-.13-.022a.55.55 0 0 0-.096-.043c-.194-.028-.485.014-.873.129 0 .258.043.458.13.601l.107.065c.007.035-.029.125-.108.268.022.014.13.147.323.397.151.2.255.3.313.3.057 0 .136.012.237.033l.172.204a.221.221 0 0 0 0 .097c.043.021.119.025.226.01a.991.991 0 0 1 .237-.01c.043.007.119.036.226.086.108.05.201.075.28.075.05 0 .104-.011.162-.033.028-.035.072-.078.129-.128.065-.007.154-.029.27-.065V7.79c.035 0 .082-.01.14-.032 0-.029.01-.061.032-.097.086-.036.208-.114.366-.236.043-.086.133-.197.269-.333a.385.385 0 0 0 .13 0c.05-.014.182-.1.398-.258l.064-.107c.065.007.155.007.27 0 0 .014.021.036.064.064l-.032.473c-.036.114-.08.268-.13.461a.454.454 0 0 1 0 .14c-.129.122-.287.276-.473.462-.036.05-.076.1-.119.15a.25.25 0 0 1-.172.086c-.065 0-.165.01-.302.032a1.987 1.987 0 0 1-.269.236c-.086 0-.23.011-.43.032-.044 0-.144.029-.302.086a.726.726 0 0 1-.334.043 4.874 4.874 0 0 1-.14-.096 1.83 1.83 0 0 0-.312-.043c-.115-.015-.198-.047-.248-.097a1.291 1.291 0 0 0-.043-.129c-.014-.028-.082-.079-.205-.15a1.639 1.639 0 0 0-.269-.15c-.05-.022-.125-.029-.226-.022a.702.702 0 0 1-.226-.01 1.622 1.622 0 0 0-.14-.172 1.059 1.059 0 0 1-.226-.097 6.388 6.388 0 0 0-.205-.365 5.37 5.37 0 0 1-.398-.43.582.582 0 0 1-.076-.214 1.024 1.024 0 0 0-.075-.247 1.04 1.04 0 0 0-.086-.14 3.063 3.063 0 0 0 0-.365l-.065-.096c.022-.08.032-.215.032-.408-.028-.058-.04-.1-.032-.13.007-.042.054-.092.14-.15.093-.057.147-.107.162-.15a.224.224 0 0 0-.033-.204 4.73 4.73 0 0 1-.097-.16c-.021-.058-.028-.198-.021-.42.007-.221.025-.372.054-.45a.579.579 0 0 0 .097-.065c0-.036.01-.079.032-.129h.064c.015-.071.047-.171.097-.3.058-.036.126-.093.205-.172a.98.98 0 0 1 .065-.193c.021-.029.143-.14.366-.333.028 0 .075-.01.14-.032.036-.05.09-.108.161-.172.072 0 .183-.022.334-.065l.27-.203c.05-.008.107 0 .172.021a.348.348 0 0 0 .161.021.834.834 0 0 1 .162-.14c.093-.02.23-.031.409-.031Zm0 .665a1.66 1.66 0 0 0-.237.097 1.343 1.343 0 0 0-.237.107.654.654 0 0 1-.161.258c-.029.014-.097.004-.205-.032-.144-.015-.266.053-.366.204.014.036.036.079.065.129.007-.022.017.035.032.171-.015-.007-.036.004-.065.033-.33 0-.52.021-.57.064a.39.39 0 0 1 0 .129 10.62 10.62 0 0 0-.13.268c0 .072-.021.183-.064.333h-.065l-.075.204h-.065a.503.503 0 0 0-.01.097c0 .136.107.204.322.204.1 0 .266-.018.496-.054.23-.043.387-.064.473-.064.05 0 .09.003.119.01.05.043.108.09.172.14-.021.014-.018.025.011.032h.054v-.064c.014-.015.014-.05 0-.108.064 0 .176-.01.334-.032.251-.036.642-.09 1.174-.161a.62.62 0 0 0 .096-.097.858.858 0 0 0-.032-.107c.136-.093.338-.136.603-.129a1.287 1.287 0 0 0-.075-.354.632.632 0 0 0-.194-.215.455.455 0 0 1-.14-.064c0-.058-.01-.147-.032-.269a4.26 4.26 0 0 1-.13-.193.27.27 0 0 0 0-.107.223.223 0 0 1-.096 0 .401.401 0 0 0-.076-.097c-.237-.15-.434-.24-.592-.268a1.299 1.299 0 0 1-.237 0 .473.473 0 0 0-.097-.065Z"/></svg>