<svg xmlns="http://www.w3.org/2000/svg" width="51" height="10" fill="none"><path fill="#fff" d="M3.352.445c.258-.028.452.058.581.258 0 .036.022.079.065.129.093-.015.24-.015.441 0 .058.057.133.122.227.193a.6.6 0 0 1 .161 0V.961c.029-.022.083-.065.162-.13L4.956.736c.065 0 .151-.01.259-.032-.022-.014-.004-.047.054-.097A.135.135 0 0 0 5.3.542c.065 0 .15.021.258.064l.13.473h.032c-.007.064-.007.15 0 .257a.267.267 0 0 1 .065.033c.007.043.028.118.064.225l-.161.129c-.015-.022-.026 0-.033.064a.506.506 0 0 1 .13.097.216.216 0 0 0 0 .097 1.834 1.834 0 0 0-.194.16c.028.086.093.19.194.312v.097l-.13.096c.072.158.104.265.097.322l-.032.054c-.022.029-.032.054-.032.075.05.036.104.09.161.161a.382.382 0 0 0 0 .129 3.468 3.468 0 0 0-.258.15v.065c-.007.021-.047.06-.119.118-.064.05-.111.075-.14.075a.203.203 0 0 1-.161-.054c-.043-.05-.083-.096-.119-.14a.858.858 0 0 1-.29-.117c0-.058-.011-.144-.033-.258a1.722 1.722 0 0 1-.161-.225v-.097a.566.566 0 0 1-.162-.161c.029-.036.05-.111.065-.226a8.65 8.65 0 0 1-.226-.375c0-.036-.011-.1-.033-.194l-.097-.096a.22.22 0 0 0 0-.097h-.064a1.922 1.922 0 0 0-.086-.129 2.448 2.448 0 0 0-.41-.182c-.23-.086-.384-.122-.463-.108-.064.043-.15.086-.258.13a1.07 1.07 0 0 0-.216 0l-.096.128c-.072.029-.18.082-.324.161-.064.065-.172.15-.323.258h-.032c0 .05-.01.125-.032.225a.248.248 0 0 0-.097.032 1.912 1.912 0 0 1-.097.247h-.15a.388.388 0 0 0 .15.033 5.1 5.1 0 0 1-.032.193.97.97 0 0 0-.119.032l-.032.354a1.435 1.435 0 0 0-.162.258.832.832 0 0 1 .033.215c-.043.05-.087.114-.13.193.015.05.026.136.033.258l-.065.096v.355c0 .014-.014.06-.043.14-.022.07-.029.117-.022.139.036.043.08.096.13.16.014.08.01.201-.011.366a.992.992 0 0 0 .01.343c.03.029.062.072.098.13a1.098 1.098 0 0 0 0 .31c.057.05.129.115.215.194a3.245 3.245 0 0 1-.086.29c.007.014.09.09.248.225a.139.139 0 0 1 0 .107.325.325 0 0 0-.033.119.31.31 0 0 1 .097.096c.029.122.093.28.194.473a.244.244 0 0 0 .162.053c.035 0 .096-.007.183-.021.093-.022.172-.032.237-.032a.936.936 0 0 0 .193.257c.036-.028.087-.06.151-.096a.822.822 0 0 1 .248.032c.136.028.212.054.226.075a.233.233 0 0 1 .043.086.61.61 0 0 1 .162 0 3.502 3.502 0 0 0-.065-.29c.029-.021.061-.043.097-.064.05.007.125.007.226 0a.996.996 0 0 0 .13-.119c.078-.078.118-.125.118-.14 0-.092.021-.217.064-.375h.065c.072-.028.126-.136.162-.322a2.458 2.458 0 0 1 .032-.45l.032-.022c.029-.022.04-.047.032-.075a.987.987 0 0 1-.129-.097.173.173 0 0 0 0-.086 1.544 1.544 0 0 0-.129-.161c-.1.014-.201.032-.302.054a.966.966 0 0 1-.366-.022 1.327 1.327 0 0 0-.226-.193.625.625 0 0 1-.161-.032c0-.029-.011-.061-.033-.097a.338.338 0 0 0-.097-.032V5.33c.05-.028.115-.071.194-.129a.528.528 0 0 1 .065-.16c.079-.05.208-.076.388-.076.215.007.351 0 .409-.021.021-.029.043-.061.064-.097.036 0 .09-.01.162-.032.05-.043.125-.093.226-.15.05-.007.111.01.183.053l.108.065a.68.68 0 0 0 .312-.043.712.712 0 0 1 .323-.043c.13.05.302.1.517.15.093-.028.244-.05.452-.064.036.014.072.05.108.107.036.05.061.079.076.086.079.007.197.029.355.064.093.029.244.126.452.29a.578.578 0 0 1-.064.097.34.34 0 0 0-.13.032 1.175 1.175 0 0 1-.193.322c-.087 0-.227.01-.42.032-.101.022-.27.054-.507.097l.033.086-.162.097a.22.22 0 0 1 0 .096c-.036.015-.079.036-.13.065a.655.655 0 0 0-.031.171c-.007.086.003.136.032.15h.065l.096.033c-.036.028-.053.06-.053.096 0 .03.021.069.064.119.05.05.08.085.086.107.015.079 0 .15-.043.215a1.151 1.151 0 0 1-.086.096c.007-.036.018.04.032.226a1.628 1.628 0 0 0-.032.386l.097.097a.594.594 0 0 0 0 .16c-.065.03-.15.072-.258.13l-.033.096c.043.022.065.05.065.086 0 .058-.018.086-.054.086-.007-.007-.01-.014-.01-.021a.79.79 0 0 1-.13.16H5.56a.221.221 0 0 1 0 .097c-.007.015-.039.061-.096.14a.517.517 0 0 1-.097.118.406.406 0 0 1-.162.032c-.057 0-.183-.053-.377-.16v-.065c-.05-.022-.161-.032-.334-.032-.172 0-.287.01-.344.032a1.13 1.13 0 0 1-.28.225 1.283 1.283 0 0 1-.323.032c-.123 0-.309-.01-.56-.032a6.924 6.924 0 0 0-.496-.032l-.107.022a.398.398 0 0 1-.151.01c-.05-.014-.108-.075-.173-.182-.057-.115-.107-.183-.15-.204a1.98 1.98 0 0 1-.442-.065c-.043-.021-.086-.168-.13-.44a6.518 6.518 0 0 1-.247-.064c-.107-.043-.165-.09-.172-.14 0-.057-.01-.15-.032-.279a.506.506 0 0 1-.13-.097.251.251 0 0 1 .011-.16.245.245 0 0 0-.01-.162C.684 7.198.608 7.105.53 6.962a.57.57 0 0 0 .065-.225 4.687 4.687 0 0 0-.097-.161.72.72 0 0 0 .032-.258 2.437 2.437 0 0 1-.097-.161.807.807 0 0 0 .033-.28 1.573 1.573 0 0 0-.097-.16H.304v-.13l.097-.031v-.097c-.115-.1-.154-.218-.118-.354.064-.272.118-.415.161-.43.05-.021.058-.036.022-.043-.029-.014-.058-.068-.087-.16a.972.972 0 0 1-.043-.194.924.924 0 0 0 .065-.107c.036-.072.047-.133.032-.183-.079-.1-.111-.154-.097-.16.05-.015.108-.144.173-.387a2.3 2.3 0 0 0 .107-.59c0-.058-.007-.094-.021-.108.064-.057.14-.143.226-.258.014-.086.047-.21.097-.376.014-.021.057-.075.13-.16a.314.314 0 0 0 .075-.215c0-.029.01-.05.032-.065.028-.021.068-.046.118-.075a.597.597 0 0 1 .033-.225.218.218 0 0 0 .097 0 .353.353 0 0 1 .064-.13c.036 0 .086-.01.15-.031.066-.093.173-.219.324-.376h.097a.606.606 0 0 1 .097-.097.39.39 0 0 1 .183 0 .909.909 0 0 0 .172.032c.043 0 .086-.01.13-.032.014-.014.057-.1.129-.258.086.022.18.043.28.065A.599.599 0 0 0 3.19.499a.5.5 0 0 1 .162-.054Zm.161 7.634.033.096c-.015-.064-.026-.096-.033-.096Zm4.689-5.39a.61.61 0 0 1 .258.043.93.93 0 0 0 .205.054c.007 0 .029-.011.064-.032l.054-.033a.252.252 0 0 1 .151.033c.058.021.09.032.097.032.007 0 .032-.011.075-.032l.076-.033a.844.844 0 0 1 .334.033c.15.035.244.064.28.085.079.05.133.122.161.215a.605.605 0 0 0 0 .161c.022.015.05.032.086.054.08.122.123.215.13.279 0 .014-.011.029-.033.043-.021.007-.032.014-.032.021.014.08.014.2 0 .365-.029.03-.061.058-.097.086.007.122.007.297 0 .526l-.054.215c.036.029.054.047.054.054l-.054.032c0 .086-.032.19-.097.311-.021.015-.01.043.033.086.021.072.057.115.107.13.05.006.108.017.173.031a2.307 2.307 0 0 1-.065.301.73.73 0 0 0-.119.182.617.617 0 0 0 .022.28c.043.021.086.05.13.086a3.739 3.739 0 0 0-.033.182c.014.043.036.097.065.161l-.162.086a.568.568 0 0 0-.022.28c.03.035.058.074.087.117a1.01 1.01 0 0 0 0 .365c.021.058.079.1.172.13.093.02.147.038.162.053.021.057.053.121.096.193h.216c.05.021.111.01.183-.032.029-.058.068-.118.118-.183.007-.007.1-.039.28-.096a.376.376 0 0 1-.032-.183c.014 0 .036-.021.065-.064.129-.022.312-.061.549-.118.014-.15.014-.283 0-.398.036 0 .086-.003.15-.01a.903.903 0 0 1 .162-.022c.065-.258.176-.43.334-.515v-.065c.036 0 .075-.01.118-.032V6.06c.037-.007.08-.017.13-.032 0-.036.01-.079.032-.129h.054v-.15c-.007 0-.018.021-.032.064-.13-.05-.19-.11-.184-.182.022-.029.044-.06.065-.097h.15a2.365 2.365 0 0 1-.053-.43.495.495 0 0 0 .054-.031v-.237c-.007 0-.018.018-.032.054a15.27 15.27 0 0 1-.367.032V4.89a1.905 1.905 0 0 0-.032-.15c.014 0 .025-.004.032-.011a.123.123 0 0 0 .033-.021l.15.096c.123.007.184-.046.184-.16 0-.022-.008-.087-.022-.194a.479.479 0 0 1 0-.204.36.36 0 0 0 .054-.086 5.765 5.765 0 0 1-.399-.064 1.763 1.763 0 0 0-.215-.15 1.168 1.168 0 0 0-.7 0 .449.449 0 0 1-.183.031.375.375 0 0 0-.097-.064c.08-.222.08-.537 0-.945a.578.578 0 0 1 .065-.096.446.446 0 0 1 .237-.054c.05 0 .129.007.236.021.115.015.201.022.259.022a.477.477 0 0 0 .15-.022c.072-.035.166-.075.28-.118a.875.875 0 0 1 .464.033c.021.028.05.057.086.085a1.79 1.79 0 0 1 .398.033c.058.028.123.103.194.225.05.086.1.176.151.269l.118.15c0 .071-.01.093-.032.064.007.036-.004.047-.032.032 0 .008-.01.036-.032.086a.336.336 0 0 0-.022.097c0 .007.029.068.086.183a2.219 2.219 0 0 0-.032.3l.032.065.065.096c-.015.15-.004.311.032.483a5.237 5.237 0 0 1-.032.215c-.058.258-.08.412-.065.462.029.028.061.068.097.118-.021.107-.043.25-.065.43.015.178.058.332.13.46.021.015.05.033.086.055v.096a.747.747 0 0 0-.15.15c-.022.108 0 .169.064.183l-.097.215c.036.057.136.16.301.311a67.87 67.87 0 0 0-.021.118c.136.015.312.05.527.108.216.057.341.11.377.16.043.044.08.119.108.226a.484.484 0 0 0 .119.215c.007.007-.015.036-.065.086a.58.58 0 0 1-.054.214c-.05.043-.144.076-.28.097-.1.021-.205.04-.312.054-.252.064-.607.096-1.066.096-.173 0-.287-.01-.345-.032a.94.94 0 0 0-.15-.182 2.59 2.59 0 0 1-.4-.119.69.69 0 0 0-.247-.214c-.043-.007-.122.032-.237.118l-.215.182v.065a1.62 1.62 0 0 0-.377.032 1.585 1.585 0 0 1-.183.15 1.035 1.035 0 0 0-.183-.064c-.115.05-.266.104-.453.16a.558.558 0 0 1-.29-.053 3.784 3.784 0 0 1-.237-.107.857.857 0 0 1-.248-.054.448.448 0 0 0-.054-.129.806.806 0 0 1-.183-.064.852.852 0 0 0-.215-.204 1.802 1.802 0 0 1-.28 0c-.08-.029-.126-.118-.14-.268a59.04 59.04 0 0 0-.043-.376l-.097-.097c-.1-.229-.151-.415-.151-.558 0-.072.01-.14.032-.204l.065-.032c.029-.065.057-.158.086-.28-.022-.322-.043-.483-.065-.483v-.064c0-.036.015-.072.043-.107a.287.287 0 0 0 .054-.076 1.46 1.46 0 0 1-.032-.279 4.33 4.33 0 0 0 .183-.332c.015-.065-.007-.133-.065-.204a1.743 1.743 0 0 1-.086-.13 1.4 1.4 0 0 0 0-.246 1.151 1.151 0 0 1-.118-.183 1.934 1.934 0 0 0 0-.58H8.88a1.804 1.804 0 0 0-.183-.128c-.129.021-.305.032-.528.032-.035-.007-.096-.068-.183-.183a.604.604 0 0 1-.086-.064c.043-.143.061-.233.054-.268a1.11 1.11 0 0 0-.065-.097.25.25 0 0 1-.053-.183.465.465 0 0 1 .118-.257c.08-.086.162-.133.248-.14ZM18.756.542c.043 0 .119.028.226.086.108.057.172.1.194.129a.897.897 0 0 0 .086.204c.05.014.122.043.216.086a.912.912 0 0 0 .086.15c.057.036.129.096.215.182.029.072.032.183.01.333-.013.115-.028.23-.042.344h-.216c-.007.007-.032.039-.075.096a.37.37 0 0 0-.064.086.257.257 0 0 1 .021.15c.007 0 .029.011.065.033a.3.3 0 0 0-.033.118c-.186.014-.265.025-.237.032a1.597 1.597 0 0 0-.215-.075.569.569 0 0 0-.258-.022v.065h-.119c0 .007-.01.025-.032.054v.032a.174.174 0 0 1-.108-.011.279.279 0 0 0-.075-.043c-.094 0-.223-.021-.388-.064a2.201 2.201 0 0 0-.086-.204 1.717 1.717 0 0 1-.205-.269c-.021-.057-.032-.2-.032-.43 0-.235.01-.382.032-.44.008-.028.04-.053.097-.075.058-.021.094-.042.108-.064.021-.071.05-.161.086-.268.093 0 .223-.011.388-.033l.032-.064a.717.717 0 0 1 .323-.118ZM18.25 2.86a.613.613 0 0 1 .118-.01c.144 0 .327.031.55.096.2.057.326.107.377.15.007.036.018.075.032.118l.118.032c.008.036.018.076.033.119h.053l.097.182h.022c0-.007-.018.043-.054.15.014.05.025.14.032.269l-.097.29c.058.036.14.096.248.182-.007 0-.007.068 0 .204l-.097.032c.015.086.015.204 0 .355-.007.028-.025.043-.054.043l-.064-.011v.118c.007 0 .057-.01.15-.032a.314.314 0 0 0 .087.118c0 .014-.018.104-.054.268.05.029.061.09.032.183h-.064a.952.952 0 0 1-.087.118c.008.057.036.157.087.3-.043.029-.065.047-.065.054a.559.559 0 0 1 .097.065c-.022.107-.061.286-.119.536.072.058.151.154.237.29 0 .029-.01.058-.032.086l-.032.032a.388.388 0 0 0 .097.355c.007.014.053.036.14.064.05.014.122.025.215.032l.032.086c.008 0 .015-.028.022-.086h.301c.015.036.026.054.033.054a1.87 1.87 0 0 1 .15-.022.867.867 0 0 0-.064.14c0 .029.01.09.032.183a3.96 3.96 0 0 0 .172-.15l-.021-.119a.185.185 0 0 0 .054-.054c.057.008.147.036.269.086a.34.34 0 0 0 .065.086c.072 0 .18.022.323.065.072.036.14.14.204.311.065.172.086.315.065.43l-.205.268c-.129.136-.258.215-.387.236a7.877 7.877 0 0 0-.603-.032c-.05.007-.158.025-.324.054-.165.028-.283.039-.355.032-.036 0-.115-.011-.237-.032-.115-.022-.204-.029-.27-.022-.1.022-.16.032-.182.032a6.264 6.264 0 0 0-.205-.096 6.539 6.539 0 0 0-.775-.054 216.07 216.07 0 0 1-1.077-.032l-.032-.054a5.256 5.256 0 0 1-.56.022c-.072-.008-.234-.058-.485-.15-.029.006-.075 0-.14-.022v-.097a1.507 1.507 0 0 1-.097-.054c.007-.035.018-.107.032-.214a.402.402 0 0 1-.032-.118.363.363 0 0 1 .27-.322c.085-.029.222-.033.409-.011.2.014.333.018.398.01a1 1 0 0 1 .15-.118l.388-.032.022-.086.086.011c.065.007.112.015.14.022h.022l.172-.065c.079-.071.13-.322.15-.751.008-.294.019-.587.033-.88.022-.08.05-.19.086-.334a5.863 5.863 0 0 1-.032-.526.622.622 0 0 0 .032-.214l-.054-.118a5.41 5.41 0 0 0 .022-.559 5.84 5.84 0 0 1-.086-.182h-.054l-.097-.204a.439.439 0 0 0-.248-.065c-.064 0-.168.011-.312.033a2.393 2.393 0 0 1-.302.032 13.118 13.118 0 0 1-.71-.118.659.659 0 0 1-.183-.033 1.068 1.068 0 0 0-.065-.214 1.463 1.463 0 0 0-.108-.14.236.236 0 0 1-.032-.182c0-.036.057-.097.172-.183v-.054c.38-.114.621-.164.722-.15a.966.966 0 0 0 .204.118c.108-.007.248-.007.42 0 .008 0 .043.018.108.054.043.028.097.04.162.032a.537.537 0 0 0 .323-.118c-.007-.029.021-.068.086-.118Zm2.423 4.434c.137-.021.205 0 .205.064 0 .022-.029.029-.087.022-.122.021-.183.014-.183-.022 0-.014.011-.028.033-.043.021-.014.021-.021 0-.021h.032Zm4.31-6.72c.137-.015.241.024.313.117.029.036.075.13.14.28-.007.028.003.067.032.117.058.015.147.036.27.065a.768.768 0 0 1-.055.15.194.194 0 0 0-.096.032c.014.007.003.036-.033.086.072.05.122.083.151.097a.795.795 0 0 0 0 .268l.097.033c.065.05.083.2.054.45a8.307 8.307 0 0 1-.388-.085v.118c.215.021.345.071.388.15 0 .021.01.054.032.097.058.014.14.043.248.085.014.029.032.061.054.097a.802.802 0 0 1 .28-.064l.086.086h.334l.032-.204a.527.527 0 0 1 .15 0l.033.085.183.119c.094-.008.226-.008.399 0 .143.028.23.078.258.15-.007.014-.003.046.01.097.065.042.137.103.216.182v.064c.008.008.029.011.065.011.036 0 .057.05.064.15-.007.065-.01.13-.01.194h-.151a2.518 2.518 0 0 1-.15.16 1.045 1.045 0 0 1-.486.151 1.362 1.362 0 0 1-.43-.064 1.467 1.467 0 0 0-.183-.086c-.05-.007-.104.01-.162.053a.5.5 0 0 1-.108.065 2.071 2.071 0 0 0-.301 0c-.093.028-.215.068-.366.118 0 .286-.022.53-.065.73l-.054.086v.097c.015-.022.025-.018.033.01a.094.094 0 0 1-.011.043c-.043.315-.047.487-.011.516.036.021.04.082.01.182a1.43 1.43 0 0 0-.085.15c0 .036.01.068.032.097l.032.032a.516.516 0 0 0-.032.215c.021 0 .05.007.086.021l.032.247h.033c-.014.007-.025.029-.033.065l.097.118c-.021.05-.04.075-.053.075-.008 0-.011-.007-.011-.021v.064h.032a.563.563 0 0 1 .054-.086c.014.014.047.022.097.022l.086-.086a.66.66 0 0 1 .043.075c.022.021.05.057.086.107v-.064c.058-.015.148-.032.27-.054a.88.88 0 0 1 .032-.129.378.378 0 0 0 .183 0 .173.173 0 0 1 0-.086h.032c.13-.107.198-.179.205-.214a13.126 13.126 0 0 0-.033-.237c.03-.071.062-.164.097-.279.03.007.148.007.356 0 .158 0 .273.025.344.075.08.043.148.144.205.301.072.193.122.311.15.354.037.043.14.104.313.183v.032a.175.175 0 0 1 .086 0c.065.036.097.072.097.107 0 .022-.072.076-.215.161.064.086.115.158.15.215v.118a.955.955 0 0 0-.14.075c-.05.029-.075.054-.075.076 0 .021.061.064.183.128v.054l-.334.3c.036.03.08.072.13.13a.556.556 0 0 1-.033.214 6.83 6.83 0 0 1-.064.204c-.05.015-.18.025-.388.032l-.215.065a.39.39 0 0 0-.151-.032.435.435 0 0 0-.237.129c-.108.1-.172.157-.194.171a.33.33 0 0 1-.183.043c-.122.007-.201.015-.237.022a1.913 1.913 0 0 1-.28.118c-.1.014-.223 0-.366-.043l-.302-.107a2.773 2.773 0 0 1-.57-.183 1.518 1.518 0 0 0-.162-.183h-.086a.965.965 0 0 0-.032-.118 2.226 2.226 0 0 1-.184-.15c-.021-.05-.032-.215-.032-.494V7.64c0-.008-.05-.115-.15-.323a.826.826 0 0 1-.098-.332c0-.1.033-.197.097-.29-.129-.286-.193-.487-.193-.601a.24.24 0 0 1 .021-.108.299.299 0 0 1 .086-.075c.022-.036.022-.086 0-.15v-.065l.054-.086a2.838 2.838 0 0 1-.054-.43c.043-.063.094-.142.151-.235.007-.05.01-.1.01-.15a1.91 1.91 0 0 0-.064-.376c-.043-.158-.057-.287-.043-.387a.577.577 0 0 1-.15-.064.166.166 0 0 0 0-.086c0-.007-.062-.09-.184-.247a.773.773 0 0 0-.183 0l-.021.097a.53.53 0 0 0-.13.032c-.093.014-.208.01-.344-.011a1.777 1.777 0 0 0-.356-.021l-.57.032-.216-.161c-.007-.08.004-.24.033-.483a.244.244 0 0 1 .215-.215c.13-.022.258-.04.388-.054.057-.036.129-.075.215-.118a.65.65 0 0 1 .27-.01.755.755 0 0 0 .28.01 7.07 7.07 0 0 1 .15-.097h.398a.173.173 0 0 1 0-.085c.05-.05.112-.122.184-.215a.59.59 0 0 1-.065-.269c.05-.05.1-.11.15-.182a.717.717 0 0 0-.064-.161c.015-.043.025-.133.032-.269l-.053-.032V1.09l.183-.15a2.79 2.79 0 0 1 .118-.3h.119a.375.375 0 0 1 .096-.065Zm1.39 5.582h.215c.05.143.061.272.032.386l-.118-.032h-.28c.014-.079.036-.179.065-.3a.561.561 0 0 0 .086-.054Zm-.054.666v.118c.029 0 .04-.022.032-.065-.007-.05-.018-.068-.032-.053Zm2.552.268c.022 0 .033.004.033.01-.008.015-.018.022-.033.022-.021 0-.032-.007-.032-.021 0-.007.01-.011.032-.011Zm-.118.064c.014 0 .025.004.032.011-.007.007-.018.01-.032.01-.022 0-.033-.003-.033-.01s.011-.01.033-.01Zm3.348-4.97a.39.39 0 0 1 .119.064.418.418 0 0 0 .118.054c.108-.029.273-.04.496-.033a1.8 1.8 0 0 0 .215.183c.043-.036.143-.064.301-.086.094.014.22.075.377.183a.37.37 0 0 0 .087.118c.014.014.025.018.032.01v-.021c0-.022.01-.029.032-.022V2.7c.13.071.255.14.377.204.15.086.259.172.323.258.014.014.079.114.194.3-.021.007-.032.025-.032.054a.73.73 0 0 0 .086.279c.057.114.104.175.14.183l.226.042a.585.585 0 0 0 .065.054l-.033.065h-.118c-.086.021-.13.085-.13.193V4.6c0 .007-.01.032-.032.075-.021.043-.029.08-.021.108 0 .007.01.039.032.096a.294.294 0 0 1 .022.15.382.382 0 0 1-.054.087.251.251 0 0 0-.032.16l.064.054c.043.13.05.262.022.397 0 .029-.03.083-.086.162a.313.313 0 0 0-.065.214.733.733 0 0 0 .075.13c.05.064.076.11.076.139 0 .036-.018.068-.054.096h-.15a1.3 1.3 0 0 0-.012.226l.011.172c.007.021.075.071.205.15a.727.727 0 0 0 .161.118.563.563 0 0 0 .162 0c.086-.014.143-.022.172-.022l.032-.064a.801.801 0 0 1 .173-.021c.18 0 .326.15.441.45.036.072.076.172.119.301-.015.05-.026.104-.033.161a.31.31 0 0 0-.118.086.386.386 0 0 0-.086.097v.118c-.058.043-.13.103-.216.182.036 0 .054.018.054.054 0 .064-.05.168-.15.311-.223-.028-.406-.007-.55.065a.6.6 0 0 1-.172.107c-.072.036-.212.05-.42.043-.215-.007-.355-.025-.42-.054a7.118 7.118 0 0 0-.183-.247.81.81 0 0 0-.28-.15c-.065-.028-.115-.04-.15-.032a1.212 1.212 0 0 0-.464.15v.065a3.84 3.84 0 0 1-.15.118.384.384 0 0 0-.13 0l-.032.064a2.256 2.256 0 0 0-.302-.032 1.414 1.414 0 0 1-.15.086 3.262 3.262 0 0 0-.378 0 2.076 2.076 0 0 1-.366.129.422.422 0 0 1-.14-.033.466.466 0 0 0-.107-.032c-.08.015-.19.025-.334.032a3.652 3.652 0 0 0-.216-.096c-.093.014-.236-.004-.43-.054a1.681 1.681 0 0 0-.183-.279 2.734 2.734 0 0 1-.302-.118c-.072-.043-.176-.208-.312-.494a4.195 4.195 0 0 1-.183-.365 1.788 1.788 0 0 0 0-.28.997.997 0 0 0-.076-.139.34.34 0 0 1-.043-.193c.029-.064.057-.147.086-.247a.808.808 0 0 1-.032-.279c.014-.036.054-.068.118-.097a.381.381 0 0 0 .13-.086v-.085c.05-.093.11-.215.183-.365 0-.043.01-.108.032-.194.043-.057.197-.146.463-.268v-.032c.05.007.111.007.183 0 .014-.05.036-.111.065-.183h.054a.98.98 0 0 1-.399-.182.512.512 0 0 0-.118-.183l-.14-.054c-.036-.014-.058-.06-.065-.14a.12.12 0 0 0-.01-.053.423.423 0 0 1-.12-.129c-.014-.035 0-.2.044-.494.05-.3.09-.468.118-.504a2.14 2.14 0 0 0 .14-.161v-.086c.137-.2.22-.315.248-.344.029-.028.136-.1.323-.214.187-.115.294-.176.323-.183.043.029.133.05.27.065.064-.058.157-.119.28-.183.078.007.19.007.333 0a.768.768 0 0 0 .173-.097c.093-.057.161-.085.204-.085Zm-.032 1.16-.065.063a2.572 2.572 0 0 0-.333 0c-.058.036-.13.076-.216.119h-.064c0 .078-.022.182-.065.31h-.119c-.028.144-.028.255 0 .334.05.071.072.103.065.096-.014-.014-.036-.007-.065.022a.3.3 0 0 1 0 .16.46.46 0 0 0-.118.119c.007.086.007.218 0 .397.452.036.747.036.883 0l.032-.064a1.1 1.1 0 0 1 .367-.15c.107-.015.261-.004.463.032.007-.05.028-.133.064-.247-.036 0 .08.007.345.021.15 0 .251-.018.301-.053.029-.022.05-.072.065-.15.021-.08.04-.151.054-.215a10.649 10.649 0 0 1-.399-.215 1.438 1.438 0 0 0-.064-.086 1.138 1.138 0 0 1-.183-.064.72.72 0 0 0-.183-.183 5.259 5.259 0 0 1-.496-.097.49.49 0 0 1-.097-.096.203.203 0 0 0-.172-.054Zm1.098 2.565v.064c-.072.022-.204.065-.398.13l-.118.085c-.159 0-.396.01-.711.032-.13.05-.302.111-.517.183a.217.217 0 0 0-.097 0 .342.342 0 0 1-.054.118 3.783 3.783 0 0 0-.28.129c0 .05.003.1.01.15 0 .043-.024.075-.075.097a1.07 1.07 0 0 0-.215 0l-.032.053h-.086c0 .029.01.072.032.13.057.028.13.067.215.117a.215.215 0 0 0 0 .097.175.175 0 0 1 .086 0c.036.014.083.064.14.15.058.086.105.136.14.15h.119c.136.036.23.047.28.033a.96.96 0 0 1 .118-.097c.187-.036.424-.003.711.097v.021c0 .007.01.011.032.011v-.032c.151-.079.234-.129.248-.15a.453.453 0 0 1 .022-.183h.064a.788.788 0 0 1 .13-.161h.236a.917.917 0 0 1 .377-.451c-.028-.014-.021-.036.022-.064a.501.501 0 0 0-.054-.097h.054c.007-.022.018-.06.032-.118a1.077 1.077 0 0 1-.183-.183 1.328 1.328 0 0 0-.065-.204c-.028-.078-.09-.114-.183-.107Zm8.695-3.446c.087-.015.19 0 .313.043l.226.086c.122-.015.301-.004.538.032.065.064.158.146.28.247.036.007.09.028.162.064a.89.89 0 0 0 .129.193c.029 0 .061.011.097.033 0 .05.01.121.032.214.057.065.122.161.194.29a.325.325 0 0 1-.054.204.36.36 0 0 0-.043.204c.029.065.061.14.097.226a.991.991 0 0 1-.097.536.506.506 0 0 0-.13.097.221.221 0 0 1 0 .097.365.365 0 0 1-.247.128c-.1.008-.208.018-.323.033-.043.028-.097.06-.161.096h-.507c-.05-.171-.115-.29-.193-.354a.193.193 0 0 1-.097-.032.412.412 0 0 0-.033-.129l-.096.032v.065c-.05.021-.123.014-.216-.022a2.185 2.185 0 0 1-.194-.075c-.021-.079-.021-.111 0-.097.022-.036.043-.075.065-.118.086.007.118.018.097.032.05.029.11.058.183.086.057.007.086-.007.086-.043 0-.028-.025-.071-.075-.128a.534.534 0 0 0-.097-.108v-.032l-.065.064c-.13.043-.341.022-.635-.064a2.454 2.454 0 0 0-.162-.097c-.014.015-.047.026-.097.033a3.44 3.44 0 0 0-.097.225l-.064.032a.566.566 0 0 1-.033.215 3.384 3.384 0 0 0-.118.032.815.815 0 0 1-.032.097.392.392 0 0 0-.13 0 1.798 1.798 0 0 1-.032.129c-.057.021-.126.086-.204.193a.83.83 0 0 0-.033.322c.022.165.025.29.01.376 0 .007-.01.043-.031.107a.511.511 0 0 0-.033.14c0 .007.014.043.043.107.029.057.036.107.022.15a.73.73 0 0 0-.097.13c.072.1.13.15.172.15.036 0 .097-.05.183-.15.08.02.122.031.13.031.014.187.025.269.032.247a6.209 6.209 0 0 0-.13.226c.058.071.12.143.184.215l.032.16c.165-.071.302-.107.41-.107.078 0 .153.015.225.043.05.022.094.068.13.14.064.114.097.175.097.182.114.1.226.204.334.312.15.143.208.293.172.45a.71.71 0 0 0-.119.13.708.708 0 0 1-.097.15h-.096c-.072.043-.18.086-.324.128a2.726 2.726 0 0 0-.344 0v.065c-.08.028-.165.06-.259.097a.61.61 0 0 1-.247.032 11.55 11.55 0 0 0-.226-.097c-.273-.057-.496-.068-.668-.032l-.065.064c.022-.007-.065-.018-.258-.032.035 0-.069.01-.313.032-.18-.014-.434-.025-.764-.032-.008 0-.05.01-.13.032a.76.76 0 0 1-.129.033.366.366 0 0 1-.15-.076.618.618 0 0 0-.097-.086l-.324-.064a9.201 9.201 0 0 1-.032-.064c-.143.021-.24.021-.29 0a1.957 1.957 0 0 1-.184-.183.726.726 0 0 1-.096-.032.88.88 0 0 0-.033-.193c.065-.093.172-.222.323-.387a3.28 3.28 0 0 0 .216-.086c.021-.036.043-.068.064-.096a.35.35 0 0 1 .248.032c.1.036.19.046.27.032v-.032c.064-.05.136-.104.215-.161.136 0 .326-.022.57-.065l.033-.064a.358.358 0 0 0 .129-.064.395.395 0 0 0 .054-.194c0-.043-.011-.118-.033-.225a.984.984 0 0 1-.021-.28c0-.006.014-.067.043-.182a.673.673 0 0 0 .021-.225.552.552 0 0 0-.043-.097.324.324 0 0 1-.021-.16h.032c.029-.101.093-.226.194-.377-.014-.007-.025-.039-.032-.096-.008-.022.003-.043.032-.065-.022-.057-.022-.09 0-.096a2.404 2.404 0 0 1-.162-.312.221.221 0 0 0 0-.096 1.183 1.183 0 0 0-.096-.065c-.008-.043.007-.082.043-.118a.293.293 0 0 0 .053-.075 1.018 1.018 0 0 1 0-.215l.097-.257.065-.033c-.014-.121-.025-.164-.032-.128v-.065a.723.723 0 0 1-.162-.064c.022-.144.032-.204.032-.183 0-.057-.043-.1-.129-.129a.382.382 0 0 0-.15-.032.816.816 0 0 0-.227.043 2.424 2.424 0 0 1-.194.054c-.172.021-.34 0-.506-.065l-.032-.064c-.1.029-.259.029-.474 0-.072-.029-.126-.115-.161-.258a.607.607 0 0 1-.033-.193c0-.093.065-.28.194-.558.438.014.69.014.754 0a1.06 1.06 0 0 1 .162-.13.217.217 0 0 1 .172.033l.086.065c.086.007.201 0 .345-.022.143-.021.25-.025.323-.01.1.028.247.067.441.117v.065c.043 0 .108.01.194.032a.45.45 0 0 0 .162.129c.1-.007.247-.007.441 0 .007 0 .061.014.162.043.078.021.14.028.183.021.086-.057.204-.132.355-.225a.217.217 0 0 0 .097 0 2.69 2.69 0 0 1 .183-.118c.079.007.197.007.355 0l.033-.065c.065-.028.15-.06.258-.096ZM40.365 6.36c.022.007.033.025.033.054a.165.165 0 0 0-.033.043c-.021-.043-.021-.076 0-.097Zm5.697-3.575c-.043 0 .028.01.215.032.244-.029.6-.029 1.066 0a.559.559 0 0 0 .119.086c.093-.007.226-.007.398 0 .05.064.14.136.27.215.006 0 .039-.022.096-.065.029 0 .05.01.065.032.021.022.04.043.054.065a.327.327 0 0 0 .118 0l.032-.097a.505.505 0 0 1 .216.129.171.171 0 0 0 0 .086h.054v-.086c.057-.036.118-.079.183-.129.115-.028.197-.028.248 0v.065c.043.057.093.14.15.247a.936.936 0 0 0 0 .204l.065.032c-.022.036-.032.118-.032.247.028.043.057.093.086.15a1.12 1.12 0 0 0-.022.268c.014.036.032.08.054.13h.065a.247.247 0 0 1-.033.182c-.029.064-.04.114-.032.15l.183.236c-.057.043-.13.104-.215.183 0 .043-.008.103-.022.182a.642.642 0 0 0-.129.118.522.522 0 0 1 0 .15c.014.015.022.037.022.065 0 .029.021.047.064.054.043 0 .065.003.065.01a.714.714 0 0 0 .129.119.792.792 0 0 0 .205-.033c.05-.05.05-.068 0-.053.021-.036.043-.047.064-.032v.085c.007 0 .018.043.032.13a2.568 2.568 0 0 0-.301-.033.403.403 0 0 1-.065.118v.032c.05.029.133.08.248.15-.05.187-.072.298-.065.333l.087.033c.007.036.017.086.032.15h.032a.586.586 0 0 0-.032.182l.215.215a1.433 1.433 0 0 1-.075.193.725.725 0 0 1-.14.108l.064.3-.053.054c-.03.029-.043.05-.043.065v.032a.968.968 0 0 0-.119.032c0 .043-.01.114-.032.215a1.13 1.13 0 0 0-.237.204v.064h-.065c0 .022-.01.054-.032.097-.05.014-.122.043-.215.086-.05.078-.14.168-.27.268-.1.007-.251.029-.452.064a3.81 3.81 0 0 1-.28.183h-.388l-.032-.086a8.455 8.455 0 0 0-.581-.032 4.407 4.407 0 0 1-.636-.032c-.029-.007-.111-.09-.248-.247-.129.007-.301-.011-.517-.054a2.11 2.11 0 0 0-.086-.247h-.15c-.05.057-.133.14-.248.247a.513.513 0 0 0-.119.054c0 .028-.032.071-.096.129-.072.028-.13.035-.173.021-.05-.014-.111-.114-.183-.3a2.303 2.303 0 0 0-.065-.15.474.474 0 0 1-.086-.087c-.021-.05-.018-.172.011-.365.029-.193.054-.304.075-.333l.065-.064-.065-.15c-.136-.337-.204-.62-.204-.849 0-.064.007-.114.021-.15.072-.2.22-.3.442-.3a.44.44 0 0 1 .14.021c.014.014.054.075.118.183h.184c.1.057.121.078.064.064v.032c-.05 0-.05.01 0 .032a.679.679 0 0 0 .022.118l-.022.086c.072.05.15.104.237.161a.474.474 0 0 1 .15-.032v-.096l.065-.033c.015-.071-.014-.157-.086-.257l-.097-.161a.768.768 0 0 0 0-.183.563.563 0 0 1-.097-.064.48.48 0 0 0-.021-.183 1.904 1.904 0 0 1-.13-.086.649.649 0 0 1-.3.118.324.324 0 0 0 0-.118 1.467 1.467 0 0 1-.152-.15.748.748 0 0 0-.032-.183 1.643 1.643 0 0 1-.086-.118c.014-.1.003-.243-.032-.43a.454.454 0 0 1-.184-.085c-.014-.029-.025-.161-.032-.397-.014-.23-.014-.362 0-.397.065-.05.136-.111.216-.183l-.033-.118c.058-.05.144-.104.259-.161a.733.733 0 0 0 .14-.022v-.085a.142.142 0 0 1 .054-.065l.333-.032c.022-.086.054-.186.097-.3.015-.022.083-.058.205-.108a.838.838 0 0 1 .248-.075Zm0 .966c-.072.014-.148.079-.226.193-.087.136-.151.215-.194.236h-.033v.054a3.126 3.126 0 0 1-.183.097c.014.1.025.14.033.118a2.119 2.119 0 0 0 0 .43.603.603 0 0 1 .15-.033v-.064c.036-.007.14 0 .313.021.172.015.269.029.29.043.022.043.054.093.097.15.022.015.115.065.28.15.173.08.27.119.291.119.136.021.363.003.679-.054a.684.684 0 0 1 .075-.043c.036-.021.068-.028.097-.021l.097.064c.136.029.247.018.334-.032a.549.549 0 0 1 .064-.097h.237c.014-.05.036-.14.065-.268a3.408 3.408 0 0 1-.28-.183.945.945 0 0 0-.151-.182h-.022c-.021-.057-.021-.168 0-.333a7.836 7.836 0 0 1-.247-.032l-.033-.054a.84.84 0 0 1-.215.032L47.462 4a1.93 1.93 0 0 1-.42.032 1.186 1.186 0 0 0-.216-.182c-.05-.022-.18-.043-.387-.065a1.916 1.916 0 0 0-.377-.032Zm1.701 2.577a1.588 1.588 0 0 1-.054.118c.022.028.029.06.022.096-.05.043-.09.126-.119.247a1.07 1.07 0 0 1-.215 0 2.068 2.068 0 0 0-.086-.128.175.175 0 0 1-.086 0 1.975 1.975 0 0 0-.033-.086c-.079-.072-.233-.122-.463-.15a1.056 1.056 0 0 0-.15.332c-.058 0-.159.01-.302.032a.58.58 0 0 0-.065-.096.174.174 0 0 1-.086 0c.007.028-.003.06-.032.096-.014.108-.004.158.032.15l.033.205.15.064.033.065h-.13c.022.042.054.121.097.236h.183c.151.05.273.11.367.182.014.029.032.061.053.097.05.014.119.01.205-.01a.796.796 0 0 1 .205-.044c.035 0 .071.007.107.022a.692.692 0 0 0 .097.15c.036.014.086.036.151.064.057-.136.133-.25.226-.343.093-.093.19-.183.291-.269v-.085a.684.684 0 0 1-.119-.13c-.014-.05-.007-.139.022-.268l.043-.043a.075.075 0 0 0 .022-.075c-.03 0-.065-.018-.108-.054a.28.28 0 0 0-.01-.128.192.192 0 0 1-.098-.033.25.25 0 0 0-.032-.15 1.602 1.602 0 0 0-.15-.064Zm-.721.633h.15l.033.129a1.45 1.45 0 0 0-.097.054h-.15l-.066-.086.097-.065.033-.032Z"/></svg>