<svg xmlns="http://www.w3.org/2000/svg" width="16" height="30" fill="none"><path fill="#37B34A" d="M14 6.773c-.913-.623-3.118-1.235-4.078-1.42A19.65 19.65 0 0 0 8.467.463l-1.897.925a19.058 19.058 0 0 1 1.543 7.326c.01.924-.054 1.846-.192 2.76-1.214.036-4.194.527-5.489 1.197C.818 13.5-.139 14.863.3 15.716c.437.852 2.11.87 3.716.042 1.097-.562 2.782-2.237 3.726-3.303-.833 3.91-3.083 7.315-6.728 10.154l1.298 1.667a22.415 22.415 0 0 0 4.04-4.01c-.408 1.477-.91 4.543-.699 6.068.28 2.055 1.385 3.598 2.47 3.45 1.083-.148 1.732-1.934 1.452-3.989-.248-1.823-2.16-5.44-2.724-6.217a18.4 18.4 0 0 0 3.373-10.972 20.953 20.953 0 0 0-.153-2.227c.649.908 1.683 2.132 2.405 2.625 1.166.792 2.456.95 2.875.333.42-.618-.182-1.763-1.35-2.562"/></svg>