<svg xmlns="http://www.w3.org/2000/svg" width="67" height="57" fill="none"><path fill="#EC1C24" d="M66.243 17.543v3.453c-.052.09-.091.187-.116.288a20.925 20.925 0 0 1-1.707 6.202c-1.98 4.569-4.968 8.441-8.368 12.03-6.33 6.67-13.635 12.134-21.452 16.935-.815.502-1.583.462-2.403-.034-6.717-4.081-13.023-8.706-18.725-14.124-3.576-3.392-6.831-7.062-9.347-11.33C2.265 27.797.889 24.455.66 20.76c-.31-4.917.93-9.446 3.871-13.43C7.561 3.23 11.59.644 16.731.156 22.82-.43 27.778 1.89 31.707 6.503c.626.736 1.161 1.548 1.694 2.266.912-1.127 1.722-2.324 2.727-3.324C41.214.39 47.24-1.325 54.06 1.082c5.981 2.11 9.6 6.595 11.393 12.601.375 1.256.528 2.578.791 3.868"/></svg>