<svg xmlns="http://www.w3.org/2000/svg" width="40" height="58" fill="none"><path fill="#FFC200" d="M31.628 57.137H8.205c-.33-2.16-.62-1.617-.989-3.693a2.937 2.937 0 0 0-.683-1.496c-2.242-2.374-3.007-5.08-3.236-8.011A4809.78 4809.78 0 0 0 .169 5.643C.032 4.02 1.058 2.98 2.627 2.55 5.62 1.73 8.693.878 11.802.62c6.639-.554 13.32-.573 19.934.448.883.138 1.759.325 2.616.544 4.507 1.163 5.23 2.152 4.895 5.993-.955 11.138-1.807 22.281-2.801 33.414-.245 2.733-.171 5.759-1.606 8.08-2.11 3.408-3.384 4.14-3.2 8.049l-.012-.01Zm-17.484-29.33c.035-1.735-1.77-3.244-3.848-3.226-2.078.019-3.797 1.427-3.842 3.1-.045 1.749 1.704 3.194 3.866 3.2 2.073 0 3.793-1.377 3.824-3.073Zm-4.67-8.85c2.08 0 3.832-1.4 3.86-3.063.03-1.662-1.845-3.21-3.929-3.19-2.083.022-3.94 1.563-3.866 3.245.074 1.684 1.846 3.021 3.935 3.008Zm20.993 0c2.084 0 3.798-1.385 3.835-3.07.037-1.687-1.823-3.22-3.906-3.195-2.031.023-3.803 1.461-3.832 3.11-.035 1.754 1.711 3.165 3.903 3.165v-.01Zm2.922 8.716c-.042-1.675-1.806-3.1-3.835-3.097-2.028.003-3.956 1.583-3.905 3.229.055 1.71 1.949 3.137 4.069 3.068 2.073-.069 3.716-1.501 3.671-3.2ZM15.524 39.605c-.024-1.7-1.93-3.179-4.014-3.121-2.084.058-3.737 1.498-3.727 3.184.01 1.686 1.696 3.068 3.795 3.087 2.142.018 3.972-1.443 3.956-3.15h-.01ZM28.24 36.48c-2.03 0-3.814 1.43-3.84 3.095-.029 1.76 1.71 3.187 3.88 3.184 2.054 0 3.81-1.398 3.86-3.07.05-1.673-1.793-3.203-3.9-3.209Z"/></svg>