<svg xmlns="http://www.w3.org/2000/svg" width="9" height="9" fill="none"><path fill="#fff" d="M3.636.947c.06-.007.194.016.401.07.214.047.344.083.39.11.02.034.051.07.091.11.1 0 .227.04.38.12 0 .054.018.141.051.261.047.04.107.1.18.18.02.094.06.221.12.382a.48.48 0 0 1 .11.05c-.066.227-.093.374-.08.44.007.02.017.044.03.071.02.027.027.054.02.08-.073.1-.15.247-.23.441 0 .034.01.1.03.2a.327.327 0 0 1-.03.211 1.898 1.898 0 0 1-.09.02c0 .04-.02.1-.06.18a.674.674 0 0 0-.17.121c0 .04-.01.087-.03.14l-.15.03v.06a.285.285 0 0 1-.171.01.24.24 0 0 0-.15-.01v.03c-.054.027-.19.134-.411.322v.12a.803.803 0 0 0 0 .26c.013.034.066.08.16.14.094.061.15.101.17.121a.207.207 0 0 0 0 .09c.02.06.067.11.14.15v.03l.351-.03c0-.033.007-.113.02-.24a.552.552 0 0 0-.01-.19.213.213 0 0 0-.1-.13c.027-.007.037-.027.03-.06.154-.014.371-.05.652-.111-.18-.094-.27-.194-.27-.3 0-.061.04-.118.12-.171.08-.014.186-.054.32-.12a.678.678 0 0 1 .07-.191.342.342 0 0 1 .19-.16c.1.006.248.006.442 0 .06-.027.13-.057.21-.09.054 0 .157.026.31.08.155.053.255.096.301.13.147.1.234.187.261.26v.09c.067.014.154.044.26.091.027.02.044.057.05.11.007.04.007.08 0 .12-.006.04-.013.05-.02.03.007.054.027.151.06.291a.638.638 0 0 0-.06.271c0 .04.01.057.03.05-.026.007-.006.017.06.03v.09a.576.576 0 0 1-.09.09c-.046 0-.123.01-.23.03-.06.034-.147.07-.26.111a.491.491 0 0 1-.22-.05c-.121-.04-.195-.06-.221-.06a.802.802 0 0 1-.18 0c-.014-.04-.054-.084-.121-.13a.546.546 0 0 1-.11-.02.693.693 0 0 0-.09-.121c-.067-.047-.174-.074-.321-.08v.05c-.08.054-.127.114-.14.18.02.02.03.05.03.09l-.06.03c.013.007.023.034.03.08l-.05.071c-.027.04-.04.067-.04.08 0 .014.01.03.03.05.02.014.03.027.03.04-.047.04-.097.097-.15.17.02.128.02.265 0 .412.113.04.17.063.17.07.02.054.04.11.06.17-.087.034-.174.08-.261.14.04.175.07.295.09.362.06.18.12.28.18.3a.982.982 0 0 1 .231.01c.014.007.02.03.02.07 0 .034-.006.05-.02.05.14.02.277.03.411.03a.814.814 0 0 1 .11-.26c.02-.013.114-.046.28-.1.108-.027.168-.087.181-.18.007-.074.167-.127.481-.16.007.02.017.04.03.06.054.026.11.09.17.19.06.1.111.164.151.19.1.027.247.074.441.14-.033.047-.043.077-.03.09-.074.04-.18.098-.32.171v.12c.133.027.307.067.52.12l-.03.111h-.41a.395.395 0 0 1-.02.05.536.536 0 0 1-.12.04.544.544 0 0 0 .06.09.72.72 0 0 1 .17 0l.15.09c-.027.094-.037.141-.03.141h-.621c-.027.02-.054.067-.08.14a.338.338 0 0 1-.06.13 1.188 1.188 0 0 1-.191.101.868.868 0 0 1-.19.07.416.416 0 0 1-.15-.01 3.543 3.543 0 0 1-.111-.02c-.114.034-.29.054-.531.06l-.09-.09a.996.996 0 0 1-.2 0c-.041-.027-.101-.064-.181-.11H5.6l-.09-.09c-.067 0-.165-.02-.291-.06-.054-.047-.15-.134-.291-.261v-.06h-.06a5.5 5.5 0 0 1-.15.12.208.208 0 0 0-.09 0c-.034.06-.08.127-.141.2-.04 0-.1.01-.18.03v.06c-.02.054-.097.1-.23.14-.068 0-.165.01-.292.031v.06c-.046.02-.096.04-.15.06l-.44-.03c-.108.02-.281.03-.522.03a14.261 14.261 0 0 0-.41-.12.56.56 0 0 1-.211-.03 6.487 6.487 0 0 0-.17-.23c-.04-.014-.1-.044-.181-.09a.618.618 0 0 0-.08-.111.909.909 0 0 1-.18-.06l-.12-.21a.22.22 0 0 0 .03-.081 9.633 9.633 0 0 1-.171-.15 3.467 3.467 0 0 0-.09-.321l-.12-.12a.49.49 0 0 0 0-.14 2.42 2.42 0 0 1-.08-.181c.006-.02.016-.07.03-.15a9.288 9.288 0 0 1-.04-.191.66.66 0 0 1 0-.23.425.425 0 0 1 .16-.201.79.79 0 0 0 .14-.11 1.672 1.672 0 0 1 0-.371.624.624 0 0 0 .11-.06c.007-.047.027-.117.06-.211a.23.23 0 0 0 .11-.07c.047-.04.08-.164.1-.371.067-.02.164-.057.291-.11a.543.543 0 0 1 .06-.09c.02.006.05.006.09 0v-.03c.06-.034.094-.067.1-.1.014-.034.037-.098.07-.191.014-.027.105-.127.272-.301.146-.147.223-.25.23-.31.007-.081-.033-.178-.12-.292a.947.947 0 0 1-.15-.24c0-.134-.017-.358-.05-.672a9.495 9.495 0 0 0-.08-.15.362.362 0 0 1-.041-.2l.12-.261a.569.569 0 0 1 0-.15c.02 0 .047-.01.08-.03.007-.007.027-.064.06-.171a2.25 2.25 0 0 1 0-.3l.151-.111c0-.034.01-.074.03-.12h.08a.98.98 0 0 1 .12-.12c.06.013.157.003.291-.03l.06-.081h.09a.162.162 0 0 1 .07-.08c.034-.02.117-.044.251-.07Zm.21.762v.03a.385.385 0 0 0-.12.03v.06a.269.269 0 0 1-.16-.01c-.06-.02-.104-.027-.13-.02-.054.006-.134.07-.24.19-.108.114-.165.194-.171.24a.292.292 0 0 0 .02.181c.026.067.04.117.04.15-.034.06-.064.138-.09.231-.034.22-.024.388.03.501h.03c.04.02.08.084.12.19.04.101.077.165.11.191.08.02.197.057.351.11l.06-.11h.06c0-.053.02-.113.06-.18.04 0 .097-.01.17-.03.088-.054.185-.21.292-.471a.745.745 0 0 1-.231-.17V2.73l.03-.03a.632.632 0 0 0 .12-.14.707.707 0 0 0-.03-.15c0-.02.01-.04.03-.06.02.06.047.146.08.26h.06c.034.046.064.097.09.15l.061-.03a.721.721 0 0 1 0-.17c0-.04.01-.087.03-.14a.31.31 0 0 0 .04-.121c0-.047-.033-.097-.1-.15-.06-.02-.13-.05-.21-.09a1.32 1.32 0 0 0-.05-.181 1.56 1.56 0 0 1-.181-.08.314.314 0 0 1-.03-.09c-.02-.014-.067-.014-.14 0Zm.261.26c.027 0 .047.007.06.02.014.014.017.024.01.03-.013.014-.036.017-.07.01.034 0 .024.01-.03.03-.02-.053-.01-.083.03-.09Zm-.992 3.218a.615.615 0 0 0-.26.12l-.241.15a.358.358 0 0 0-.12 0c-.027 0-.11.034-.25.1-.141.068-.218.111-.231.131a.236.236 0 0 0-.04.06 5.945 5.945 0 0 1-.241.291h-.03c.006.02.006.05 0 .09a.318.318 0 0 0-.08.06.738.738 0 0 0-.04.351c.026.227.04.355.04.381-.034 0-.044.004-.03.01a.114.114 0 0 0 .03.02c.02.007.02.014 0 .02h.03a.694.694 0 0 0-.03.09c.046.027.103.057.17.09v.03c.007 0-.003.01-.03.031 0 .047-.01.134-.03.26.054.067.134.144.24.231.054.04.124.06.21.06h.171c.054.04.12.08.2.12.06-.006.148-.006.261 0l.09.06a.515.515 0 0 0 .17-.01.464.464 0 0 1 .181-.02c.007 0 .04.02.1.06.06.034.114.044.16.03v-.06l.101-.09a.88.88 0 0 1 .11-.09h.03a.745.745 0 0 1 .09-.23c.04-.02.107-.06.201-.12v-.06a3.73 3.73 0 0 0 .29-.171 1.092 1.092 0 0 0 0-.21l-.06-.02c-.033-.04-.08-.11-.14-.211-.006-.04-.016-.097-.03-.17a12.7 12.7 0 0 1-.24-.412.922.922 0 0 1-.291-.15.38.38 0 0 0-.04-.14c-.02-.067-.114-.157-.28-.271l.08-.12c.026-.04.03-.087.01-.14-.04-.1-.11-.151-.211-.151h-.02Zm3.097 1.704c.04.007.056.037.05.09l-.02.08a1.673 1.673 0 0 1-.23-.06c-.054-.013-.084-.026-.09-.04 0 .02.066.017.2-.01.053-.046.083-.066.09-.06Z"/></svg>