<svg xmlns="http://www.w3.org/2000/svg" width="62" height="12" fill="none"><path fill="#fff" d="M4.267.575c.317-.035.554.07.713.317 0 .044.026.097.079.158a2.67 2.67 0 0 1 .54 0c.07.07.163.15.277.238a.732.732 0 0 1 .198 0v-.08c.035-.026.101-.079.198-.158l-.04-.119c.08 0 .185-.013.317-.04-.027-.017-.005-.056.066-.118a.166.166 0 0 0 .04-.079c.078 0 .184.026.316.08l.158.58h.04c-.01.079-.01.184 0 .316a.326.326 0 0 1 .079.04c.008.052.035.145.079.277l-.198.158c-.018-.026-.03 0-.04.08a.62.62 0 0 1 .159.118.266.266 0 0 0 0 .119 2.245 2.245 0 0 0-.238.197c.035.106.115.233.238.383v.119l-.159.118c.088.194.128.326.12.396l-.04.066c-.027.035-.04.066-.04.092.061.044.127.11.198.198a.47.47 0 0 0 0 .158c-.07.036-.176.097-.317.185v.08c-.008.026-.057.074-.145.144-.079.062-.136.093-.171.093a.248.248 0 0 1-.198-.066 16.383 16.383 0 0 1-.145-.172 1.049 1.049 0 0 1-.356-.145c0-.07-.013-.176-.04-.316a2.114 2.114 0 0 1-.197-.277v-.12a.694.694 0 0 1-.198-.197c.035-.044.061-.136.079-.277-.08-.123-.172-.277-.277-.462 0-.044-.013-.123-.04-.237l-.118-.119a.272.272 0 0 0 0-.118h-.08a2.372 2.372 0 0 0-.105-.159 2.993 2.993 0 0 0-.501-.224c-.281-.105-.47-.15-.567-.132-.08.053-.185.106-.317.158a1.304 1.304 0 0 0-.263 0l-.119.159c-.088.035-.22.1-.396.198-.079.079-.21.184-.395.316h-.04c0 .062-.013.154-.04.277a.304.304 0 0 0-.118.04c-.026.088-.066.189-.119.303H1.96c.026.018.088.03.184.04-.008.061-.022.14-.04.237a1.182 1.182 0 0 0-.144.04l-.04.435c-.07.088-.136.193-.198.316.018.045.031.132.04.264a1.38 1.38 0 0 0-.158.238c.017.061.03.167.04.316l-.08.119v.435a.912.912 0 0 1-.053.172c-.026.088-.035.145-.026.171.044.053.097.119.158.198.018.097.013.246-.013.449-.018.193-.013.334.013.422a.918.918 0 0 1 .119.158 1.354 1.354 0 0 0 0 .382c.07.062.158.141.264.238a4 4 0 0 1-.106.356c.009.018.11.11.303.277a.17.17 0 0 1 0 .132.4.4 0 0 0-.04.145.38.38 0 0 1 .12.119c.035.15.114.343.237.58a.298.298 0 0 0 .198.066c.044 0 .118-.009.224-.026.114-.027.21-.04.29-.04.07.132.15.237.237.317.044-.036.106-.075.185-.12.044-.008.145.005.303.04.167.036.26.066.277.093a.287.287 0 0 1 .053.105.745.745 0 0 1 .198 0 4.31 4.31 0 0 0-.08-.356c.036-.026.075-.053.12-.079.06.009.153.009.276 0 .018-.009.07-.057.159-.145.096-.097.145-.154.145-.172 0-.114.026-.268.079-.461h.079c.088-.035.154-.167.198-.396a3.03 3.03 0 0 1 .04-.554l.039-.026c.035-.027.048-.058.04-.093a1.21 1.21 0 0 1-.159-.118.213.213 0 0 0 0-.106 1.895 1.895 0 0 0-.158-.198 5.47 5.47 0 0 0-.37.066 1.18 1.18 0 0 1-.448-.026 1.627 1.627 0 0 0-.277-.238.763.763 0 0 1-.197-.04.237.237 0 0 0-.04-.118.413.413 0 0 0-.119-.04v-.118c.062-.035.14-.088.238-.158a.65.65 0 0 1 .079-.198c.097-.062.255-.093.474-.093.264.01.431 0 .502-.026.026-.035.052-.075.079-.119.044 0 .11-.013.198-.04.061-.052.153-.113.276-.184.062-.009.137.013.225.066l.131.08c.088.017.216 0 .383-.054.167-.052.299-.07.395-.052.159.061.37.123.633.184A2.72 2.72 0 0 1 8 5.904c.044.018.088.062.132.132a.402.402 0 0 0 .092.106c.097.008.242.035.436.079.114.035.298.154.553.356a.71.71 0 0 1-.079.119.414.414 0 0 0-.158.04 1.444 1.444 0 0 1-.237.395c-.106 0-.277.013-.515.04-.123.026-.33.065-.62.118l.04.106-.198.118a.272.272 0 0 1 0 .12 1.328 1.328 0 0 0-.158.078.807.807 0 0 0-.04.211c-.008.106.005.167.04.185h.08l.118.04c-.044.035-.066.074-.066.118 0 .035.026.084.08.145a.462.462 0 0 1 .105.132.346.346 0 0 1-.053.264 1.41 1.41 0 0 1-.106.119c.01-.044.022.048.04.277-.026.097-.04.255-.04.475l.12.118a.732.732 0 0 0 0 .198c-.08.035-.185.088-.317.158a27.77 27.77 0 0 1-.04.12c.053.025.08.06.08.105 0 .07-.023.105-.067.105-.008-.008-.013-.018-.013-.026a.97.97 0 0 1-.158.198h-.08a.272.272 0 0 1 0 .118 2.228 2.228 0 0 1-.118.172.633.633 0 0 1-.119.145.496.496 0 0 1-.197.04c-.07 0-.225-.066-.462-.198v-.08c-.061-.026-.198-.04-.409-.04-.21 0-.351.014-.422.04-.061.08-.176.172-.343.277-.096.027-.228.04-.395.04-.15 0-.378-.013-.686-.04a8.444 8.444 0 0 0-.607-.04l-.131.027a.486.486 0 0 1-.185.013c-.061-.017-.132-.092-.211-.224-.07-.14-.132-.224-.185-.25-.14 0-.32-.027-.54-.08-.053-.026-.106-.206-.158-.54a7.95 7.95 0 0 1-.304-.08c-.132-.052-.202-.11-.21-.17 0-.071-.014-.186-.04-.344a.62.62 0 0 1-.159-.119.31.31 0 0 1 .014-.197.302.302 0 0 0-.014-.198c-.087-.053-.18-.167-.277-.343a.702.702 0 0 0 .08-.277 5.752 5.752 0 0 0-.12-.198.886.886 0 0 0 .04-.317 2.998 2.998 0 0 1-.118-.197c.026-.062.04-.176.04-.343a1.936 1.936 0 0 0-.12-.198H.537v-.159c.026-.008.066-.021.118-.04v-.118C.514 6.612.465 6.467.51 6.3c.08-.334.145-.51.198-.528.061-.026.07-.044.026-.052-.035-.018-.07-.084-.105-.198a1.198 1.198 0 0 1-.053-.238c.009-.008.035-.053.08-.132.043-.088.056-.162.039-.224C.597 4.805.557 4.74.575 4.73c.062-.017.132-.176.211-.475.088-.307.132-.55.132-.725 0-.07-.009-.114-.026-.132.079-.07.171-.176.277-.317.017-.105.057-.259.118-.461.018-.027.07-.093.158-.198a.387.387 0 0 0 .093-.264c0-.035.013-.061.04-.079.034-.026.083-.057.144-.092a.736.736 0 0 1 .04-.277.266.266 0 0 0 .119 0 .435.435 0 0 1 .079-.159.632.632 0 0 0 .184-.04c.08-.113.211-.267.396-.46h.119a.743.743 0 0 1 .118-.12.477.477 0 0 1 .224 0c.106.027.176.04.211.04a.351.351 0 0 0 .159-.04c.017-.017.07-.123.158-.316.105.026.22.053.343.08A.731.731 0 0 0 4.07.64a.611.611 0 0 1 .197-.066Zm.198 9.379.04.118c-.018-.079-.031-.118-.04-.118Zm5.741-6.622a.743.743 0 0 1 .317.053c.132.044.215.066.25.066a.291.291 0 0 0 .08-.04l.065-.04a.308.308 0 0 1 .185.04c.07.027.11.04.119.04.008 0 .04-.013.092-.04l.092-.04c.097-.017.233-.004.409.04.185.044.299.08.343.106.097.061.163.15.198.264a.746.746 0 0 0 0 .197c.026.018.061.04.105.066.097.15.15.264.158.343 0 .018-.013.035-.04.053-.026.009-.039.018-.039.026.018.097.018.247 0 .449-.035.035-.074.07-.118.105.008.15.008.365 0 .647l-.066.264c.044.035.066.057.066.066l-.066.04c0 .105-.04.232-.119.382-.026.017-.013.052.04.105.026.088.07.14.132.158.06.01.131.022.21.04-.008.08-.035.202-.079.37a.894.894 0 0 0-.145.224.76.76 0 0 0 .027.342.822.822 0 0 1 .158.106c-.027.14-.04.216-.04.224.018.053.044.119.08.198l-.198.106a.7.7 0 0 0-.027.343c.035.044.07.092.106.145-.027.096-.027.246 0 .448.026.07.097.123.21.158.115.027.18.049.198.066.027.07.066.15.12.238h.263c.061.026.136.013.224-.04.035-.07.084-.145.145-.224.009-.009.123-.048.343-.119a.462.462 0 0 1-.04-.224c.018 0 .044-.026.08-.08.158-.026.382-.074.672-.144a2.24 2.24 0 0 0 0-.488c.044 0 .106-.005.185-.013a1.1 1.1 0 0 1 .198-.027c.079-.316.215-.527.408-.633v-.08a.328.328 0 0 0 .145-.039v-.105c.045-.009.097-.022.159-.04 0-.044.013-.097.04-.158h.065v-.185c-.009 0-.022.027-.04.08-.158-.062-.232-.137-.224-.225a1.34 1.34 0 0 0 .08-.119h.184a2.926 2.926 0 0 1-.066-.527.598.598 0 0 0 .066-.04v-.29c-.009 0-.022.022-.04.066-.079.009-.228.022-.448.04v-.04a2.361 2.361 0 0 0-.04-.185c.018 0 .031-.004.04-.013a.15.15 0 0 0 .04-.026c.053.035.114.075.184.119.15.008.225-.058.225-.198 0-.027-.01-.106-.027-.238a.588.588 0 0 1 0-.25.44.44 0 0 0 .066-.106 7.04 7.04 0 0 1-.488-.079 2.155 2.155 0 0 0-.264-.185 1.426 1.426 0 0 0-.857 0c-.114.035-.189.049-.224.04a.462.462 0 0 0-.119-.08c.097-.272.097-.659 0-1.16a.71.71 0 0 1 .08-.119.544.544 0 0 1 .29-.066c.061 0 .158.01.29.027.14.017.246.026.316.026s.132-.009.185-.026c.088-.044.202-.093.343-.145.228-.035.417-.022.567.04.026.034.061.07.105.105.114-.009.277.004.488.04.07.034.15.127.238.276.061.106.123.216.184.33l.145.185c0 .088-.013.114-.04.079.01.044-.004.057-.039.04a.578.578 0 0 1-.04.105.415.415 0 0 0-.026.119c0 .008.035.083.106.224-.018.088-.031.211-.04.37l.04.078.079.12a1.98 1.98 0 0 0 .04.593 6.36 6.36 0 0 1-.04.263c-.07.317-.097.506-.08.568.036.035.075.083.12.145a7.124 7.124 0 0 0-.08.527c.018.22.07.41.159.568.026.017.06.04.105.065v.12a.914.914 0 0 0-.185.184c-.026.132 0 .206.08.224l-.12.264c.045.07.168.198.37.382l-.026.145c.167.018.382.062.646.132s.417.137.461.198a.622.622 0 0 1 .132.277c.044.132.093.22.145.264.009.009-.017.044-.079.106 0 .07-.022.158-.066.263-.061.053-.176.093-.343.12-.123.025-.25.047-.382.065-.308.08-.743.119-1.305.119-.211 0-.352-.013-.422-.04a1.158 1.158 0 0 0-.185-.224 3.151 3.151 0 0 1-.488-.145c-.053-.088-.154-.176-.303-.264-.053-.009-.15.04-.29.145l-.264.224v.08a1.976 1.976 0 0 0-.462.04 1.941 1.941 0 0 1-.224.184 1.273 1.273 0 0 0-.224-.08c-.14.062-.325.128-.554.199a.681.681 0 0 1-.356-.067 4.642 4.642 0 0 1-.29-.131c-.07 0-.171-.022-.303-.066a.55.55 0 0 0-.066-.159.984.984 0 0 1-.224-.079 1.043 1.043 0 0 0-.264-.25c-.08.008-.194.008-.343 0-.097-.036-.154-.146-.171-.33a80.594 80.594 0 0 0-.053-.462l-.119-.119c-.123-.281-.184-.51-.184-.685 0-.088.013-.172.039-.251l.08-.04c.034-.079.07-.193.105-.343-.027-.395-.053-.593-.08-.593v-.08c0-.043.018-.087.053-.131a.353.353 0 0 0 .066-.092 1.796 1.796 0 0 1-.04-.343c.071-.115.146-.251.225-.41.018-.078-.009-.162-.08-.25a2.118 2.118 0 0 1-.105-.158c.009-.07.009-.172 0-.304a1.413 1.413 0 0 1-.145-.224c.035-.176.035-.413 0-.712h-.079a2.214 2.214 0 0 0-.224-.158 4.13 4.13 0 0 1-.646.04c-.044-.01-.119-.084-.224-.225a.741.741 0 0 1-.106-.08c.053-.175.075-.285.066-.329a1.362 1.362 0 0 0-.08-.119.308.308 0 0 1-.065-.224.573.573 0 0 1 .145-.316c.097-.106.198-.163.303-.172ZM23.13.694c.053 0 .145.035.277.106.132.07.21.123.237.158.018.07.053.154.106.25.061.018.15.053.263.106.018.044.053.106.106.185.07.044.158.118.264.224.035.088.04.224.013.409l-.053.422h-.264c-.008.009-.04.048-.092.119a.453.453 0 0 0-.08.105.315.315 0 0 1 .027.185c.01 0 .036.013.08.04a.371.371 0 0 0-.04.144c-.229.018-.325.031-.29.04a1.945 1.945 0 0 0-.264-.092.695.695 0 0 0-.317-.027v.08h-.145c0 .008-.013.03-.04.065v.04a.213.213 0 0 1-.131-.013.34.34 0 0 0-.092-.053c-.114 0-.273-.026-.475-.08a2.733 2.733 0 0 0-.105-.25c-.07-.07-.154-.18-.251-.33-.027-.07-.04-.246-.04-.527 0-.29.013-.47.04-.54.009-.036.049-.067.119-.093.07-.027.114-.053.131-.08.027-.087.062-.197.106-.33.114 0 .273-.012.475-.039l.04-.079a.877.877 0 0 1 .395-.145Zm-.62 2.85a.748.748 0 0 1 .145-.014c.176 0 .4.04.673.119.246.07.4.132.461.184.01.044.022.093.04.145l.145.04c.009.044.022.092.04.145h.065l.119.224h.026c0-.008-.021.053-.066.185.018.061.031.171.04.33l-.119.356c.07.044.172.119.304.224-.01 0-.01.084 0 .25l-.12.04c.019.106.019.25 0 .436-.008.035-.03.052-.065.052l-.08-.013v.145c.01 0 .071-.013.186-.04a.385.385 0 0 0 .105.146c0 .017-.022.127-.066.33.062.035.075.11.04.224h-.08a1.172 1.172 0 0 1-.105.145c.009.07.044.193.105.37-.052.034-.079.056-.079.065a.687.687 0 0 1 .119.08c-.026.131-.075.35-.145.659.088.07.185.189.29.356 0 .035-.013.07-.04.105l-.039.04a.478.478 0 0 0 .119.435c.009.018.066.044.171.08.062.017.15.03.264.039l.04.105c.008 0 .017-.035.026-.105h.369c.018.044.03.066.04.066.044-.009.105-.018.184-.026a1.068 1.068 0 0 0-.079.171c0 .035.013.11.04.224.044-.035.114-.097.21-.184l-.026-.146a.224.224 0 0 0 .066-.065c.07.008.18.044.33.105a.42.42 0 0 0 .079.106c.088 0 .22.026.395.079.089.044.172.171.251.382.08.211.106.387.08.528l-.251.33c-.159.167-.317.263-.475.29a9.593 9.593 0 0 0-.739-.04c-.061.009-.193.031-.395.066a1.84 1.84 0 0 1-.435.04c-.044 0-.14-.014-.29-.04-.141-.026-.25-.035-.33-.026-.123.026-.198.04-.224.04a7.815 7.815 0 0 0-.25-.12 8.002 8.002 0 0 0-.95-.065l-1.319-.04-.04-.066c-.149.018-.377.027-.685.027-.088-.01-.286-.07-.594-.185-.035.009-.092 0-.171-.027v-.118a1.868 1.868 0 0 1-.119-.066c.01-.044.022-.132.04-.264a.493.493 0 0 1-.04-.145.446.446 0 0 1 .33-.396c.105-.035.273-.04.501-.013.246.018.409.022.488.013.044-.044.105-.092.185-.145l.474-.04.027-.105c.061.009.096.013.105.013.08.009.137.018.172.027h.026l.211-.08c.097-.087.158-.395.185-.923.008-.36.022-.72.04-1.081.026-.097.06-.233.105-.41a7.212 7.212 0 0 1-.04-.646c.035-.14.049-.228.04-.263l-.066-.146c.017-.158.026-.387.026-.685a7.09 7.09 0 0 1-.105-.225h-.066l-.119-.25a.536.536 0 0 0-.303-.08c-.08 0-.207.014-.383.04-.175.027-.299.04-.369.04a15.992 15.992 0 0 1-.87-.145.805.805 0 0 1-.225-.04 1.322 1.322 0 0 0-.079-.264 1.784 1.784 0 0 0-.131-.171.291.291 0 0 1-.04-.224c0-.044.07-.12.211-.225v-.066c.466-.14.76-.202.884-.184.052.044.136.092.25.145.132-.009.303-.009.514 0 .01 0 .053.022.132.066a.29.29 0 0 0 .198.04.657.657 0 0 0 .396-.146c-.01-.035.026-.083.105-.145Zm2.967 5.447c.167-.027.25 0 .25.079 0 .026-.034.035-.105.026-.15.027-.224.018-.224-.026 0-.018.013-.035.04-.053.026-.018.026-.026 0-.026h.04ZM30.755.734c.168-.018.295.03.383.145.035.044.092.158.171.343-.009.035.005.083.04.145l.33.079a.944.944 0 0 1-.067.185.237.237 0 0 0-.118.04c.017.008.004.043-.04.105.088.061.15.1.185.118-.018.167-.018.277 0 .33l.119.04c.079.061.1.246.065.554a10.119 10.119 0 0 1-.474-.106v.145c.263.027.422.088.474.185 0 .026.014.066.04.119.07.017.171.052.303.105.018.035.04.075.066.119.062-.035.176-.062.343-.08l.105.106h.41l.039-.25a.642.642 0 0 1 .184 0l.04.105.224.145c.115-.008.277-.008.488 0 .176.035.282.097.317.185-.01.018-.005.057.013.119.079.052.167.127.264.224v.079c.008.009.035.013.079.013s.07.062.079.185c-.009.079-.013.158-.013.237h-.185a3.08 3.08 0 0 1-.185.198 1.277 1.277 0 0 1-.593.185 1.663 1.663 0 0 1-.528-.08 1.8 1.8 0 0 0-.224-.105c-.061-.009-.127.013-.197.066a.61.61 0 0 1-.132.08 2.533 2.533 0 0 0-.37 0c-.114.034-.263.083-.448.144 0 .352-.026.651-.08.897l-.065.106v.118c.018-.026.03-.021.04.014a.114.114 0 0 1-.014.052c-.052.387-.057.598-.013.634.044.026.049.1.013.224-.035.053-.07.114-.105.184 0 .045.013.084.04.12l.039.039a.634.634 0 0 0-.04.264.3.3 0 0 1 .106.026l.04.303h.04c-.018.009-.032.035-.04.08l.118.145c-.026.061-.048.092-.066.092-.008 0-.013-.009-.013-.027v.08h.04a.701.701 0 0 1 .066-.106c.017.018.057.026.118.026l.106-.105a.821.821 0 0 1 .053.092c.026.027.061.07.105.132v-.079c.07-.018.18-.04.33-.066.009-.053.022-.105.04-.158a.461.461 0 0 0 .223 0 .213.213 0 0 1 0-.106h.04c.158-.132.242-.22.25-.264a15.73 15.73 0 0 0-.04-.29c.036-.088.076-.202.12-.343.035.01.18.01.435 0 .193 0 .334.031.422.093.097.052.18.176.25.369.088.237.15.383.185.435.044.053.171.128.382.225v.04a.214.214 0 0 1 .106 0c.079.043.118.087.118.131 0 .026-.087.092-.263.198.079.105.14.193.184.264v.145a1.17 1.17 0 0 0-.171.092c-.061.035-.092.066-.092.092 0 .027.075.08.224.159v.066l-.409.369c.044.035.097.088.158.158a.683.683 0 0 1-.04.264 8.486 8.486 0 0 1-.078.25c-.062.018-.22.031-.475.04l-.264.08a.474.474 0 0 0-.184-.04.533.533 0 0 0-.29.158 3.344 3.344 0 0 1-.238.211.403.403 0 0 1-.224.053 2.75 2.75 0 0 0-.29.026c-.08.044-.194.093-.343.145-.123.018-.273 0-.448-.052-.123-.045-.247-.088-.37-.132a3.39 3.39 0 0 1-.699-.225 1.857 1.857 0 0 0-.197-.224h-.106a1.18 1.18 0 0 0-.04-.145 2.727 2.727 0 0 1-.224-.184c-.026-.062-.04-.264-.04-.607v-.066c0-.009-.06-.14-.184-.396-.079-.167-.118-.303-.118-.409 0-.123.04-.242.118-.356-.158-.352-.237-.598-.237-.739 0-.052.009-.096.026-.132a.367.367 0 0 1 .106-.092c.026-.044.026-.105 0-.185v-.079l.066-.105a3.48 3.48 0 0 1-.066-.528c.053-.079.114-.176.184-.29.01-.061.014-.123.014-.185 0-.087-.027-.242-.08-.461a1.222 1.222 0 0 1-.052-.475.706.706 0 0 1-.185-.08.209.209 0 0 0 0-.105c0-.008-.075-.11-.224-.303a.944.944 0 0 0-.224 0l-.027.119a.647.647 0 0 0-.158.04 1.397 1.397 0 0 1-.422-.014c-.202-.026-.347-.035-.435-.026-.448.026-.681.04-.699.04l-.264-.199c-.008-.097.005-.294.04-.593a.299.299 0 0 1 .264-.264c.158-.026.316-.048.474-.066.07-.044.159-.092.264-.145a.794.794 0 0 1 .33-.013c.132.026.246.03.343.013.052-.035.114-.075.184-.119h.488a.213.213 0 0 1 0-.105c.062-.062.137-.15.224-.264a.725.725 0 0 1-.079-.33 1.66 1.66 0 0 0 .185-.224.887.887 0 0 0-.08-.198c.018-.053.032-.163.04-.33l-.066-.04v-.408l.224-.185c.027-.088.075-.21.145-.37h.146a.46.46 0 0 1 .118-.078Zm1.701 6.859h.264a.821.821 0 0 1 .04.474l-.145-.04H32.272c.017-.096.044-.219.079-.369a.69.69 0 0 0 .105-.065Zm-.066.817v.145c.036 0 .049-.026.04-.079-.009-.061-.022-.083-.04-.066Zm3.126.33c.026 0 .04.005.04.013-.01.018-.023.027-.04.027-.027 0-.04-.01-.04-.027 0-.008.013-.013.04-.013Zm-.145.08c.017 0 .03.004.04.012-.01.01-.023.014-.04.014-.027 0-.04-.005-.04-.014 0-.008.013-.013.04-.013Zm4.1-6.108c.017 0 .066.027.145.08a.51.51 0 0 0 .145.065c.132-.035.334-.048.607-.04.079.08.167.154.263.225.053-.044.176-.08.37-.106.114.018.268.093.461.225a.455.455 0 0 0 .106.145c.017.017.03.022.04.013v-.026c0-.027.012-.036.039-.027v.08c.158.087.312.17.461.25.185.105.317.21.396.316.017.018.096.141.237.37-.026.008-.04.03-.04.066 0 .079.036.193.106.343.07.14.128.215.172.224.052.009.145.026.277.053.017.017.043.04.079.066l-.04.079h-.145c-.105.026-.158.105-.158.237v.33c0 .009-.013.04-.04.092-.026.053-.035.097-.026.132 0 .009.013.048.04.119.026.07.035.132.026.185a.469.469 0 0 1-.066.105.31.31 0 0 0-.04.198l.08.066a.92.92 0 0 1 .026.488c0 .035-.035.101-.106.198a.385.385 0 0 0-.079.264c.009.026.04.079.093.158.061.079.092.136.092.171 0 .044-.022.084-.066.119h-.185a1.61 1.61 0 0 0-.013.277l.013.211c.009.026.093.088.25.185a.89.89 0 0 0 .199.145.686.686 0 0 0 .197 0c.106-.018.176-.027.211-.027l.04-.079a.978.978 0 0 1 .211-.026c.22 0 .4.185.54.554.044.088.093.211.146.37-.018.06-.031.127-.04.197a.38.38 0 0 0-.145.106.473.473 0 0 0-.105.118v.145a3.63 3.63 0 0 0-.264.225c.044 0 .066.022.066.066 0 .079-.062.206-.185.382-.273-.035-.497-.009-.672.08a.734.734 0 0 1-.211.131c-.088.044-.26.062-.515.053-.263-.009-.435-.03-.514-.066a8.804 8.804 0 0 0-.224-.303c-.062-.062-.176-.124-.343-.185-.08-.035-.14-.048-.185-.04a1.483 1.483 0 0 0-.567.185v.08a4.854 4.854 0 0 1-.184.144.47.47 0 0 0-.159 0l-.039.08a2.747 2.747 0 0 0-.37-.04c-.052.035-.114.07-.184.105a3.983 3.983 0 0 0-.461 0 2.539 2.539 0 0 1-.449.159.517.517 0 0 1-.171-.04.567.567 0 0 0-.132-.04c-.097.018-.233.031-.409.04a4.43 4.43 0 0 0-.264-.119c-.114.018-.29-.004-.527-.066a2.075 2.075 0 0 0-.224-.342 3.356 3.356 0 0 1-.37-.146c-.088-.052-.215-.255-.382-.606a5.194 5.194 0 0 1-.224-.449c.009-.079.009-.193 0-.343a1.219 1.219 0 0 0-.092-.171.417.417 0 0 1-.053-.238c.035-.079.07-.18.105-.303-.026-.062-.04-.176-.04-.343.018-.044.067-.084.146-.119a.466.466 0 0 0 .158-.105V7.71c.062-.114.136-.264.224-.448 0-.053.014-.132.04-.238.053-.07.241-.18.567-.33v-.039a.957.957 0 0 0 .224 0c.018-.061.044-.136.08-.224h.065a1.199 1.199 0 0 1-.488-.224.63.63 0 0 0-.145-.225l-.171-.066c-.044-.017-.07-.074-.08-.171a.148.148 0 0 0-.013-.066.519.519 0 0 1-.145-.158c-.017-.044 0-.246.053-.607.062-.37.11-.576.145-.62.044-.044.101-.11.172-.198v-.105a4.8 4.8 0 0 1 .303-.422c.035-.036.167-.124.395-.264.229-.14.36-.216.396-.225.053.036.163.062.33.08.079-.07.193-.145.343-.225.096.01.233.01.408 0a.936.936 0 0 0 .211-.118c.115-.07.198-.106.251-.106Zm-.04 1.425-.079.079a3.134 3.134 0 0 0-.408 0c-.07.044-.159.092-.264.145h-.08c0 .097-.026.224-.078.382h-.146c-.035.176-.035.313 0 .41a.858.858 0 0 1 .08.118c-.018-.018-.045-.009-.08.026a.37.37 0 0 1 0 .198.566.566 0 0 0-.145.145c.01.106.01.269 0 .488.554.044.914.044 1.082 0l.04-.079c.157-.097.307-.158.448-.184.131-.018.32-.005.567.04a2.2 2.2 0 0 1 .079-.304c-.044 0 .096.009.422.026.184 0 .307-.022.369-.066.035-.026.061-.088.08-.184.026-.097.047-.185.065-.264-.105-.053-.268-.14-.488-.264a1.67 1.67 0 0 0-.079-.106 1.398 1.398 0 0 1-.224-.079.883.883 0 0 0-.224-.224 6.414 6.414 0 0 1-.607-.119.596.596 0 0 1-.119-.118.248.248 0 0 0-.21-.066Zm1.346 3.152v.08c-.089.026-.251.078-.489.158a9.843 9.843 0 0 1-.144.105c-.194 0-.484.013-.87.04-.16.061-.37.136-.634.224a.266.266 0 0 0-.118 0 .422.422 0 0 1-.066.145 4.64 4.64 0 0 0-.343.158c0 .062.004.123.013.185 0 .053-.031.092-.092.119a1.306 1.306 0 0 0-.264 0l-.04.066h-.105c0 .035.013.087.04.158.07.035.158.084.263.145a.264.264 0 0 0 0 .119.213.213 0 0 1 .106 0c.043.017.1.079.171.184.07.106.127.167.171.185h.146c.166.044.28.057.342.04.035-.036.084-.075.145-.12.229-.043.519-.004.87.12v.026c0 .009.014.013.04.013V9.4c.185-.096.286-.158.304-.184a.558.558 0 0 1 .026-.224h.08a.97.97 0 0 1 .157-.198h.29c.088-.229.242-.414.462-.554-.035-.018-.026-.044.026-.08a.616.616 0 0 0-.066-.118h.066a2.4 2.4 0 0 0 .04-.145 1.32 1.32 0 0 1-.224-.224 1.637 1.637 0 0 0-.08-.25c-.035-.098-.11-.142-.224-.133Zm10.646-4.234a.783.783 0 0 1 .383.053c.088.035.18.07.277.105.149-.017.369-.004.659.04.079.08.193.18.343.303.044.009.11.035.198.08.026.06.079.14.158.237.035 0 .074.013.118.04 0 .06.014.149.04.263.07.08.15.198.237.356a.4.4 0 0 1-.066.251.445.445 0 0 0-.052.25l.118.278a1.22 1.22 0 0 1-.118.66.62.62 0 0 0-.159.118.272.272 0 0 1 0 .119.446.446 0 0 1-.303.158 7.307 7.307 0 0 0-.395.04 3.014 3.014 0 0 1-.198.118h-.62c-.062-.21-.14-.356-.237-.435a.235.235 0 0 1-.119-.04.506.506 0 0 0-.04-.158 31.18 31.18 0 0 0-.118.04v.079c-.062.026-.15.017-.264-.027a2.669 2.669 0 0 1-.237-.092c-.027-.097-.027-.136 0-.119a2.14 2.14 0 0 0 .079-.145c.105.009.145.022.118.04a1.8 1.8 0 0 0 .225.105c.07.009.105-.008.105-.052 0-.036-.03-.088-.092-.159a.654.654 0 0 0-.119-.132v-.04l-.079.08c-.158.053-.418.026-.778-.08a3.01 3.01 0 0 0-.198-.118c-.017.018-.057.03-.119.04a4.142 4.142 0 0 0-.118.277l-.08.04a.696.696 0 0 1-.039.263 4.197 4.197 0 0 0-.145.04.994.994 0 0 1-.04.118.48.48 0 0 0-.158 0 2.184 2.184 0 0 1-.04.159c-.07.026-.153.105-.25.237a1.027 1.027 0 0 0-.04.396c.027.202.031.356.014.461 0 .01-.013.053-.04.132a.628.628 0 0 0-.04.172c0 .008.018.052.053.132.035.07.044.132.027.184a.889.889 0 0 0-.119.159c.088.123.158.184.211.184.044 0 .119-.061.224-.184.097.026.15.04.158.04.018.228.031.329.04.303-.053.087-.105.18-.158.277.07.087.145.175.224.263l.04.198c.202-.088.369-.132.5-.132.097 0 .19.018.278.053.061.026.114.084.158.171.079.141.119.216.119.225.14.123.276.25.408.382.185.176.255.36.211.554a.874.874 0 0 0-.145.159.873.873 0 0 1-.119.184h-.118c-.088.053-.22.106-.396.159a3.332 3.332 0 0 0-.422 0v.079c-.096.035-.202.074-.316.118a.745.745 0 0 1-.303.04c-.08-.035-.172-.075-.277-.119-.335-.07-.607-.084-.818-.04l-.08.08c.027-.009-.078-.022-.316-.04.044 0-.083.013-.382.04-.22-.018-.532-.031-.936-.04-.01 0-.062.013-.158.04a.927.927 0 0 1-.159.04.449.449 0 0 1-.184-.093.753.753 0 0 0-.12-.106l-.395-.079a14.994 14.994 0 0 1-.04-.079c-.175.027-.294.027-.355 0a2.428 2.428 0 0 1-.225-.224.897.897 0 0 1-.118-.04 1.08 1.08 0 0 0-.04-.237 5.02 5.02 0 0 1 .396-.475c.053-.018.14-.053.264-.105.026-.044.052-.084.079-.12a.427.427 0 0 1 .303.04.639.639 0 0 0 .33.04v-.04c.079-.061.167-.127.264-.197.166 0 .4-.027.698-.08l.04-.079a.44.44 0 0 0 .158-.079.488.488 0 0 0 .066-.237c0-.053-.013-.145-.04-.277-.026-.132-.035-.246-.026-.343 0-.009.018-.084.053-.224.026-.115.035-.207.026-.277a.674.674 0 0 0-.052-.12c-.027-.07-.036-.136-.027-.197h.04c.035-.123.114-.277.237-.462-.018-.008-.03-.048-.04-.118-.008-.027.005-.053.04-.08-.026-.07-.026-.11 0-.118a2.95 2.95 0 0 1-.198-.383.272.272 0 0 0 0-.118 1.438 1.438 0 0 0-.118-.08c-.01-.052.008-.1.052-.145a.362.362 0 0 0 .066-.092 1.263 1.263 0 0 1 0-.264l.119-.316c.017-.01.044-.022.08-.04-.019-.15-.032-.202-.04-.158v-.08a.885.885 0 0 1-.198-.079c.026-.175.04-.25.04-.224 0-.07-.053-.123-.159-.158a.466.466 0 0 0-.185-.04.996.996 0 0 0-.276.053 2.95 2.95 0 0 1-.238.066c-.21.027-.418 0-.62-.079l-.04-.08c-.122.036-.316.036-.58 0-.087-.034-.153-.14-.197-.316a.746.746 0 0 1-.04-.237c0-.114.08-.343.238-.686.536.018.843.018.923 0a1.29 1.29 0 0 1 .197-.158.264.264 0 0 1 .211.04l.106.078c.105.01.246 0 .422-.026s.307-.03.395-.013c.123.035.304.083.541.145v.08c.053 0 .132.012.238.039a.55.55 0 0 0 .197.158c.123-.009.304-.009.541 0 .009 0 .075.018.198.053a.563.563 0 0 0 .224.026c.105-.07.25-.163.435-.277a.265.265 0 0 0 .119 0c.061-.044.136-.092.224-.145.096.009.242.009.435 0l.04-.08c.079-.034.184-.074.316-.118ZM49.59 7.843c.027.009.04.031.04.066a.202.202 0 0 0-.04.053c-.026-.053-.026-.092 0-.119Zm6.975-4.392c-.052 0 .035.013.264.04.299-.036.734-.036 1.306 0 .035.034.083.07.145.105.114-.009.276-.009.487 0 .062.08.172.167.33.264a.578.578 0 0 0 .119-.08c.035 0 .061.014.079.04a.53.53 0 0 1 .066.08.398.398 0 0 0 .145 0l.04-.12c.079.018.166.071.263.159a.212.212 0 0 0 0 .105h.066V3.94c.07-.044.145-.097.224-.158.14-.036.242-.036.304 0v.079c.052.07.114.171.184.303a1.146 1.146 0 0 0 0 .25l.08.04c-.027.044-.04.145-.04.304.035.052.07.114.105.184a1.376 1.376 0 0 0-.026.33c.017.044.04.097.066.158h.079a.304.304 0 0 1-.04.225c-.035.079-.048.14-.04.184l.225.29a3.64 3.64 0 0 0-.264.225c0 .052-.009.127-.026.224a.79.79 0 0 0-.158.145.643.643 0 0 1 0 .185c.017.017.026.044.026.079s.026.057.08.066c.052 0 .078.004.078.013a.87.87 0 0 0 .159.145.965.965 0 0 0 .25-.04c.062-.061.062-.083 0-.066.026-.044.053-.057.08-.04v.106c.008 0 .021.053.039.159a3.138 3.138 0 0 0-.37-.04.496.496 0 0 1-.079.145v.04c.062.035.163.097.304.184-.062.23-.088.365-.08.41.027.008.062.021.106.039l.04.185h.04a.724.724 0 0 0-.04.224l.263.264c-.052.15-.083.228-.092.237 0 .009-.057.053-.171.132l.079.37-.066.065c-.036.035-.053.062-.053.08v.039a1.189 1.189 0 0 0-.145.04c0 .052-.013.14-.04.263a1.385 1.385 0 0 0-.29.251v.08h-.079a.304.304 0 0 1-.04.118c-.061.018-.149.053-.263.105a1.445 1.445 0 0 1-.33.33 5.771 5.771 0 0 0-.554.08c-.096.07-.21.144-.342.223h-.475l-.04-.105a10.3 10.3 0 0 0-.712-.04 5.376 5.376 0 0 1-.778-.04c-.035-.008-.136-.11-.303-.303a2.656 2.656 0 0 1-.633-.066 2.562 2.562 0 0 0-.106-.303h-.184c-.062.07-.163.172-.303.303a.624.624 0 0 0-.145.066c0 .036-.04.088-.12.159-.087.035-.157.044-.21.026-.062-.018-.136-.14-.224-.37a2.818 2.818 0 0 0-.08-.184.59.59 0 0 1-.105-.105c-.026-.062-.022-.211.013-.449.035-.237.066-.374.093-.409l.079-.079-.08-.185c-.167-.413-.25-.76-.25-1.042 0-.079.009-.14.026-.184.088-.246.268-.37.541-.37.061 0 .119.01.171.027.018.017.066.092.146.224h.224c.122.07.149.097.079.08v.039c-.062 0-.062.013 0 .04.008.07.017.118.026.144l-.026.106c.088.061.184.127.29.198a.578.578 0 0 1 .184-.04v-.119l.08-.04c.017-.087-.018-.192-.106-.316l-.119-.198a.946.946 0 0 0 0-.224.687.687 0 0 1-.118-.079.593.593 0 0 0-.027-.224 2.367 2.367 0 0 1-.158-.106.793.793 0 0 1-.37.145.4.4 0 0 0 0-.145 1.81 1.81 0 0 1-.184-.184.923.923 0 0 0-.04-.225 2.032 2.032 0 0 1-.105-.145 1.723 1.723 0 0 0-.04-.527.555.555 0 0 1-.224-.106c-.017-.035-.03-.198-.04-.488-.017-.281-.017-.444 0-.488.08-.061.168-.136.265-.224l-.04-.145c.07-.062.176-.128.317-.198a.895.895 0 0 0 .171-.026v-.106a.174.174 0 0 1 .066-.08l.409-.039a3.46 3.46 0 0 1 .118-.369c.018-.026.101-.07.251-.132.15-.061.25-.092.303-.092Zm0 1.187c-.088.018-.18.097-.277.237-.105.167-.184.264-.237.29h-.04v.066a3.796 3.796 0 0 1-.224.12c.018.122.03.17.04.144a2.616 2.616 0 0 0 0 .528.736.736 0 0 1 .184-.04v-.079c.044-.009.172 0 .383.027.21.017.33.035.356.052.026.053.066.115.119.185.026.018.14.08.342.185.211.096.33.145.357.145.166.026.443.004.83-.066a.833.833 0 0 1 .093-.053c.043-.026.083-.035.118-.026l.119.079c.167.035.303.022.409-.04a.68.68 0 0 1 .079-.118h.29c.017-.062.044-.172.08-.33a4.158 4.158 0 0 1-.344-.224 1.165 1.165 0 0 0-.184-.225h-.027c-.026-.07-.026-.206 0-.409a9.575 9.575 0 0 1-.303-.04l-.04-.065c-.044.018-.132.03-.263.04l-.145-.08c-.106.027-.277.04-.515.04a1.45 1.45 0 0 0-.264-.224c-.061-.027-.22-.053-.474-.08-.246-.035-.4-.048-.462-.04Zm2.084 3.166c-.018.044-.04.092-.066.145a.143.143 0 0 1 .026.118c-.062.053-.11.154-.145.304-.061.008-.15.008-.264 0a2.486 2.486 0 0 0-.105-.159.213.213 0 0 1-.105 0 2.514 2.514 0 0 0-.04-.105c-.097-.088-.286-.15-.567-.185a1.3 1.3 0 0 0-.185.41c-.07 0-.193.012-.369.039a.71.71 0 0 0-.08-.119.213.213 0 0 1-.105 0c.01.035-.004.075-.04.119-.017.132-.004.193.04.184l.04.251.185.08.04.078h-.16c.027.053.067.15.12.29h.224c.184.062.334.137.448.225.018.035.04.074.066.118a.502.502 0 0 0 .25-.013.973.973 0 0 1 .251-.053c.044 0 .088.01.132.027a.853.853 0 0 0 .119.185c.044.017.105.044.184.079a1.3 1.3 0 0 1 .277-.422c.114-.115.233-.225.356-.33v-.106a.838.838 0 0 1-.145-.158c-.017-.061-.009-.171.027-.33l.052-.052c.027-.027.035-.058.027-.093-.036 0-.08-.022-.132-.066a.344.344 0 0 0-.013-.158.235.235 0 0 1-.119-.04.308.308 0 0 0-.04-.184 1.944 1.944 0 0 0-.184-.08Zm-.884.778h.185l.04.158c-.036.018-.075.04-.12.066h-.184l-.079-.105.119-.08.04-.04Z"/></svg>