<svg xmlns="http://www.w3.org/2000/svg" width="35" height="12" fill="none"><path fill="#fff" d="M3.863.575c.105 0 .259.058.461.172.202.105.339.163.409.171.246.027.422.027.527 0A.668.668 0 0 1 5.42.76c.052-.009.215-.004.488.013.28.009.443.018.487.027.23.052.357.127.383.224-.018.07-.031.15-.04.237.027.009.053.031.08.066H7c0 .018.026.031.08.04v.224a3.872 3.872 0 0 0-.423.08c-.105.078-.268.166-.488.263-.176 0-.44.013-.79.04l-.12.079a7.168 7.168 0 0 0-.606.079v.066a1.903 1.903 0 0 0-.106.118c.018.036.031.11.04.225-.027.017-.053.057-.08.118.062.018.124.04.185.066a.745.745 0 0 0 0 .198 2.18 2.18 0 0 0-.369.264c.08.176.114.303.106.383-.035.114-.049.189-.04.224l.237.224a2.44 2.44 0 0 0-.04.145l-.157.08c-.062.14-.062.329 0 .566a.862.862 0 0 1 .158.185c0 .044-.027.106-.08.185l-.078.118c.008.062.008.15 0 .264.052 0 .127.013.224.04.105.061.246.264.422.607a8.46 8.46 0 0 1-.343.197v.106c.044.026.097.066.158.119.018.061.04.312.066.752h-.066v.079l-.237.184a.756.756 0 0 1 .118.119c-.008.088.005.224.04.409l.08.04a.918.918 0 0 1 .144.606c.009 0 .022-.026.04-.079.07.018.171.031.303.04a5.358 5.358 0 0 0-.04.263c-.22.036-.33.08-.33.132 0 .035.036.093.106.172a.482.482 0 0 1 .145.079.762.762 0 0 0 .08.224h.118c.044.062.106.128.185.198a6.42 6.42 0 0 0 .264-.04l.04-.079c.008 0 .034.014.078.04l.066.04c.035 0 .176-.027.422-.08.15 0 .365-.026.646-.079.027-.053.093-.105.198-.158.035 0 .08-.009.132-.026.026-.088.066-.216.119-.383.087-.009.215-.035.382-.08a.946.946 0 0 0 0-.223 1.152 1.152 0 0 1-.119-.106v-.079c.01 0 .022-.04.04-.119.088-.308.127-.496.119-.567a4.541 4.541 0 0 1-.08-.198.703.703 0 0 1-.04-.29l.04-.105a.36.36 0 0 0 .04-.198 2.858 2.858 0 0 0-.158-.145l.158-.08v-.079a.417.417 0 0 0 .106-.079 4.465 4.465 0 0 1 0-.488c.044-.026.096-.061.158-.105.14-.115.264-.172.369-.172.14 0 .295.119.462.356.07.106.105.176.105.211-.026.08-.048.159-.066.238-.053.061-.066.088-.04.079.018 0 .045.048.08.145a2.739 2.739 0 0 0 0 .383c0 .008.022.052.066.131.044.08.057.15.04.211a1.116 1.116 0 0 0-.146.146.225.225 0 0 0 .027.145.42.42 0 0 1 .04.092c.008.018 0 .167-.027.448a.485.485 0 0 1 .026.12l-.066.026c-.044.07-.057.184-.04.342.036.088.071.19.106.304a1.542 1.542 0 0 0-.026.198c.035.07.07.158.105.264v.224a.983.983 0 0 0-.184.105 1.31 1.31 0 0 1-.04.383l-.791.461a.933.933 0 0 1-.37-.026 4.953 4.953 0 0 0-.316-.053 3.13 3.13 0 0 0-.607.04l-.145.066c-.15.026-.369.03-.659.013a3.574 3.574 0 0 0-.672-.013 2.325 2.325 0 0 1-.41.118.65.65 0 0 1-.157-.039.725.725 0 0 0-.146-.04c-.369.027-.923.04-1.661.04-.062 0-.211-.013-.448-.04a4.976 4.976 0 0 0-.462-.04c-.07 0-.185.027-.343.08a1.485 1.485 0 0 1-.369.066.495.495 0 0 1-.158-.027l-.08-.079a.213.213 0 0 1-.105 0c-.018-.008-.057-.096-.119-.263a.795.795 0 0 1 .04-.647h.08a.7.7 0 0 1 .065-.105c.053.017.132.03.237.04.018-.036.04-.075.066-.12.07-.043.225-.057.462-.039.255.018.356.03.303.04.044-.01.158-.044.343-.106l.026-.08c.15-.043.295-.087.436-.131.175-.061.272-.145.29-.25.008-.036-.009-.088-.053-.159a5.347 5.347 0 0 0-.066-.145c0-.026-.013-.101-.04-.224.036-.018.062-.119.08-.304-.01 0-.036-.105-.08-.316-.035-.211-.044-.343-.026-.396.035-.044.07-.097.106-.158a.734.734 0 0 0-.014-.303l-.066-.264a1.603 1.603 0 0 1 .04-.436c.053-.228.08-.347.08-.356a2.264 2.264 0 0 0-.014-.409 4.293 4.293 0 0 1-.066-.356c.018-.15.018-.374 0-.672a1.156 1.156 0 0 1-.066-.12c.026-.105.048-.228.066-.368l-.066-.12a.889.889 0 0 1 .026-.29c.027-.123.04-.189.04-.197.044-.405.022-.76-.066-1.069a1.19 1.19 0 0 1-.119-.145 23.173 23.173 0 0 0-.118-.448 4.945 4.945 0 0 0-.185-.04.756.756 0 0 0-.119-.118.787.787 0 0 0-.25-.04c-.07 0-.202.022-.396.066a1.742 1.742 0 0 1-.488.053c-.079-.009-.242-.062-.488-.159l-.04-.066a.805.805 0 0 1-.223-.118.272.272 0 0 0 0-.119c0 .018-.009.013-.027-.013a.221.221 0 0 1-.013-.053.58.58 0 0 1 .158-.422c.115-.132.304-.207.567-.224.308.035.66.061 1.055.079v-.08c.018-.052.093-.105.225-.158.096-.026.241-.03.435-.013.193.009.338.005.435-.013l.04-.08a.856.856 0 0 1 .224-.039Zm8.62 2.704c.008-.008.255 0 .738.027a8.94 8.94 0 0 1 .37-.027c.096.044.22.093.369.145a.968.968 0 0 1 .33-.118c.096.008.193.066.29.171.096.106.149.163.158.172a.44.44 0 0 0 .197.04c.115.008.198.017.25.026.027.035.063.074.106.118a.213.213 0 0 1 .106 0c.044.027.079.088.105.185.036.088.066.154.093.198.035.035.118.075.25.119.132.035.22.079.264.131.044.045.083.137.119.277.044.132.079.22.105.264.07.062.154.15.25.264a.485.485 0 0 0-.039.119c.123.114.198.224.224.33v.224h.08a.171.171 0 0 0-.04.066c.009.008.035.048.079.118.062.431.062.726 0 .884-.044.035-.083.07-.119.106a.89.89 0 0 0 .027.29c.035.114.052.18.052.198-.026.097-.052.22-.079.37.044.06.058.11.04.144-.07.018-.145.08-.224.185-.01.088.022.206.092.356s.101.268.092.356c0 .062-.035.132-.105.211a4.795 4.795 0 0 1-.145.185 2.413 2.413 0 0 1-.185.448c-.07.035-.171.097-.303.185a.413.413 0 0 0-.04.119h-.066a2.47 2.47 0 0 0-.04.145.637.637 0 0 0-.144.066.914.914 0 0 1-.04.118 1.9 1.9 0 0 0-.264.066c-.017.035-.04.075-.066.12a3.137 3.137 0 0 0-.408 0c-.07.034-.185.083-.343.144l-.027.08a3.77 3.77 0 0 0-.263.039 7.17 7.17 0 0 1-.185.105h-.184c-.739.106-1.148.154-1.227.146a8.357 8.357 0 0 0-.593-.225 1.186 1.186 0 0 1-.25 0 1.094 1.094 0 0 0-.146-.145 1.904 1.904 0 0 1-.527-.184 3.878 3.878 0 0 0-.185-.264 2.02 2.02 0 0 1-.409-.211 3.276 3.276 0 0 0-.105-.37c-.123-.202-.26-.514-.41-.936a3.06 3.06 0 0 0 .08-.435 8.168 8.168 0 0 1-.158-.343c.018-.097.03-.242.04-.436a2.921 2.921 0 0 1-.067-.263.973.973 0 0 1 .027-.106 1.43 1.43 0 0 0-.027-.185c.027-.158.036-.246.027-.263 0-.036-.03-.093-.093-.172a.387.387 0 0 1-.092-.237c.01-.167.07-.339.185-.515l.079-.04a.648.648 0 0 0 0-.263v-.106c.026-.114.075-.277.145-.488a.935.935 0 0 1 .409-.395v-.04h.079c.035-.123.11-.299.224-.528.035-.008.097-.03.185-.066.035-.079.105-.18.21-.303a.77.77 0 0 0 .185-.026 2.83 2.83 0 0 1 .264-.225 2.06 2.06 0 0 1 .673-.145Zm1.292 1.623a6.069 6.069 0 0 1-.119.448.903.903 0 0 1-.145.04 4.226 4.226 0 0 1-.382-.08 1.86 1.86 0 0 0-.435-.065c-.07 0-.141.008-.211.026a4.377 4.377 0 0 1-.37.224.479.479 0 0 0-.158 0v.08a2.82 2.82 0 0 1-.33.33 1.366 1.366 0 0 0-.184.039c-.027.035-.03.097-.013.184.009.088.013.137.013.146a.405.405 0 0 0-.132.092c-.035.044-.053.132-.053.264v.237a1.101 1.101 0 0 0-.145.145c.035.035.097.084.185.145-.14.414-.19.686-.145.818.009.044.061.088.158.132a.79.79 0 0 1 .171.092c.07.159.159.33.264.515.053.035.154.048.303.04a.911.911 0 0 1 .317 0c.123.096.21.17.264.224a.217.217 0 0 0 0 .105c.044.009.118.022.224.04.176.079.422.167.738.263.053-.017.141-.03.264-.04l.29.146c.044-.07.119-.167.224-.29.106-.044.229-.106.37-.185v-.119c.043-.008.065-.04.065-.092a1.3 1.3 0 0 0-.026-.158.376.376 0 0 1 0-.198c.08-.044.163-.114.25-.211v-.37a.274.274 0 0 0 .12-.079c0-.017-.014-.044-.04-.079a.398.398 0 0 1-.145 0 .2.2 0 0 1-.145-.132 2.304 2.304 0 0 1-.04-.237c.009 0 .018-.022.026-.066.053 0 .141-.013.264-.04a2.76 2.76 0 0 0-.04-.554 6.122 6.122 0 0 0-.25-.184.32.32 0 0 1 .026-.25.574.574 0 0 0 .08-.16c0-.017-.022-.1-.066-.25-.036-.158-.062-.246-.08-.264a1.474 1.474 0 0 1-.184-.079.792.792 0 0 0-.119-.224 2.249 2.249 0 0 1-.395-.105.913.913 0 0 0-.04-.12 1.768 1.768 0 0 1-.224-.144Zm10.811-1.49c.08.026.167.052.264.078a.23.23 0 0 0 .092-.04c.053-.034.097-.047.132-.039.009 0 .022.013.04.04.017.026.043.04.079.04l.066-.08c.061-.017.22-.008.474.027.255.035.41.061.462.079a.448.448 0 0 1 .237.237.463.463 0 0 0 0 .224.223.223 0 0 0 .106.093c.096.026.15.044.158.053a1.9 1.9 0 0 0 0 .448 8.638 8.638 0 0 0-.607.185 1.211 1.211 0 0 1-.145.118 3.086 3.086 0 0 0-.421-.04c-.132.01-.357.11-.673.304.009.044.022.119.04.224a.266.266 0 0 1 0 .12v.105a.627.627 0 0 0-.159.079.42.42 0 0 1-.066.145h-.118c-.062.15-.036.462.079.936l-.04.04-.079.04v.145c-.062 0-.15.013-.264.04l-.184.303a.913.913 0 0 0 .04.118c.07.009.144.022.224.04.026.097.039.25.039.462.009.246-.004.404-.04.474l-.263.304h-.08a.9.9 0 0 1 0 .224l-.184.264c.07.14.07.351 0 .633-.29.018-.48.044-.567.079 0 .018-.022.04-.066.066a2.71 2.71 0 0 0-.158.422c0 .088.052.198.158.33a.43.43 0 0 0-.08.158c-.263-.035-.474 0-.632.106a1.657 1.657 0 0 1-.198.145c-.07.053-.167.07-.29.053a5.438 5.438 0 0 1-.198-.12.921.921 0 0 1-.224-.039l-.066-.079a2.254 2.254 0 0 1-.264-.29l-.04-.343a26.487 26.487 0 0 1-.118-.119.946.946 0 0 0 0-.224 1.446 1.446 0 0 1-.224-.264.796.796 0 0 1 .08-.593c0-.044.012-.058.039-.04a.313.313 0 0 1-.08-.08V8.86a3.97 3.97 0 0 1-.184-.41v-.157a4.492 4.492 0 0 1-.383-.37 6.024 6.024 0 0 1-.145-.382h-.04a2.238 2.238 0 0 0 0-.488 8.244 8.244 0 0 1-.342-.37c0-.07-.009-.171-.026-.303a4.869 4.869 0 0 1-.264-.712.48.48 0 0 1 0-.224.327.327 0 0 0-.053-.146c-.035-.07-.171-.158-.409-.263-.237-.115-.408-.18-.514-.198-.123.017-.299.017-.527 0a.324.324 0 0 1-.185-.158 2.42 2.42 0 0 0-.119-.212l-.158-.079c.088-.387.215-.624.383-.712h.145c.07-.035.158-.075.263-.119.132-.017.484-.004 1.055.04.15-.018.339-.03.567-.04a.919.919 0 0 0 .106.12.84.84 0 0 0 .237-.054.84.84 0 0 1 .224-.066c.15-.008.37.027.66.106.29.07.483.14.58.21a.57.57 0 0 1 .224.291c.061.026.07.04.026.04-.017 0-.035.035-.052.105-.018.07-.036.11-.053.119a.946.946 0 0 0-.224 0 .477.477 0 0 1-.119.105.632.632 0 0 0-.185.04c-.052.106-.114.22-.184.343-.044-.026-.07-.013-.08.04v.065l.225.04v.158a.926.926 0 0 0-.567.106c.017.07.03.171.04.303.043.009.11.035.197.08-.026.158-.04.232-.04.224v.224c.141 0 .304.026.488.079l.066.29c.053.08.141.123.264.132.132.009.215.035.25.08.036.043.08.113.133.21.088-.017.21-.044.369-.079a.78.78 0 0 1 .119-.145.524.524 0 0 1 .145-.04.733.733 0 0 0 0-.197.686.686 0 0 1-.185-.106.643.643 0 0 0 0-.185c.29.018.501-.008.633-.079l.04-.145c-.01 0-.023-.026-.04-.079-.009.009-.018-.018-.026-.08.052-.026.14-.074.263-.144l-.04-.158c-.14.035-.206.052-.197.052-.009 0-.03-.079-.066-.237.044 0 .119-.013.224-.04a6.006 6.006 0 0 0-.158-.369 6.322 6.322 0 0 1-.673-.185.907.907 0 0 0-.079-.198 2.13 2.13 0 0 1-.184-.263.292.292 0 0 1 .04-.106c.008-.281-.018-.483-.08-.607.07.01.158.01.264 0 .009 0 .026-.008.053-.026.026-.026.048-.04.066-.04.008 0 .052.018.131.053a.64.64 0 0 0 .172.053l.066-.08c.088-.017.224-.012.409.014.193.018.334.013.421-.013l.08-.066c.07-.009.149.004.237.04a.714.714 0 0 0 .211.052.127.127 0 0 0 .092-.04c.035-.026.08-.057.132-.092Zm-2.44 1.318c.044 0 .067.027.067.08a.234.234 0 0 0-.066.065c-.036 0-.058-.026-.066-.079l.066-.066Zm-.751.449c.061.061.061.083 0 .066-.018-.027-.018-.049 0-.066Zm1.503.04c.132 0 .198.026.198.078-.009.018-.04.027-.092.027-.018 0-.036.009-.053.026-.009.018-.026.022-.053.013-.096-.061-.11-.087-.04-.079.018-.044.031-.066.04-.066ZM21.54 6.972l-.04.118.198.08v.065c.009 0 .018-.004.027-.013a.158.158 0 0 0 .04-.026.602.602 0 0 1 .039-.066v-.119a1.7 1.7 0 0 1-.264-.04Zm.567 0c-.097.026-.145.105-.145.237 0 .15.096.185.29.106a1.89 1.89 0 0 1 .066-.093.502.502 0 0 1 .132-.092l-.158-.106a.232.232 0 0 0-.185-.052Zm1.846 2.822c.018 0 .03.009.04.027-.01.008-.022.013-.04.013-.026 0-.04-.005-.04-.013 0-.018.014-.027.04-.027Zm-.158.488c.053.044.08.08.08.106 0 .026-.023.057-.067.092a.493.493 0 0 0-.092.066c-.062-.009-.092-.03-.092-.066 0-.026.056-.092.171-.198Zm7.204-7.426h.528c.087.044.197.097.33.159.079 0 .202.017.369.052.061.044.14.097.237.159.123 0 .303.04.54.118.045.035.093.115.146.238.052.114.096.184.132.21.096.054.232.137.408.251.158.141.295.33.41.568.026.14.083.347.17.62a.753.753 0 0 1 .12.118 1.54 1.54 0 0 0-.04.41c0 .008.022.06.066.157.044.097.061.18.052.251h-.04a2.87 2.87 0 0 1-.078.409l-.08.04c-.026.079-.057.162-.092.25-.026.08-.07.123-.132.132-.061 0-.153.009-.277.026a4.745 4.745 0 0 0-.197.12.535.535 0 0 1-.29.105.494.494 0 0 1-.12-.014 1.298 1.298 0 0 0-.157-.21.558.558 0 0 1-.172 0c-.184.149-.33.224-.435.224a.782.782 0 0 1-.264-.053 7.044 7.044 0 0 1-.118-.132 1.477 1.477 0 0 1-.37.08c-.008 0-.057-.014-.145-.04a.45.45 0 0 0-.224-.04l-.04.08a7.48 7.48 0 0 0-.408.052v.04a1.225 1.225 0 0 1-.409-.04.142.142 0 0 1-.026-.053c-.01-.026-.027-.04-.053-.04-.044.01-.097.045-.158.106a.462.462 0 0 1-.132.106c-.035.008-.088 0-.159-.027a.672.672 0 0 0-.118-.053c-.238-.035-.594.018-1.068.159 0 .316.052.562.158.738l.132.08c.008.044-.035.153-.132.33.026.017.158.18.396.487.184.246.311.37.382.37.07 0 .167.013.29.04l.211.25a.272.272 0 0 0 0 .119c.053.026.145.03.277.013a1.21 1.21 0 0 1 .29-.013c.053.008.145.044.277.105a.837.837 0 0 0 .343.092.566.566 0 0 0 .198-.04 1.3 1.3 0 0 1 .158-.157c.079-.01.189-.036.33-.08v-.132a.516.516 0 0 0 .171-.04c0-.034.013-.074.04-.118.105-.044.255-.14.448-.29.053-.106.163-.242.33-.409a.469.469 0 0 0 .158 0c.061-.018.224-.123.488-.316l.079-.132c.079.008.189.008.33 0 0 .017.026.044.079.079l-.04.58c-.044.14-.097.33-.158.567a.56.56 0 0 1 0 .172c-.158.15-.352.338-.58.567a2.685 2.685 0 0 1-.145.185.307.307 0 0 1-.211.105c-.08 0-.203.013-.37.04-.07.079-.18.176-.33.29-.105 0-.28.013-.527.04-.053 0-.176.035-.369.105a.887.887 0 0 1-.409.053 6.119 6.119 0 0 1-.171-.119 2.234 2.234 0 0 0-.383-.053c-.14-.017-.242-.057-.303-.118a1.601 1.601 0 0 0-.053-.159c-.017-.035-.1-.096-.25-.184a2.01 2.01 0 0 0-.33-.185c-.061-.026-.154-.035-.277-.026a.856.856 0 0 1-.277-.014 1.998 1.998 0 0 0-.171-.21 1.296 1.296 0 0 1-.277-.12 7.926 7.926 0 0 0-.25-.448 6.603 6.603 0 0 1-.489-.527.719.719 0 0 1-.092-.264 1.256 1.256 0 0 0-.092-.304 1.272 1.272 0 0 0-.106-.171 3.773 3.773 0 0 0 0-.449l-.079-.118c.027-.097.04-.264.04-.501-.035-.07-.049-.124-.04-.159.009-.053.066-.114.172-.184.114-.07.18-.132.197-.185a.276.276 0 0 0-.04-.25 5.7 5.7 0 0 1-.118-.199c-.026-.07-.035-.241-.026-.514.009-.272.03-.457.066-.554a.71.71 0 0 0 .118-.08c0-.043.014-.096.04-.157h.08c.017-.088.056-.211.118-.37a1.51 1.51 0 0 0 .25-.21c.01-.054.035-.133.08-.238.026-.035.175-.172.448-.41a.629.629 0 0 0 .171-.039c.044-.061.11-.132.198-.21.088 0 .224-.027.409-.08l.33-.25a.465.465 0 0 1 .21.026c.08.026.146.035.198.026.044-.052.11-.11.198-.171.114-.027.281-.04.501-.04Zm0 .818c-.017 0-.114.04-.29.119-.176.07-.272.114-.29.132a.804.804 0 0 1-.198.316c-.035.018-.119.005-.25-.04-.176-.017-.326.067-.449.251.018.044.044.097.08.159.008-.027.021.044.039.21-.018-.008-.044.005-.08.04-.404 0-.637.027-.698.08a.48.48 0 0 1 0 .158c-.044.087-.097.197-.158.33 0 .087-.027.224-.08.408h-.078a6.666 6.666 0 0 1-.093.25h-.079a.62.62 0 0 0-.013.12c0 .167.132.25.396.25.123 0 .325-.022.606-.066.281-.053.475-.079.58-.079.062 0 .11.005.145.013.062.053.132.11.211.172-.026.017-.022.03.014.04h.065v-.08c.018-.017.018-.061 0-.132.08 0 .216-.013.41-.04.307-.043.786-.11 1.437-.197a.757.757 0 0 0 .118-.119c0-.009-.013-.053-.04-.132.168-.114.414-.167.74-.158-.027-.22-.058-.365-.093-.435a.775.775 0 0 0-.237-.264.556.556 0 0 1-.172-.08c0-.07-.013-.18-.04-.329a5.237 5.237 0 0 1-.158-.237.333.333 0 0 0 0-.132.272.272 0 0 1-.118 0 .49.49 0 0 0-.093-.119c-.29-.185-.532-.295-.725-.33-.07.009-.167.009-.29 0a.578.578 0 0 0-.119-.079Z"/></svg>