<svg xmlns="http://www.w3.org/2000/svg" width="43" height="12" fill="none"><path fill="#fff" d="M1.652.575c.299-.044.523-.03.673.04a.71.71 0 0 0 .079.119.732.732 0 0 1 .198 0c-.018 0-.014-.005.013-.014A.127.127 0 0 1 2.68.694c.052-.009.145-.004.277.013.14.018.241.027.303.027a1.19 1.19 0 0 1 .198-.04C3.74.72 4.5.734 5.74.734c-.035 0-.009-.014.08-.04.35-.035.628-.022.83.04a.782.782 0 0 0 .119.145c.061.044.171.074.33.092.166.018.28.044.342.08.07.096.176.202.317.316.052.017.114.008.184-.027a.466.466 0 0 1 .132-.052l.422.435v.079a.48.48 0 0 1 .158 0l.04.04v.184c.017.08.123.185.316.317a.435.435 0 0 1-.079.158 7.03 7.03 0 0 1-.356.158v.198c.009.009.101.075.277.198-.088.106-.132.185-.132.238 0 .035.018.061.053.079-.132.088-.202.14-.211.158-.018.105-.04.211-.066.317l-.08.079c-.025.15-.025.356 0 .62l-.263.118c-.079.07-.119.242-.119.515v.277l-.079.04a1.413 1.413 0 0 0-.013.197c0 .062-.026.092-.079.092a.907.907 0 0 0-.185.027c-.035.018-.074.075-.118.171-.035.097-.08.15-.132.159a1.34 1.34 0 0 0-.224.026 7.46 7.46 0 0 0-.198.237c-.07.018-.19.058-.356.12-.07-.027-.202-.027-.396 0a1.21 1.21 0 0 1-.118.157.306.306 0 0 1-.172-.026.326.326 0 0 0-.145-.053 5.07 5.07 0 0 1-.277.159c-.079.017-.198.013-.356-.014a6.1 6.1 0 0 0-.382-.026.607.607 0 0 0-.238.04 1.213 1.213 0 0 1-.118.158c.114.229.127.409.04.54a.71.71 0 0 0-.12.08.272.272 0 0 1 0 .118.62.62 0 0 0-.158.12c0 .008.013.021.04.039-.062.281-.088.44-.08.475a.918.918 0 0 1 .12.04c.017.017.026.043.026.078s.004.062.013.08c-.044.06-.11.127-.198.197a.731.731 0 0 0-.198 0c0-.008-.013.044-.04.159.01 0 .023.026.04.079.07-.009.19-.022.356-.04.062.106.128.264.198.475-.026.044-.04.136-.04.277a.71.71 0 0 1 .12.08v.078c.087.044.219.093.395.145h.277l.079.08h.08v-.08l.157-.079c.044-.017.119-.004.225.04.017.044.079.092.184.145a.404.404 0 0 1 .172.013v.08c.07.202.07.36 0 .474a.71.71 0 0 0-.12.08c0 .034-.012.07-.039.105a.089.089 0 0 1-.079.04.251.251 0 0 0-.079.013.655.655 0 0 1-.158.158 3.983 3.983 0 0 0-.462 0l-.079.079a1.69 1.69 0 0 1-.751.04 2.966 2.966 0 0 0-.198-.12 3.702 3.702 0 0 0-.475-.078.521.521 0 0 0-.224.066.64.64 0 0 1-.172.052 4.758 4.758 0 0 0-.5-.04l-.04.08a6.707 6.707 0 0 0-.857 0 4.904 4.904 0 0 1-.884-.04l-.158-.079c-.097.009-.229-.018-.396-.079a60.848 60.848 0 0 0-.04-.158 1.267 1.267 0 0 1-.039-.238c.018-.079.07-.14.158-.184.097-.044.19-.088.277-.132a.578.578 0 0 1 .198-.159c.132.01.33-.004.594-.039.114-.07.259-.145.435-.224h.514c.044-.106.097-.238.158-.396v-.317l-.079-.04a.273.273 0 0 1 .026-.157l.053-.12a6.128 6.128 0 0 1-.04-.553c0-.009.005-.026.014-.053a.233.233 0 0 0 .026-.105l-.079-.12c-.035-.263-.035-.474 0-.632l.08-.106a.886.886 0 0 1-.04-.316.969.969 0 0 0 .118-.277 2.52 2.52 0 0 0-.04-.304 3.47 3.47 0 0 1-.039-.29c.027-.132.04-.343.04-.633a.836.836 0 0 1-.119-.198 1.214 1.214 0 0 1-.04-.475l.08-.184a4.204 4.204 0 0 1-.04-.673c.026-.132.04-.211.04-.237a1.358 1.358 0 0 1-.159-.159.178.178 0 0 1 .04-.145.475.475 0 0 0 .08-.092c0-.053-.023-.15-.067-.29a2.06 2.06 0 0 1-.053-.264.715.715 0 0 1 .04-.317l.08-.04c0-.026-.027-.131-.08-.316a.393.393 0 0 1-.198.04.781.781 0 0 0-.119-.145 3.53 3.53 0 0 1-.435-.04l-.04-.08c-.07-.025-.175-.065-.316-.118v-.04a.63.63 0 0 0-.198-.026c-.193 0-.443.049-.751.145l-.198-.079.119-.356.079-.04C.514 1.2.5 1.134.465 1.011.562.967.694.927.861.89c.07 0 .189.027.356.08.132-.237.277-.37.435-.396Zm3.587 1.03c-.062.087-.154.215-.277.382a.266.266 0 0 1-.119 0 .46.46 0 0 1-.079-.119h-.198v.08a1.327 1.327 0 0 0-.158.078c.053.088.106.22.158.396.027 0 .066.013.119.04h-.119a.71.71 0 0 1-.079.118 1.095 1.095 0 0 1-.237.04c.15.018.347.07.593.158 0 .044.013.097.04.158l-.04.12a.54.54 0 0 0-.198.118c.01.079.01.198 0 .356l-.079.08c.018.025.005.052-.04.078.098.08.146.14.146.185 0 .018-.009.035-.027.053a3.873 3.873 0 0 1-.237.395c-.009 0 .005.053.04.159.008-.01.022.013.04.066v.118c0 .009-.067.062-.199.159.097.044.216.123.356.237a.48.48 0 0 0 0 .158.396.396 0 0 0 .198.238.418.418 0 0 0 .211.052c.088 0 .207-.026.356-.079.15-.061.246-.092.29-.092.01 0 .075.026.198.08a.39.39 0 0 0 .211-.04c.088-.044.15-.07.185-.08.105.027.25.027.435 0v-.079l.396-.514c.096.009.241-.005.435-.04.061-.026.092-.105.092-.237 0-.14.009-.229.026-.264a.989.989 0 0 0 .238-.119l-.04-.158c.018 0 .031-.009.04-.026a.203.203 0 0 1 .04-.053 64.77 64.77 0 0 0-.04-.158l-.238-.198-.04-.04c0-.079-.012-.198-.039-.356a2.993 2.993 0 0 1-.237-.237.921.921 0 0 0-.08-.238 1.293 1.293 0 0 1-.276-.118.917.917 0 0 0-.04-.12 1.575 1.575 0 0 1-.277-.078 1.993 1.993 0 0 0-.277-.277.732.732 0 0 1-.197 0l-.04-.08a1.052 1.052 0 0 1-.237 0l-.08-.065h-.197a2.447 2.447 0 0 1-.119-.198 22.184 22.184 0 0 0-.303-.04Zm8.035 1.252h.528c.088.044.198.097.33.159.079 0 .202.017.369.052.061.044.14.097.237.159.123 0 .303.04.54.118.045.035.093.115.146.238.053.114.097.184.132.21.097.054.233.137.409.251.158.141.294.33.408.568.027.14.084.347.172.62a.753.753 0 0 1 .118.118 1.54 1.54 0 0 0-.04.41c0 .008.023.06.067.157.044.097.061.18.052.251h-.039a2.87 2.87 0 0 1-.08.409l-.078.04c-.027.079-.058.162-.093.25-.026.08-.07.123-.132.132-.06 0-.153.009-.276.026a4.733 4.733 0 0 0-.198.12.535.535 0 0 1-.29.105.494.494 0 0 1-.119-.014 1.298 1.298 0 0 0-.158-.21.559.559 0 0 1-.172 0c-.184.149-.33.224-.435.224a.781.781 0 0 1-.264-.053 7.082 7.082 0 0 1-.118-.132 1.477 1.477 0 0 1-.37.08c-.008 0-.057-.014-.145-.04a.45.45 0 0 0-.224-.04l-.04.08a7.48 7.48 0 0 0-.408.052v.04a1.225 1.225 0 0 1-.409-.04.142.142 0 0 1-.026-.053c-.009-.026-.027-.04-.053-.04-.044.01-.097.045-.158.106a.461.461 0 0 1-.132.106c-.035.008-.088 0-.158-.027a.672.672 0 0 0-.119-.053c-.237-.035-.593.018-1.068.159 0 .316.053.562.158.738l.132.08c.009.044-.035.153-.132.33.027.017.158.18.396.487.184.246.312.37.382.37s.167.013.29.04l.211.25a.272.272 0 0 0 0 .118c.053.027.145.031.277.014a1.21 1.21 0 0 1 .29-.014c.053.01.145.045.277.106a.837.837 0 0 0 .343.092.566.566 0 0 0 .198-.04c.035-.043.088-.096.158-.158.08-.008.19-.035.33-.079v-.132a.516.516 0 0 0 .171-.04c0-.034.013-.074.04-.118.105-.044.255-.14.448-.29.053-.106.163-.242.33-.409a.469.469 0 0 0 .158 0c.062-.018.224-.123.488-.316.026-.045.053-.088.08-.132.078.008.188.008.329 0 0 .017.026.044.079.079l-.04.58c-.044.14-.097.33-.158.567a.553.553 0 0 1 0 .172c-.158.15-.351.338-.58.567a2.71 2.71 0 0 1-.145.185.307.307 0 0 1-.211.105c-.08 0-.203.013-.37.04-.07.079-.18.176-.33.29-.105 0-.28.013-.527.04-.052 0-.175.034-.369.105-.158.053-.294.07-.409.053a5.595 5.595 0 0 1-.171-.119 2.238 2.238 0 0 0-.383-.053c-.14-.017-.241-.057-.303-.118a1.594 1.594 0 0 0-.053-.159c-.017-.035-.1-.096-.25-.184a2.002 2.002 0 0 0-.33-.185c-.061-.026-.154-.035-.277-.026a.857.857 0 0 1-.277-.014 1.99 1.99 0 0 0-.171-.21 1.291 1.291 0 0 1-.277-.12 7.99 7.99 0 0 0-.25-.448 6.603 6.603 0 0 1-.488-.527.718.718 0 0 1-.093-.264 1.256 1.256 0 0 0-.092-.304 1.286 1.286 0 0 0-.105-.171 3.773 3.773 0 0 0 0-.449l-.08-.118c.027-.097.04-.264.04-.502-.035-.07-.048-.123-.04-.158.01-.053.066-.114.172-.184.114-.07.18-.132.198-.185a.276.276 0 0 0-.04-.25 5.703 5.703 0 0 1-.119-.199c-.026-.07-.035-.241-.026-.514.009-.272.03-.457.066-.554a.708.708 0 0 0 .119-.08c0-.043.013-.096.04-.157h.078c.018-.088.057-.211.119-.37.07-.044.154-.114.25-.21.01-.054.036-.133.08-.238a6.35 6.35 0 0 1 .448-.41.628.628 0 0 0 .171-.039c.044-.061.11-.132.198-.21.088 0 .224-.027.409-.08.106-.079.216-.163.33-.25a.465.465 0 0 1 .21.026c.08.026.146.035.198.026.045-.052.11-.11.198-.171.114-.027.282-.04.501-.04Zm0 .818c-.017 0-.114.04-.29.119-.176.07-.272.114-.29.132a.804.804 0 0 1-.198.316c-.035.018-.118.005-.25-.04-.176-.017-.325.067-.449.251.018.044.044.097.08.159.008-.027.021.044.04.21-.018-.008-.045.005-.08.04-.404 0-.637.027-.699.08a.48.48 0 0 1 0 .158c-.044.087-.097.197-.158.33 0 .087-.027.224-.08.408h-.078a6.332 6.332 0 0 1-.093.25h-.079a.62.62 0 0 0-.013.12c0 .167.132.25.396.25.123 0 .325-.022.606-.066a3.8 3.8 0 0 1 .58-.079c.062 0 .11.005.146.013.061.053.131.11.21.172-.026.017-.021.03.014.04h.066v-.08c.017-.018.017-.061 0-.132.079 0 .215-.013.408-.04.308-.043.787-.11 1.438-.197a.757.757 0 0 0 .118-.119c0-.009-.013-.053-.04-.132.168-.114.414-.167.74-.158-.027-.22-.058-.365-.093-.435a.774.774 0 0 0-.237-.264.555.555 0 0 1-.172-.08c0-.07-.013-.18-.04-.329a5.238 5.238 0 0 1-.158-.237.33.33 0 0 0 0-.132.272.272 0 0 1-.118 0 .49.49 0 0 0-.092-.12c-.29-.184-.533-.294-.726-.329-.07.009-.167.009-.29 0a.578.578 0 0 0-.119-.079Zm7.696-.963c.017 0 .066.027.145.08a.51.51 0 0 0 .145.065c.132-.035.334-.048.606-.04.08.08.167.154.264.225.053-.044.176-.08.37-.106.114.018.268.093.46.225a.46.46 0 0 0 .106.145c.018.017.031.022.04.013v-.026c0-.027.013-.036.04-.027v.08c.158.087.311.17.461.25.185.105.317.21.396.316.017.018.096.141.237.37-.026.008-.04.03-.04.066 0 .079.035.193.106.343.07.14.127.215.171.224.053.009.145.026.277.053a.78.78 0 0 0 .08.066l-.04.079h-.145c-.106.026-.158.105-.158.237v.33a.42.42 0 0 1-.04.092c-.026.053-.035.097-.026.132 0 .009.013.048.04.119.026.07.034.132.026.185a.459.459 0 0 1-.066.105.313.313 0 0 0-.04.198l.08.066a.92.92 0 0 1 .026.488c0 .035-.035.101-.106.198a.388.388 0 0 0-.079.264.9.9 0 0 0 .092.158c.062.079.093.136.093.171 0 .044-.022.084-.066.12h-.185a1.644 1.644 0 0 0-.013.276l.013.211c.009.026.092.088.25.185a.886.886 0 0 0 .198.145.686.686 0 0 0 .198 0c.106-.018.176-.027.211-.027l.04-.079a.98.98 0 0 1 .21-.026c.22 0 .4.185.541.554.044.088.093.211.145.37-.017.06-.03.127-.04.197a.382.382 0 0 0-.144.106.48.48 0 0 0-.106.118v.145c-.07.053-.158.128-.263.225.044 0 .066.022.066.066 0 .079-.062.206-.185.382-.273-.035-.497-.009-.673.08a.733.733 0 0 1-.21.131c-.088.044-.26.062-.515.053-.264-.009-.435-.03-.514-.066a8.305 8.305 0 0 0-.224-.303c-.062-.062-.176-.124-.343-.185-.08-.035-.14-.048-.185-.04a1.482 1.482 0 0 0-.567.185v.08a4.555 4.555 0 0 1-.184.144.47.47 0 0 0-.159 0l-.04.08a2.742 2.742 0 0 0-.369-.04c-.052.035-.114.07-.184.105a3.984 3.984 0 0 0-.462 0 2.54 2.54 0 0 1-.448.159.516.516 0 0 1-.171-.04.565.565 0 0 0-.132-.04c-.097.018-.233.031-.41.04a4.423 4.423 0 0 0-.263-.119c-.114.018-.29-.004-.527-.066a2.056 2.056 0 0 0-.224-.342 3.372 3.372 0 0 1-.37-.146c-.088-.052-.215-.255-.382-.606a5.223 5.223 0 0 1-.224-.449c.008-.079.008-.193 0-.343a1.208 1.208 0 0 0-.093-.171.419.419 0 0 1-.052-.238c.035-.079.07-.18.105-.303-.026-.062-.04-.176-.04-.343.018-.044.066-.084.146-.119a.468.468 0 0 0 .158-.105V7.71c.061-.114.136-.264.224-.448 0-.053.013-.132.04-.238.052-.07.241-.18.567-.33v-.039a.959.959 0 0 0 .224 0c.018-.061.044-.136.079-.224h.066a1.2 1.2 0 0 1-.488-.224.629.629 0 0 0-.145-.225l-.171-.066c-.045-.017-.071-.074-.08-.171a.148.148 0 0 0-.013-.066.517.517 0 0 1-.145-.158c-.018-.044 0-.246.053-.607.061-.37.11-.576.145-.62.044-.044.1-.11.171-.198v-.105c.167-.247.268-.387.304-.422.035-.036.167-.124.395-.264.229-.14.36-.216.396-.225.053.036.163.062.33.08.079-.07.193-.145.342-.225.097.01.233.01.41 0a.936.936 0 0 0 .21-.118c.114-.07.198-.106.25-.106Zm-.04 1.425-.079.079a3.137 3.137 0 0 0-.409 0c-.07.044-.158.092-.264.145H20.1c0 .097-.026.224-.079.382h-.145c-.035.176-.035.313 0 .41a.86.86 0 0 1 .08.118c-.018-.018-.045-.009-.08.026a.365.365 0 0 1 0 .198.57.57 0 0 0-.145.145c.009.106.009.269 0 .488.554.044.915.044 1.081 0l.04-.079c.158-.097.308-.158.448-.184.132-.018.321-.005.567.04.01-.062.035-.164.08-.304-.045 0 .096.009.421.026.185 0 .308-.022.37-.066.035-.026.061-.088.079-.184.026-.097.048-.185.066-.264-.106-.053-.268-.14-.488-.264a1.723 1.723 0 0 0-.08-.106 1.395 1.395 0 0 1-.223-.079.878.878 0 0 0-.225-.224 6.43 6.43 0 0 1-.606-.119.615.615 0 0 1-.119-.118.248.248 0 0 0-.21-.066Zm1.345 3.152v.08c-.088.026-.25.078-.488.158a8.526 8.526 0 0 1-.145.105c-.193 0-.483.013-.87.04-.158.061-.37.136-.633.224a.266.266 0 0 0-.119 0 .415.415 0 0 1-.066.145 4.694 4.694 0 0 0-.343.158c0 .062.005.123.014.185 0 .053-.031.092-.093.119a1.306 1.306 0 0 0-.263 0l-.04.066h-.105c0 .035.013.087.04.158.07.035.157.084.263.145a.272.272 0 0 0 0 .119.213.213 0 0 1 .105 0c.044.017.101.079.172.184.07.106.127.167.171.185h.145c.167.044.282.057.343.04.035-.035.084-.075.145-.12.229-.043.519-.004.87.12v.026c0 .009.014.013.04.013V9.4c.185-.096.286-.158.303-.184a.563.563 0 0 1 .027-.224h.079a.972.972 0 0 1 .158-.198h.29c.088-.229.242-.414.462-.554-.035-.018-.027-.044.026-.08a.6.6 0 0 0-.066-.118h.066c.009-.026.022-.075.04-.145a1.324 1.324 0 0 1-.225-.224 1.66 1.66 0 0 0-.079-.25c-.035-.098-.11-.142-.224-.133Zm8.05-4.234.223.066c.097.009.207 0 .33-.026a.976.976 0 0 1 .356-.014c.114.07.281.15.501.238.167.018.409.08.725.185.018.035.04.074.066.118.044 0 .097.013.159.04 0 .035.013.075.04.119a1.1 1.1 0 0 1 .184.026.703.703 0 0 0 .079.119h.158l.264.198v.105c.105.106.233.273.382.501 0 .097.027.238.08.422.087.062.215.15.382.264-.07.22-.07.488 0 .805-.194.035-.294.083-.303.145-.044.185-.07.286-.08.303-.043.07-.228.18-.553.33-.317.15-.528.22-.633.211-.044-.009-.176-.07-.396-.185-.22-.123-.343-.202-.37-.237a1.46 1.46 0 0 1-.078-.224c-.035-.035-.097-.058-.185-.066a.6.6 0 0 1-.224-.027 2.381 2.381 0 0 0-.158-.105c.017-.088.057-.216.118-.383.01-.026.058-.061.145-.105a.722.722 0 0 0 .08-.541 1.936 1.936 0 0 1-.185-.224.911.911 0 0 0-.04-.119 5.275 5.275 0 0 1-.54-.08c-.027 0-.12-.043-.277-.131-.132-.061-.242-.08-.33-.053v.119a8.718 8.718 0 0 1-.422.026.876.876 0 0 1-.158.317.7.7 0 0 0-.224.066v.119l-.224.263h-.08c.036.027.049.066.04.12-.07.052-.106.096-.106.131a.302.302 0 0 1-.052.171.226.226 0 0 0-.106.04c-.009.062-.035.15-.079.264a.412.412 0 0 1-.119.04c.07.008.106.026.106.052 0 .044-.048.08-.145.106.009.052.009.14 0 .264l-.08.04c0 .113.014.329.04.645a1.1 1.1 0 0 0-.184.08c.044.017.057.052.04.105-.01.062-.036.101-.08.119.009.035.022.1.04.198h.118v.066h.027c0 .167.026.36.079.58.044.035.123.057.237.066.115 0 .18.004.198.013.026.009.11.158.25.449.053-.106.093-.167.12-.185l.263-.04c.088.185.215.387.382.607.07.026.211.04.422.04s.352-.014.422-.04c.062-.07.163-.145.304-.224.105.026.26.053.461.079a.3.3 0 0 0 .25-.145c.062-.097.115-.19.159-.277a.327.327 0 0 0 .08-.04v-.118h.118c.035-.053.075-.115.118-.185a1.338 1.338 0 0 1 0-.383c.018 0 .04-.026.066-.079.088.009.216-.004.383-.04a.478.478 0 0 1 .118-.105h.159a.447.447 0 0 1 .105-.119c.141-.026.29 0 .449.08.158.079.263.167.316.263a.4.4 0 0 0 .04.146c.096.07.197.184.303.342.017.08 0 .185-.053.317s-.096.207-.132.224h-.118c0 .062-.014.15-.04.264l-.119.119c0 .079-.008.193-.026.343-.281.088-.501.202-.66.343v.079c-.017.053-.105.114-.263.184-.062.036-.167.049-.317.04-.149-.009-.233-.009-.25 0a1.944 1.944 0 0 1-.04.158.935.935 0 0 1-.303.225 3.869 3.869 0 0 0-.422.079 3.321 3.321 0 0 1-.224.145 1.415 1.415 0 0 1-.475 0 4.175 4.175 0 0 0-.448-.04c-.281.018-.396.031-.343.04l-.145-.066-.488.013c-.185.009-.33-.022-.435-.092a.993.993 0 0 0-.145-.198.272.272 0 0 1-.119 0 1.421 1.421 0 0 0-.119-.106 1.326 1.326 0 0 1-.263-.079.889.889 0 0 0-.159-.224h-.105l-.277-.198a1.348 1.348 0 0 0-.066-.224.854.854 0 0 1-.25-.238c.008-.087 0-.224-.027-.408a5.69 5.69 0 0 1-.224-.317 3.03 3.03 0 0 0-.08-.303.226.226 0 0 1-.105-.04 3.438 3.438 0 0 0-.079-.409 2.005 2.005 0 0 1-.198-.237c0-.115-.022-.29-.066-.528a3.896 3.896 0 0 1-.118-.158c-.044-.22-.03-.422.04-.607l.079-.04a1.759 1.759 0 0 1 0-.303c.043-.114.092-.268.145-.462a.946.946 0 0 1 0-.224c.088-.114.189-.281.303-.501a.4.4 0 0 1 0-.145c.079-.062.167-.14.264-.237.026-.08.079-.194.158-.343a.892.892 0 0 0 .198-.106c0-.061.022-.154.066-.277h.079v-.04c.044-.017.145-.092.303-.224.018-.044.044-.097.08-.158.087 0 .215-.022.381-.066a2.63 2.63 0 0 1 .304-.277v-.066a.403.403 0 0 1 .224-.053.853.853 0 0 0 .224-.04.823.823 0 0 0 .158-.105c.08 0 .194-.013.343-.04.07-.034.163-.07.277-.105Zm8.499-.198h.527c.088.044.198.097.33.159.08 0 .202.017.37.052.06.044.14.097.237.159.123 0 .303.04.54.118.044.035.092.115.145.238.053.114.097.184.132.21.097.054.233.137.409.251.158.141.294.33.409.568.026.14.083.347.171.62a.762.762 0 0 1 .119.118 1.54 1.54 0 0 0-.04.41c0 .008.022.06.066.157.044.097.062.18.053.251h-.04a2.882 2.882 0 0 1-.079.409l-.079.04c-.026.079-.057.162-.092.25-.027.08-.07.123-.132.132-.061 0-.154.009-.277.026a4.66 4.66 0 0 0-.198.12.535.535 0 0 1-.29.105.494.494 0 0 1-.118-.014 1.3 1.3 0 0 0-.159-.21.559.559 0 0 1-.171 0c-.185.149-.33.224-.435.224a.782.782 0 0 1-.264-.053 7.082 7.082 0 0 1-.119-.132 1.477 1.477 0 0 1-.369.08c-.009 0-.057-.014-.145-.04a.45.45 0 0 0-.224-.04l-.04.08a7.48 7.48 0 0 0-.409.052v.04a1.226 1.226 0 0 1-.408-.04.144.144 0 0 1-.027-.053c-.008-.026-.026-.04-.053-.04-.044.01-.096.045-.158.106a.462.462 0 0 1-.132.106c-.035.008-.087 0-.158-.027a.676.676 0 0 0-.119-.053c-.237-.035-.593.018-1.068.159 0 .316.053.562.159.738l.131.08c.01.044-.035.153-.131.33.026.017.158.18.395.487.185.246.312.37.383.37.07 0 .166.013.29.04l.21.25a.272.272 0 0 0 0 .118c.053.027.146.031.278.014a1.21 1.21 0 0 1 .29-.014c.053.01.145.045.277.106a.836.836 0 0 0 .343.092.565.565 0 0 0 .197-.04c.035-.043.088-.096.159-.158.079-.008.189-.035.33-.079v-.132a.517.517 0 0 0 .17-.04c0-.034.014-.074.04-.118.106-.044.255-.14.449-.29.052-.106.162-.242.33-.409a.47.47 0 0 0 .157 0c.062-.018.225-.123.488-.316l.08-.132c.079.008.189.008.33 0 0 .017.026.044.078.079l-.04.58c-.043.14-.096.33-.157.567a.56.56 0 0 1 0 .172c-.159.15-.352.338-.58.567a2.712 2.712 0 0 1-.146.185.306.306 0 0 1-.21.105c-.08 0-.203.013-.37.04-.07.079-.18.176-.33.29-.105 0-.281.013-.527.04-.053 0-.176.034-.37.105-.158.053-.294.07-.408.053a5.852 5.852 0 0 1-.172-.119 2.235 2.235 0 0 0-.382-.053c-.14-.017-.242-.057-.303-.118a1.622 1.622 0 0 0-.053-.159c-.018-.035-.101-.096-.25-.184a1.994 1.994 0 0 0-.33-.185c-.062-.026-.154-.035-.277-.026a.856.856 0 0 1-.277-.014 2.003 2.003 0 0 0-.172-.21 1.29 1.29 0 0 1-.276-.12 7.911 7.911 0 0 0-.251-.448 6.585 6.585 0 0 1-.488-.527.715.715 0 0 1-.092-.264 1.26 1.26 0 0 0-.093-.304 1.292 1.292 0 0 0-.105-.171 3.773 3.773 0 0 0 0-.449l-.08-.118c.027-.097.04-.264.04-.502-.035-.07-.048-.123-.04-.158.01-.053.067-.114.172-.184.114-.07.18-.132.198-.185a.276.276 0 0 0-.04-.25 5.863 5.863 0 0 1-.118-.199c-.027-.07-.035-.241-.027-.514.01-.272.031-.457.066-.554a.71.71 0 0 0 .12-.08c0-.043.012-.096.039-.157h.079c.017-.088.057-.211.118-.37a1.51 1.51 0 0 0 .251-.21c.009-.054.035-.133.08-.238.026-.035.175-.172.447-.41a.628.628 0 0 0 .172-.039 1.39 1.39 0 0 1 .198-.21c.087 0 .224-.027.408-.08.106-.079.216-.163.33-.25a.465.465 0 0 1 .211.026c.08.026.145.035.198.026.044-.052.11-.11.198-.171.114-.027.281-.04.5-.04Zm0 .818c-.018 0-.114.04-.29.119-.176.07-.273.114-.29.132a.802.802 0 0 1-.198.316c-.035.018-.119.005-.25-.04-.177-.017-.326.067-.45.251.019.044.045.097.08.159.009-.027.022.044.04.21-.018-.008-.044.005-.08.04-.404 0-.637.027-.698.08a.48.48 0 0 1 0 .158c-.044.087-.097.197-.159.33 0 .087-.026.224-.079.408h-.079a6.679 6.679 0 0 1-.092.25h-.08a.62.62 0 0 0-.012.12c0 .167.131.25.395.25.123 0 .325-.022.607-.066a3.8 3.8 0 0 1 .58-.079c.061 0 .11.005.145.013.061.053.132.11.21.172-.025.017-.02.03.014.04h.066v-.08c.018-.018.018-.061 0-.132.08 0 .215-.013.409-.04.308-.043.787-.11 1.437-.197a.753.753 0 0 0 .119-.119c0-.009-.013-.053-.04-.132.167-.114.414-.167.739-.158-.027-.22-.057-.365-.093-.435a.775.775 0 0 0-.237-.264.556.556 0 0 1-.171-.08c0-.07-.014-.18-.04-.329a5.335 5.335 0 0 1-.158-.237.333.333 0 0 0 0-.132.272.272 0 0 1-.119 0 .488.488 0 0 0-.092-.12c-.29-.184-.532-.294-.725-.329-.07.009-.167.009-.29 0a.578.578 0 0 0-.12-.079Z"/></svg>