<svg xmlns="http://www.w3.org/2000/svg" width="257" height="257" fill="none"><path fill="url(#a)" d="M128.5 0C57.524 0 0 57.524 0 128.5S57.524 257 128.5 257 257 199.476 257 128.5 199.476 0 128.5 0Zm-16.062 223.419c-18.252-3.082-34.736-11.284-47.982-23.11l47.982-38.379v61.489Zm32.124-61.489 47.982 38.384c-13.246 11.811-29.71 19.592-47.982 23.105V161.93ZM32.125 128.5c0-47.66 34.805-87.24 80.313-94.92v87.19l-68.115 54.512A95.572 95.572 0 0 1 32.125 128.5Zm180.553 46.782-68.116-54.512V33.576c45.528 7.684 80.313 47.289 80.313 94.924 0 16.966-4.467 32.928-12.197 46.782Z"/><defs><linearGradient id="a" x1="128.5" x2="128.5" y1="0" y2="257" gradientUnits="userSpaceOnUse"><stop stop-color="#1B1813"/><stop offset="1" stop-color="#1B1813" stop-opacity=".29"/></linearGradient></defs></svg>