<svg xmlns="http://www.w3.org/2000/svg" width="20" height="21" fill="none"><path fill="#fff" stroke="#241E15" d="m6.74 5.313.26.452.44-.28.053-.034h.001c.366-.23.829-.5 1.176-.617.302-.102.641-.133.925-.138.302-.005.57.1.792.274l.293.228.303-.214.146-.103c.356-.243.834-.525 1.24-.583.408-.059.918.083 1.296.222.141.052.27.104.376.15l.23.1.22-.125.692-.4a2.25 2.25 0 0 1 3.176 1.023l1.542 3.42c.25.552.38 1.15.383 1.756l.017 3.865a1.564 1.564 0 0 1-.781 1.36l-7.504 4.333a1.562 1.562 0 0 1-1.643-.05l-3.118-2.058-.016-.01-.017-.01-5.819-3.23a1.586 1.586 0 0 1 1.18-2.917l2.923.782 1.166.312-.603-1.045-4.499-7.79a1.906 1.906 0 0 1 3.302-1.907L6.74 5.313Z"/></svg>